<svg width="60" height="60" viewBox="0 0 60 60" fill="none" xmlns="http://www.w3.org/2000/svg">
<circle cx="30" cy="30" r="30" fill="#9DABB7"/>
<path d="M22.4847 18.0855C21.9285 17.9651 21.4167 18.0853 20.9492 18.4462C20.4817 18.807 20.0576 19.3216 19.677 19.9899C19.3142 20.6622 18.9864 21.4382 18.6935 22.3181C18.4224 23.1835 18.196 24.0585 18.0146 24.9432C17.852 25.7358 17.7858 26.4241 17.8159 27.0082C17.864 27.5961 17.9777 28.0924 18.157 28.497C18.3401 28.8831 18.587 29.1868 18.8977 29.4081C19.2262 29.6332 19.5879 29.7885 19.9826 29.874C20.3773 29.9594 20.7711 29.958 21.1639 29.8698C21.5785 29.7671 21.9671 29.5624 22.3298 29.2559C22.6924 28.9494 23.0221 28.5299 23.3187 27.9973C23.6191 27.4463 23.8543 26.7561 24.0244 25.9267C24.2286 24.9313 24.3567 23.9869 24.4088 23.0934C24.4609 22.1999 24.4275 21.4034 24.3087 20.7039C24.1936 19.9859 23.9855 19.4018 23.6843 18.9516C23.3869 18.483 22.9871 18.1943 22.4847 18.0855ZM23.4091 13.5788C24.5214 13.8196 25.4637 14.3413 26.236 15.1437C27.0263 15.9501 27.6385 16.9393 28.0727 18.1113C28.5068 19.2834 28.7635 20.5902 28.8425 22.0319C28.9254 23.4551 28.8137 24.9132 28.5075 26.4063C27.9139 29.3001 26.8701 31.3746 25.376 32.6297C23.8856 33.8664 21.8577 34.207 19.2921 33.6516C16.7803 33.1079 15.076 32.0074 14.1792 30.3502C13.3042 28.6784 13.1577 26.4233 13.7399 23.5847C14.0688 21.9811 14.5474 20.5158 15.1756 19.1887C15.8217 17.8655 16.5665 16.7466 17.4099 15.8319C18.2534 14.9172 19.186 14.2528 20.2078 13.8387C21.2296 13.4247 22.2967 13.338 23.4091 13.5788Z" fill="#FFFBEA"/>
<ellipse cx="23.0002" cy="21.1831" rx="2.06271" ry="2.11917" fill="#FFFBEA"/>
<path d="M39.6739 20.9112C39.1178 20.7908 38.6059 20.911 38.1384 21.2718C37.6709 21.6326 37.2468 22.1472 36.8662 22.8156C36.5034 23.4879 36.1756 24.2639 35.8827 25.1438C35.6116 26.0091 35.3852 26.8842 35.2038 27.7689C35.0412 28.5615 34.975 29.2498 35.0051 29.8339C35.0532 30.4218 35.1669 30.9181 35.3462 31.3226C35.5293 31.7088 35.7762 32.0125 36.0869 32.2338C36.4154 32.4589 36.7771 32.6142 37.1718 32.6996C37.5665 32.7851 37.9603 32.7837 38.3531 32.6955C38.7677 32.5927 39.1563 32.3881 39.519 32.0816C39.8816 31.7751 40.2113 31.3556 40.5079 30.823C40.8083 30.272 41.0435 29.5818 41.2137 28.7523C41.4178 27.757 41.5459 26.8126 41.598 25.9191C41.6501 25.0255 41.6167 24.229 41.4979 23.5295C41.3828 22.8116 41.1747 22.2275 40.8735 21.7773C40.5762 21.3087 40.1763 21.02 39.6739 20.9112ZM40.5983 16.4045C41.7106 16.6453 42.6529 17.167 43.4252 17.9694C44.2155 18.7758 44.8277 19.765 45.2619 20.937C45.6961 22.109 45.9527 23.4159 46.0317 24.8576C46.1146 26.2808 46.0029 27.7389 45.6967 29.2319C45.1031 32.1258 44.0593 34.2003 42.5652 35.4554C41.0749 36.6921 39.0469 37.0327 36.4813 36.4773C33.9695 35.9336 32.2653 34.8331 31.3685 33.1759C30.4934 31.5041 30.3469 29.249 30.9291 26.4104C31.258 24.8068 31.7366 23.3414 32.3648 22.0144C33.0109 20.6912 33.7557 19.5723 34.5991 18.6576C35.4426 17.7429 36.3752 17.0785 37.397 16.6644C38.4188 16.2503 39.4859 16.1637 40.5983 16.4045Z" fill="#FFFBEA"/>
<ellipse cx="40.1892" cy="24.0088" rx="2.06271" ry="2.11917" fill="#FFFBEA"/>
<path d="M37.7264 43.5717C37.0228 44.0161 36.2769 44.4426 35.4888 44.851C34.7194 45.2866 33.8483 45.6469 32.8754 45.9321C31.9024 46.2173 30.8198 46.4018 29.6276 46.4854C28.4542 46.5961 27.1225 46.5504 25.6327 46.3482C23.376 46.0419 21.3582 45.3509 19.5795 44.275C17.8195 43.2262 16.3079 41.8062 15.0446 40.0148C14.8189 39.6897 14.7465 39.2994 14.8273 38.8441C14.9301 38.3917 15.0925 38.0824 15.3145 37.9162C15.5646 37.7047 15.868 37.5986 16.2248 37.5979C16.5784 37.6214 16.9088 37.8258 17.216 38.2111C18.4509 39.8758 19.7761 41.0987 21.1915 41.8799C22.6069 42.661 24.1362 43.1631 25.7795 43.3861C26.9407 43.5437 27.9578 43.6081 28.8309 43.5793C29.704 43.5505 30.5332 43.4299 31.3184 43.2174C32.1006 43.029 32.8967 42.7321 33.7068 42.3266C34.5137 41.9453 35.4426 41.4823 36.4935 40.9377C36.9251 40.7018 37.3115 40.6438 37.6528 40.7637C38.0128 40.9107 38.2619 41.1409 38.3999 41.4541C38.5568 41.7945 38.5885 42.1547 38.4951 42.5347C38.4204 42.9418 38.1642 43.2875 37.7264 43.5717Z" fill="#FFFBEA"/>
<circle cx="30.0217" cy="30.0217" r="28.5217" stroke="#FFFBEA"/>
</svg>
