<svg width="283" height="100" viewBox="0 0 283 100" fill="none" xmlns="http://www.w3.org/2000/svg">
<ellipse cx="141.5" cy="50" rx="141.5" ry="50" fill="#13433D"/>
<path d="M276.5 50C276.5 55.8513 273.046 61.6488 266.289 67.1296C259.544 72.6002 249.693 77.5934 237.387 81.8152C212.789 90.2537 178.711 95.5 141 95.5C103.289 95.5 69.2106 90.2537 44.6131 81.8152C32.3071 77.5934 22.4558 72.6002 15.711 67.1296C8.9539 61.6488 5.5 55.8513 5.5 50C5.5 44.1487 8.9539 38.3512 15.711 32.8704C22.4558 27.3998 32.3071 22.4066 44.6131 18.1848C69.2106 9.74625 103.289 4.5 141 4.5C178.711 4.5 212.789 9.74625 237.387 18.1848C249.693 22.4066 259.544 27.3998 266.289 32.8704C273.046 38.3512 276.5 44.1487 276.5 50Z" stroke="#D5F1ED" stroke-width="3"/>
<path d="M114.709 32.5306C113.815 32.4142 113.02 32.6627 112.324 33.276C111.629 33.8894 111.02 34.7341 110.499 35.81C110.006 36.8898 109.582 38.125 109.225 39.5156C108.9 40.8812 108.648 42.2562 108.468 43.6405C108.306 44.8807 108.285 45.9484 108.403 46.8436C108.55 47.7426 108.789 48.4924 109.122 49.0929C109.458 49.6646 109.885 50.1015 110.403 50.4035C110.95 50.7093 111.541 50.9035 112.175 50.9861C112.81 51.0687 113.432 51.0177 114.043 50.8332C114.686 50.6237 115.276 50.2605 115.812 49.7437C116.349 49.227 116.819 48.5404 117.224 47.6838C117.633 46.7985 117.921 45.7069 118.09 44.4091C118.293 42.8517 118.382 41.3821 118.356 40.0003C118.331 38.6185 118.182 37.3966 117.909 36.3346C117.641 35.2438 117.241 34.3706 116.711 33.715C116.184 33.0305 115.517 32.6357 114.709 32.5306ZM115.627 25.479C117.415 25.7118 118.968 26.3979 120.286 27.5373C121.633 28.6805 122.721 30.1272 123.549 31.8774C124.377 33.6276 124.94 35.6073 125.24 37.8166C125.542 39.9971 125.542 42.2553 125.238 44.5914C124.648 49.1194 123.248 52.442 121.037 54.5592C118.829 56.6475 115.663 57.4233 111.539 56.8865C107.501 56.361 104.673 54.8784 103.055 52.4387C101.47 49.974 100.966 46.5209 101.544 42.0795C101.871 39.5703 102.45 37.2555 103.284 35.1349C104.146 33.0181 105.189 31.2034 106.412 29.6909C107.635 28.1784 109.03 27.0401 110.596 26.276C112.162 25.512 113.839 25.2463 115.627 25.479Z" fill="white"/>
<circle cx="115.898" cy="37.2347" r="3.27194" transform="rotate(-4.48336 115.898 37.2347)" fill="white"/>
<path d="M142.233 34.7483C141.339 34.632 140.544 34.8805 139.848 35.4938C139.152 36.1072 138.544 36.9518 138.022 38.0278C137.53 39.1075 137.105 40.3428 136.748 41.7334C136.424 43.099 136.171 44.474 135.991 45.8583C135.83 47.0985 135.808 48.1662 135.926 49.0614C136.073 49.9604 136.313 50.7102 136.645 51.3107C136.982 51.8824 137.409 52.3193 137.927 52.6213C138.473 52.9271 139.064 53.1213 139.699 53.2039C140.333 53.2865 140.956 53.2355 141.566 53.051C142.209 52.8414 142.799 52.4783 143.336 51.9615C143.872 51.4448 144.343 50.7581 144.748 49.9016C145.156 49.0162 145.445 47.9247 145.614 46.6268C145.817 45.0694 145.905 43.5998 145.88 42.2181C145.854 40.8363 145.705 39.6144 145.433 38.5524C145.164 37.4616 144.765 36.5884 144.234 35.9327C143.707 35.2482 143.04 34.8534 142.233 34.7483ZM143.15 27.6968C144.939 27.9295 146.492 28.6156 147.81 29.7551C149.157 30.8982 150.244 32.3449 151.072 34.0951C151.901 35.8454 152.464 37.8251 152.763 40.0344C153.066 42.2148 153.065 44.4731 152.761 46.8092C152.172 51.3372 150.772 54.6597 148.56 56.7769C146.353 58.8653 143.187 59.641 139.063 59.1043C135.025 58.5787 132.197 57.0961 130.579 54.6565C128.993 52.1918 128.489 48.7387 129.068 44.2972C129.394 41.7881 129.974 39.4732 130.807 37.3527C131.669 35.2359 132.712 33.4212 133.935 31.9087C135.159 30.3961 136.554 29.2578 138.119 28.4938C139.685 27.7297 141.362 27.4641 143.15 27.6968Z" fill="white"/>
<circle cx="143.421" cy="39.4524" r="3.27194" transform="rotate(-4.48336 143.421 39.4524)" fill="white"/>
<path d="M141.888 69.8704C140.829 70.6417 139.701 71.3907 138.504 72.1171C137.34 72.8829 136.005 73.5456 134.501 74.1053C132.997 74.6649 131.307 75.083 129.432 75.3596C127.59 75.6755 125.478 75.7702 123.098 75.6437C119.492 75.4521 116.218 74.6386 113.275 73.2031C110.366 71.807 107.804 69.8086 105.59 67.208C105.194 66.7355 105.032 66.1438 105.105 65.4328C105.213 64.7238 105.432 64.2276 105.763 63.9442C106.133 63.5876 106.6 63.3867 107.164 63.3414C107.727 63.3337 108.274 63.6073 108.806 64.1623C110.96 66.5716 113.203 68.2897 115.536 69.3166C117.868 70.3434 120.347 70.9266 122.973 71.0661C124.828 71.1647 126.444 71.1377 127.822 70.9852C129.199 70.8326 130.495 70.5441 131.712 70.1197C132.926 69.7327 134.149 69.177 135.381 68.4524C136.611 67.7653 138.024 66.9375 139.62 65.9689C140.274 65.5522 140.878 65.4151 141.432 65.5574C142.02 65.739 142.441 66.0624 142.697 66.5275C142.986 67.0319 143.08 67.5824 142.978 68.1789C142.909 68.8148 142.546 69.3786 141.888 69.8704Z" fill="white"/>
<path d="M45.9168 58.0474C46.1163 57.0105 45.9016 56.1356 45.2727 55.4229C44.6758 54.7098 43.8619 54.0466 42.8309 53.4332C41.8319 52.8193 40.7369 52.2068 39.546 51.5955C38.355 50.9842 37.2621 50.2776 36.2674 49.4756C35.3047 48.6733 34.5452 47.7272 33.9888 46.6374C33.4705 45.5158 33.3655 44.1537 33.6739 42.5511C34.3087 39.2516 35.8551 36.7708 38.3133 35.1087C40.7776 33.4152 44.0895 32.5412 48.2491 32.4867C49.593 32.4691 50.9988 32.5448 52.4664 32.7136C53.94 32.8511 55.4915 33.0815 57.1209 33.405C57.6467 33.4921 57.9641 33.8328 58.0733 34.4269C58.2144 35.0206 58.2154 35.6788 58.0764 36.4015C57.9857 36.8729 57.847 37.3449 57.6603 37.8175C57.4797 38.2587 57.2571 38.6691 56.9926 39.0487C56.7661 39.3964 56.5067 39.6663 56.2145 39.8581C55.9283 40.0186 55.6373 40.0381 55.3415 39.9166C53.9983 39.4327 52.66 39.0897 51.3264 38.8878C49.9928 38.6858 48.7181 38.5928 47.5022 38.6087C45.8704 38.6301 44.4721 38.9305 43.3073 39.5099C42.1746 40.089 41.4783 41.0541 41.2183 42.4053C41.0792 43.128 41.3332 43.7986 41.9803 44.4171C42.6273 45.0355 43.4633 45.6671 44.4882 46.3119C45.5452 46.9563 46.673 47.6468 47.8718 48.3834C49.0766 49.0885 50.1643 49.9049 51.1349 50.8326C52.1434 51.7284 52.9168 52.7683 53.455 53.9523C53.9932 55.1364 54.1142 56.4983 53.818 58.038C53.4855 59.7663 52.8684 61.2319 51.9667 62.4348C51.1031 63.6059 49.9748 64.5767 48.5818 65.3472C47.2268 66.0858 45.6202 66.6397 43.7619 67.0089C41.9096 67.3466 39.8315 67.5305 37.5277 67.5606C36.3118 67.5766 35.057 67.546 33.7632 67.4689C32.4954 67.4228 31.1567 67.3306 29.7471 67.1923C29.4651 67.1647 29.2333 67.0423 29.0517 66.8253C28.902 66.6078 28.7804 66.3273 28.6869 65.9838C28.6255 65.6398 28.602 65.2639 28.6166 64.8563C28.6373 64.4172 28.6899 63.9777 28.7745 63.5377C28.8713 63.035 29.013 62.5473 29.1996 62.0746C29.3863 61.602 29.5929 61.1918 29.8194 60.8441C30.0519 60.4649 30.3143 60.1794 30.6066 59.9875C30.8988 59.7956 31.2019 59.7133 31.5158 59.7405C33.0993 59.9705 34.6988 60.2003 36.3143 60.43C37.9358 60.6281 39.4186 60.7184 40.7624 60.7008C42.1383 60.6828 43.2915 60.4953 44.2219 60.1384C45.1584 59.75 45.7233 59.053 45.9168 58.0474ZM77.7743 62.8493C77.5055 63.417 77.0239 63.8465 76.3295 64.1376C75.6352 64.4288 74.92 64.5792 74.1841 64.5889C73.3842 64.5994 72.6754 64.4676 72.0579 64.1936C71.4464 63.8881 71.1181 63.4379 71.073 62.843C70.9053 59.8988 70.6625 57.0966 70.3444 54.4365C70.0324 51.7449 69.6335 49.0075 69.1476 46.2242C68.9983 47.1665 68.8389 48.0776 68.6697 48.9574C68.5384 49.8054 68.3912 50.6537 68.228 51.5021C67.7866 53.7961 67.2904 56.0437 66.7392 58.245C66.22 60.4459 65.6295 62.8515 64.9678 65.4618C64.801 65.9968 64.3735 66.3942 63.6852 66.654C62.9968 66.9138 62.2367 67.0491 61.4048 67.06C60.8608 67.0671 60.342 67.0269 59.8481 66.9393C59.3543 66.8518 58.9145 66.7321 58.5288 66.5805C58.1491 66.3974 57.8555 66.1818 57.6478 65.9338C57.4722 65.6853 57.4307 65.4037 57.5231 65.0891C58.6471 60.9055 59.6739 56.8957 60.6035 53.0595C61.565 49.2228 62.4327 45.2934 63.2065 41.2712C63.4121 40.2027 63.6016 39.1346 63.7752 38.0666C63.9868 36.9667 64.1824 35.8671 64.362 34.7677C64.4466 34.3278 64.6151 33.9494 64.8676 33.6327C65.152 33.3155 65.4884 33.0603 65.8766 32.8672C66.3029 32.6422 66.7651 32.4794 67.2632 32.3789C67.7613 32.2783 68.2503 32.2249 68.7303 32.2186C69.5942 32.2073 70.3799 32.3537 71.0874 32.6579C71.8329 32.9303 72.2823 33.3319 72.4355 33.8627C73.3685 37.1417 74.1287 40.4073 74.7158 43.6594C75.309 46.8801 75.8002 50.1335 76.1893 53.4196C77.8661 50.0125 79.5759 46.6832 81.3185 43.4319C83.0671 40.1492 84.9636 36.9272 87.0081 33.766C87.3668 33.2284 87.9414 32.8134 88.7317 32.521C89.5601 32.1967 90.3903 32.0291 91.2222 32.0182C91.7022 32.0119 92.157 32.053 92.5869 32.1414C93.0487 32.2294 93.4504 32.3809 93.7921 32.5958C94.1398 32.7793 94.3954 33.0267 94.5589 33.338C94.7544 33.6489 94.8259 34.0241 94.7732 34.4636C94.4929 37.4137 94.1508 40.2705 93.7467 43.0341C93.3488 45.7663 92.8838 48.5151 92.3518 51.2804C91.8923 53.6686 91.3818 56.0731 90.8203 58.494C90.2588 60.9149 89.6532 63.399 89.0035 65.9464C88.8688 66.4811 88.4412 66.8785 87.7209 67.1387C87.0006 67.3988 86.2245 67.5344 85.3926 67.5453C84.8486 67.5524 84.3137 67.5124 83.7879 67.4252C83.2941 67.3377 82.8413 67.2025 82.4297 67.0199C82.0439 66.8682 81.7472 66.6683 81.5396 66.4203C81.332 66.1722 81.2744 65.8909 81.3669 65.5762C81.8957 63.6573 82.3873 61.8485 82.8417 60.15C83.3022 58.42 83.7277 56.7062 84.1181 55.0084C84.5406 53.3103 84.9341 51.5969 85.2986 49.8681C85.6951 48.139 86.0967 46.3001 86.5036 44.3514C84.863 47.57 83.3426 50.6617 81.9424 53.6264C80.5482 56.5597 79.1589 59.634 77.7743 62.8493Z" fill="white"/>
<path d="M182.346 32.0412C182.927 32.0022 183.313 32.2483 183.503 32.7796C183.692 33.3109 183.726 33.9069 183.605 34.5679C183.489 35.1973 183.216 35.8131 182.786 36.4153C182.394 36.9855 181.872 37.3063 181.221 37.3777C180.072 37.5497 178.926 37.706 177.783 37.8465C176.672 37.9867 175.548 38.1113 174.41 38.2203C174.2 40.2325 173.947 42.2138 173.652 44.1642C173.395 46.0827 173.09 48.0019 172.737 49.9217C172.303 52.2822 171.808 54.6277 171.252 56.9583C170.728 59.2885 170.112 61.6827 169.404 64.1409C169.242 64.6768 168.786 65.0752 168.035 65.3362C167.323 65.5653 166.519 65.6857 165.623 65.6974C165.047 65.705 164.48 65.6653 163.921 65.5784C163.362 65.4915 162.858 65.3726 162.407 65.2215C161.993 65.0385 161.666 64.823 161.424 64.575C161.183 64.327 161.107 64.0454 161.196 63.7303C162.35 59.5395 163.428 55.4124 164.431 51.3491C165.466 47.2854 166.43 43.0814 167.325 38.7369C166.813 38.7436 166.298 38.7661 165.78 38.8043C165.3 38.8105 164.804 38.817 164.292 38.8237C163.556 38.8334 162.837 38.8428 162.133 38.852C161.466 38.8293 160.768 38.8071 160.038 38.7852C159.436 38.7617 159.057 38.3899 158.903 37.6698C158.78 36.9493 158.799 36.1484 158.961 35.2672C159.123 34.386 159.396 33.5975 159.779 32.9018C160.2 32.1741 160.68 31.8225 161.218 31.8469C163.973 31.9678 166.718 32.0574 169.452 32.1158C172.187 32.1742 174.946 32.1852 177.729 32.1488C178.497 32.1387 179.265 32.1287 180.033 32.1186C180.801 32.1085 181.572 32.0828 182.346 32.0412ZM189.09 32.6594C189.174 32.0303 189.616 31.5379 190.416 31.1821C191.215 30.8262 192.031 30.6429 192.863 30.632C193.599 30.6224 194.258 30.7707 194.84 31.0771C195.428 31.3519 195.693 31.8194 195.635 32.4795C195.454 34.6796 195.234 36.8332 194.974 38.9401C194.714 41.0471 194.419 43.1702 194.09 45.3095C197.13 45.2697 200.273 45.2757 203.519 45.3273C203.771 44.131 204.007 42.9348 204.227 41.7389C204.485 40.511 204.726 39.2834 204.952 38.056C205.114 37.1748 205.257 36.3095 205.381 35.4602C205.543 34.5789 205.708 33.682 205.876 32.7693C205.934 32.4546 206.082 32.1701 206.321 31.9158C206.559 31.6615 206.852 31.4536 207.201 31.292C207.582 31.13 207.989 30.9991 208.423 30.8993C208.856 30.7994 209.297 30.7465 209.745 30.7407C210.513 30.7306 211.188 30.8788 211.77 31.1851C212.357 31.46 212.625 31.9117 212.574 32.5403C212.361 35.4316 212.061 38.2769 211.674 41.0763C211.293 43.8441 210.848 46.6129 210.338 49.3824C209.875 51.9002 209.367 54.4029 208.814 56.8904C208.261 59.378 207.648 61.9291 206.976 64.5439C206.845 65.0793 206.405 65.4775 205.655 65.7385C204.937 65.9991 204.129 66.1352 203.234 66.147C202.658 66.1545 202.09 66.1148 201.532 66.028C201.005 65.9407 200.535 65.8055 200.122 65.6226C199.735 65.4706 199.421 65.2707 199.179 65.0227C198.969 64.7743 198.909 64.4925 198.999 64.1773C200.182 59.8291 201.24 55.6395 202.172 51.6086C200.648 51.5657 199.121 51.5386 197.591 51.5273C196.061 51.5159 194.531 51.5045 193.001 51.4932C192.592 53.5393 192.152 55.5858 191.68 57.6328C191.208 59.6797 190.692 61.79 190.133 63.9637C189.97 64.4996 189.53 64.8978 188.812 65.1584C188.094 65.419 187.302 65.5549 186.439 65.5662C185.895 65.5733 185.359 65.5333 184.833 65.446C184.306 65.3587 183.833 65.2393 183.414 65.0878C183.033 64.9044 182.738 64.6885 182.528 64.44C182.318 64.1916 182.258 63.9098 182.348 63.5947C183.537 59.215 184.587 54.9784 185.499 50.8849C186.444 46.791 187.31 42.604 188.097 38.3237C188.27 37.3796 188.441 36.4511 188.609 35.5384C188.783 34.5943 188.943 33.6346 189.09 32.6594ZM219.562 32.4488C219.62 32.1341 219.768 31.8496 220.006 31.5953C220.245 31.341 220.538 31.1331 220.887 30.9716C221.274 30.7781 221.684 30.6315 222.117 30.5316C222.582 30.4313 223.039 30.3783 223.487 30.3724C224.255 30.3623 224.914 30.5107 225.464 30.8175C226.052 31.0923 226.336 31.5439 226.316 32.172C226.127 35.6281 225.806 39.0232 225.353 42.3571C224.937 45.6592 224.414 49.0255 223.783 52.456C223.117 56.0753 222.339 59.7903 221.446 63.6009C221.31 64.1678 220.848 64.5977 220.06 64.8906C219.278 65.152 218.423 65.2888 217.495 65.301C216.951 65.3081 216.416 65.268 215.889 65.1807C215.357 65.1249 214.881 65.0212 214.462 64.8697C214.081 64.6863 213.782 64.4861 213.567 64.2692C213.357 64.0208 213.297 63.739 213.387 63.4238C214.274 59.99 215.063 56.6516 215.755 53.4087C216.448 50.1658 217.097 46.8921 217.705 43.5875C218.041 41.7621 218.361 39.9369 218.664 38.112C218.974 36.2555 219.273 34.3678 219.562 32.4488ZM236.427 57.8476C236.291 58.4145 236.458 58.8048 236.93 59.0184C237.433 59.2316 237.951 59.3661 238.484 59.4219C239.496 59.4715 240.476 59.5214 241.425 59.5718C242.411 59.5903 243.384 59.5932 244.344 59.5807C245.176 59.5698 245.994 59.5434 246.8 59.5014C247.638 59.4591 248.494 59.4008 249.37 59.3265C249.856 59.2887 250.201 59.5825 250.405 60.2078C250.615 60.8015 250.659 61.4289 250.538 62.0898C250.457 62.5304 250.304 62.9249 250.081 63.2732C249.857 63.6214 249.544 63.8453 249.143 63.9448C245.339 64.8423 241.389 65.3178 237.294 65.3714C236.238 65.3853 235.172 65.3678 234.095 65.3191C233.051 65.27 232.013 65.1894 230.98 65.0773C230.479 65.0211 229.988 64.9176 229.505 64.767C229.054 64.6159 228.662 64.4012 228.33 64.123C228.03 63.8444 227.803 63.5177 227.649 63.143C227.532 62.7363 227.555 62.2651 227.717 61.7292C228.787 57.822 229.717 53.9795 230.507 50.2016C231.336 46.3918 232.126 42.4411 232.878 38.3497L233.712 33.8177C233.862 32.9995 234.317 32.3499 235.076 31.869C235.866 31.3877 236.652 31.1106 237.431 31.0376C238.371 30.9625 239.307 30.9031 240.241 30.8595C241.175 30.8159 242.137 30.7876 243.129 30.7746C244.793 30.7528 246.48 30.7778 248.191 30.8496C249.907 30.8899 251.615 30.9775 253.314 31.1122C253.974 31.1664 254.415 31.4589 254.637 31.9897C254.858 32.5205 254.911 33.1007 254.795 33.7301C254.674 34.391 254.385 35.0071 253.929 35.5782C253.478 36.1178 252.92 36.3763 252.254 36.3536L250.574 36.3756C249.038 36.3957 247.545 36.4466 246.093 36.5284C244.642 36.6102 243.15 36.7397 241.617 36.9167C241.125 36.9859 240.72 37.1953 240.4 37.5449C240.086 37.8629 239.899 38.2735 239.838 38.7767C239.682 39.9718 239.5 41.1358 239.292 42.2688C239.121 43.37 238.951 44.4711 238.78 45.5722L241.708 45.5339C244.588 45.4962 247.507 45.505 250.465 45.5605C251.035 45.5844 251.399 45.8622 251.557 46.3939C251.752 46.8937 251.792 47.4583 251.676 48.0878C251.543 48.8116 251.243 49.4906 250.775 50.1246C250.307 50.7587 249.756 51.0642 249.122 51.0411C248.264 51.0209 247.403 51.0165 246.539 51.0278C245.713 51.0072 244.868 51.0026 244.004 51.0139C242.98 51.0273 241.937 51.0566 240.875 51.1019C239.852 51.1153 238.825 51.1445 237.795 51.1893C237.56 52.2913 237.342 53.393 237.139 54.4946C236.937 55.5961 236.699 56.7138 236.427 57.8476Z" fill="white"/>
</svg>
