<svg width="150" height="150" viewBox="0 0 150 150" fill="none" xmlns="http://www.w3.org/2000/svg">
<circle cx="75" cy="75" r="75" fill="#9DABB7"/>
<circle cx="75.0002" cy="75.0002" r="71.5544" stroke="#D5F1ED" stroke-width="2"/>
<path d="M34.2525 65.4238C34.1335 64.5518 33.7155 63.8553 32.9985 63.3341C32.3079 62.8093 31.451 62.3475 30.4277 61.9489C29.4308 61.5466 28.3547 61.1551 27.1993 60.7744C26.0439 60.3938 24.9438 59.9249 23.8989 59.3676C22.8804 58.8068 21.991 58.1073 21.2307 57.269C20.4933 56.4007 20.0326 55.2928 19.8488 53.9453C19.4703 51.171 20.0725 48.9761 21.6554 47.3607C23.2346 45.7188 25.7416 44.6636 29.1765 44.195C30.2862 44.0437 31.4728 43.9625 32.7363 43.9516C33.9961 43.9144 35.346 43.9455 36.7861 44.0451C37.246 44.0631 37.6027 44.3105 37.8562 44.7873C38.136 45.2605 38.3174 45.8009 38.4003 46.4086C38.4544 46.8049 38.4688 47.2067 38.4436 47.6138C38.4148 47.9945 38.3428 48.3542 38.2275 48.6929C38.135 49.0016 37.9939 49.2496 37.8042 49.437C37.6108 49.5979 37.3748 49.6436 37.0962 49.5739C35.8496 49.3134 34.6455 49.1681 33.4842 49.1382C32.3228 49.1082 31.2401 49.1617 30.236 49.2987C28.8885 49.4825 27.8112 49.8717 27.0042 50.4662C26.2236 51.0572 25.9108 51.9207 26.0658 53.0568C26.1487 53.6645 26.5432 54.1894 27.2494 54.6313C27.9556 55.0732 28.8222 55.5067 29.8491 55.9318C30.9024 56.3533 32.0272 56.8055 33.2234 57.2882C34.416 57.7445 35.542 58.3041 36.6013 58.967C37.6834 59.5999 38.6101 60.3751 39.3812 61.2926C40.1522 62.2101 40.6261 63.3162 40.8027 64.6109C41.001 66.0641 40.8911 67.3306 40.4733 68.4103C40.0782 69.46 39.4087 70.3722 38.4647 71.1469C37.5436 71.8916 36.363 72.5102 34.923 73.0027C33.4795 73.4687 31.8065 73.8315 29.9041 74.0911C28.9001 74.228 27.851 74.3308 26.7569 74.3993C25.6928 74.4906 24.5572 74.5513 23.3502 74.5814C23.1088 74.5874 22.883 74.5106 22.6729 74.3509C22.4891 74.1875 22.3113 73.9696 22.1396 73.6969C21.9942 73.4207 21.8717 73.1145 21.772 72.7782C21.6687 72.4155 21.5918 72.0492 21.5414 71.6793C21.4837 71.2565 21.4675 70.8416 21.4927 70.4344C21.5179 70.0273 21.5767 69.6694 21.6691 69.3607C21.758 69.0257 21.8973 68.7644 22.0871 68.5771C22.2768 68.3897 22.5056 68.2912 22.7734 68.2816C24.1498 68.3091 25.5393 68.3349 26.9421 68.3588C28.3413 68.3563 29.5957 68.2794 30.7055 68.128C31.8416 67.973 32.7465 67.7016 33.4203 67.3136C34.0904 66.8992 34.3678 66.2693 34.2525 65.4238Z" fill="white"/>
<path d="M62.6976 58.7749C62.615 59.2662 62.3209 59.659 61.8155 59.9532C61.3101 60.2474 60.7523 60.4265 60.1423 60.4903C59.4793 60.5597 58.8568 60.5042 58.2749 60.3239C57.6901 60.117 57.3051 59.7685 57.1197 59.2785C56.2487 56.8493 55.3504 54.5436 54.4249 52.3615C53.4965 50.1528 52.4844 47.9127 51.3886 45.6411C51.4984 46.4339 51.5922 47.2017 51.6699 47.9443C51.7714 48.6576 51.8597 49.3723 51.9346 50.0884C52.1373 52.0245 52.2828 53.9263 52.3711 55.794C52.4859 57.6588 52.5922 59.6988 52.6901 61.914C52.6842 62.3704 52.4272 62.7325 51.919 63.0002C51.4108 63.2679 50.8119 63.4379 50.1223 63.5101C49.6714 63.5573 49.2297 63.5633 48.797 63.5282C48.3643 63.493 47.9686 63.4272 47.61 63.3307C47.2485 63.2076 46.9506 63.0511 46.7162 62.8612C46.5084 62.6684 46.4038 62.4381 46.4026 62.1701C46.2985 58.6149 46.1566 55.2112 45.977 51.9589C45.8239 48.7038 45.5697 45.3789 45.2143 41.9841C45.1199 41.0824 45.0122 40.182 44.8913 39.283C44.7941 38.3548 44.6836 37.4279 44.5599 36.5024C44.5211 36.1311 44.5673 35.8045 44.6987 35.5227C44.8566 35.238 45.073 35.0008 45.3481 34.8112C45.6469 34.5922 45.9911 34.4221 46.3806 34.3009C46.7701 34.1797 47.1637 34.0982 47.5616 34.0566C48.2777 33.9816 48.9678 34.0434 49.6321 34.242C50.3202 34.4113 50.7939 34.7102 51.0532 35.1389C52.6444 37.7876 54.0882 40.4384 55.3848 43.0911C56.6786 45.7173 57.8957 48.3784 59.0359 51.0743C59.5847 48.1211 60.1803 45.2301 60.8225 42.4012C61.462 39.5457 62.2397 36.7294 63.1555 33.9523C63.3205 33.4792 63.6954 33.0914 64.2805 32.7889C64.8892 32.457 65.5384 32.255 66.2279 32.1828C66.6258 32.1411 67.0145 32.1407 67.3941 32.1814C67.8003 32.2193 68.1722 32.3144 68.5099 32.4667C68.8448 32.5925 69.119 32.7783 69.3324 33.0241C69.5724 33.2671 69.725 33.5729 69.7904 33.9414C70.2901 36.4095 70.7152 38.8049 71.0656 41.1277C71.4133 43.424 71.7093 45.7391 71.9536 48.073C72.1646 50.0886 72.3373 52.1217 72.4715 54.1722C72.6057 56.2227 72.719 58.329 72.8113 60.4912C72.832 60.9448 72.5749 61.3069 72.0402 61.5774C71.5055 61.8479 70.8933 62.0192 70.2037 62.0914C69.7529 62.1386 69.2978 62.146 68.8386 62.1137C68.406 62.0785 67.9956 62.0008 67.6077 61.8806C67.249 61.784 66.9525 61.6408 66.7181 61.4508C66.4837 61.2609 66.3659 61.0319 66.3647 60.7639C66.3279 59.1322 66.2876 57.5947 66.2437 56.1514C66.1971 54.6816 66.1253 53.2279 66.0284 51.7901C65.9581 50.3496 65.8598 48.8987 65.7336 47.4372C65.6339 45.9729 65.5113 44.4172 65.3656 42.7701C64.8002 45.5642 64.3031 48.2438 63.8746 50.8091C63.4432 53.3478 63.0509 56.0031 62.6976 58.7749Z" fill="white"/>
<path d="M45.9034 83.3166C46.3831 83.2853 46.7451 83.4951 46.9895 83.9461C47.2339 84.397 47.3588 84.9025 47.3643 85.4625C47.3695 85.9958 47.2412 86.5171 46.9795 87.0263C46.7442 87.5086 46.3601 87.779 45.8273 87.8376C44.8953 87.98 43.9632 88.109 43.0309 88.2248C42.1254 88.3402 41.2063 88.4425 40.2738 88.5316C40.4237 90.2369 40.5334 91.9159 40.6028 93.5686C40.6986 95.1944 40.7544 96.8206 40.7702 98.4472C40.7897 100.447 40.7557 102.434 40.6682 104.409C40.6074 106.383 40.4804 108.411 40.2873 110.492C40.2384 110.946 39.9217 111.283 39.3371 111.502C38.779 111.694 38.1266 111.794 37.3799 111.801C36.9 111.806 36.4196 111.77 35.9388 111.695C35.4581 111.62 35.0171 111.517 34.6158 111.388C34.2409 111.231 33.9324 111.048 33.6904 110.837C33.4483 110.626 33.3393 110.387 33.3634 110.12C33.6489 106.57 33.8816 103.074 34.0615 99.6325C34.268 96.1904 34.3934 92.629 34.4376 88.9484C34.0109 88.9525 33.5844 88.97 33.158 89.0008C32.758 89.0047 32.3447 89.0087 31.9181 89.0129C31.3048 89.0188 30.7048 89.0247 30.1182 89.0304C29.5579 89.0091 28.971 88.9882 28.3575 88.9675C27.8506 88.9457 27.4741 88.6294 27.2282 88.0184C27.0089 87.4072 26.8956 86.7283 26.8884 85.9816C26.8811 85.235 26.9813 84.5673 27.1889 83.9786C27.4229 83.363 27.7667 83.0663 28.2203 83.0885C30.5415 83.1993 32.8491 83.2835 35.1431 83.3412C37.4371 83.3989 39.744 83.4165 42.0639 83.3939C42.7039 83.3877 43.3439 83.3815 43.9838 83.3753C44.6238 83.369 45.2636 83.3495 45.9034 83.3166Z" fill="white"/>
<path d="M54.8844 76.68C54.8578 76.1467 55.1511 75.7333 55.7644 75.44C56.3778 75.1467 57.0311 75 57.7244 75C58.3378 75 58.9111 75.1333 59.4444 75.4C59.9778 75.64 60.2711 76.04 60.3244 76.6C60.5111 78.4667 60.6578 80.2933 60.7644 82.08C60.8711 83.8667 60.9511 85.6667 61.0044 87.48C63.5378 87.48 66.1644 87.52 68.8844 87.6C68.9111 86.5867 68.9244 85.5733 68.9244 84.56C68.9511 83.52 68.9644 82.48 68.9644 81.44C68.9644 80.6933 68.9511 79.96 68.9244 79.24C68.9244 78.4933 68.9244 77.7333 68.9244 76.96C68.9244 76.6933 69.0044 76.4533 69.1644 76.24C69.3244 76.0267 69.5378 75.8533 69.8044 75.72C70.0978 75.5867 70.4178 75.48 70.7644 75.4C71.1111 75.32 71.4711 75.28 71.8444 75.28C72.4844 75.28 73.0711 75.4133 73.6044 75.68C74.1378 75.92 74.4311 76.3067 74.4844 76.84C74.7511 79.2933 74.9378 81.7067 75.0444 84.08C75.1511 86.4267 75.2044 88.7733 75.2044 91.12C75.2044 93.2533 75.1644 95.3733 75.0844 97.48C75.0044 99.5867 74.8844 101.747 74.7244 103.96C74.6978 104.413 74.3911 104.747 73.8044 104.96C73.2444 105.173 72.5911 105.28 71.8444 105.28C71.3644 105.28 70.8844 105.24 70.4044 105.16C69.9511 105.08 69.5378 104.96 69.1644 104.8C68.8178 104.667 68.5244 104.493 68.2844 104.28C68.0711 104.067 67.9778 103.827 68.0044 103.56C68.3244 99.88 68.5644 96.3333 68.7244 92.92C67.4444 92.8667 66.1644 92.8267 64.8844 92.8C63.6044 92.7733 62.3244 92.7467 61.0444 92.72C61.0178 94.4533 60.9644 96.1867 60.8844 97.92C60.8044 99.6533 60.6978 101.44 60.5644 103.28C60.5111 103.733 60.2044 104.067 59.6444 104.28C59.0844 104.493 58.4444 104.6 57.7244 104.6C57.2711 104.6 56.8178 104.56 56.3644 104.48C55.9111 104.4 55.4978 104.293 55.1244 104.16C54.7778 104 54.4978 103.813 54.2844 103.6C54.0711 103.387 53.9778 103.147 54.0044 102.88C54.3244 99.1733 54.5511 95.5867 54.6844 92.12C54.8444 88.6533 54.9244 85.1067 54.9244 81.48C54.9244 80.68 54.9244 79.8933 54.9244 79.12C54.9244 78.32 54.9111 77.5067 54.8844 76.68Z" fill="white"/>
<path d="M83.4044 89.72C83.4044 89.4533 83.4844 89.2133 83.6444 89C83.8044 88.7867 84.0178 88.6133 84.2844 88.48C84.5778 88.32 84.8978 88.2 85.2444 88.12C85.6178 88.04 85.9911 88 86.3644 88C87.0044 88 87.5778 88.1333 88.0844 88.4C88.6178 88.64 88.9244 89.0267 89.0044 89.56C89.3778 92.4933 89.6311 95.3733 89.7644 98.2C89.9244 101 90.0044 103.853 90.0044 106.76C90.0044 109.827 89.9244 112.973 89.7644 116.2C89.7378 116.68 89.4178 117.04 88.8044 117.28C88.1911 117.493 87.4978 117.6 86.7244 117.6C86.2711 117.6 85.8178 117.56 85.3644 117.48C84.9111 117.427 84.4978 117.333 84.1244 117.2C83.7778 117.04 83.4978 116.867 83.2844 116.68C83.0711 116.467 82.9778 116.227 83.0044 115.96C83.2178 113.053 83.3644 110.227 83.4444 107.48C83.5244 104.733 83.5644 101.96 83.5644 99.16C83.5644 97.6133 83.5511 96.0667 83.5244 94.52C83.4978 92.9467 83.4578 91.3467 83.4044 89.72Z" fill="white"/>
<path d="M107.119 111.322C107.06 111.799 107.237 112.145 107.65 112.361C108.09 112.578 108.534 112.728 108.982 112.812C109.83 112.923 110.651 113.033 111.446 113.14C112.269 113.223 113.079 113.291 113.877 113.346C114.569 113.393 115.248 113.426 115.915 113.444C116.609 113.465 117.317 113.473 118.039 113.469C118.44 113.469 118.755 113.745 118.985 114.295C119.216 114.818 119.313 115.36 119.275 115.918C119.25 116.291 119.161 116.619 119.008 116.902C118.855 117.186 118.616 117.357 118.291 117.415C115.209 117.927 111.966 118.067 108.56 117.835C107.682 117.775 106.793 117.688 105.892 117.573C105.017 117.46 104.145 117.321 103.274 117.154C102.852 117.072 102.433 116.95 102.016 116.788C101.626 116.628 101.28 116.417 100.977 116.156C100.7 115.897 100.48 115.601 100.315 115.269C100.179 114.912 100.153 114.51 100.237 114.061C100.755 110.782 101.162 107.549 101.459 104.362C101.784 101.15 102.065 97.8143 102.3 94.3557L102.561 90.5245C102.608 89.8328 102.925 89.3064 103.511 88.9454C104.123 88.5861 104.75 88.4016 105.392 88.3919C106.168 88.3912 106.942 88.4038 107.715 88.4297C108.489 88.4556 109.288 88.4967 110.112 88.5528C111.496 88.647 112.903 88.7829 114.334 88.9605C115.768 89.1115 117.198 89.3024 118.625 89.5332C119.181 89.6245 119.576 89.9053 119.811 90.3757C120.046 90.8461 120.146 91.3473 120.11 91.8794C120.072 92.4381 119.89 92.947 119.565 93.4059C119.241 93.8383 118.801 94.0222 118.244 93.9575L116.847 93.8625C115.57 93.7755 114.331 93.7179 113.131 93.6896C111.93 93.6613 110.7 93.6712 109.44 93.7191C109.037 93.7451 108.72 93.8972 108.487 94.1754C108.256 94.427 108.139 94.7665 108.137 95.194C108.121 96.2086 108.081 97.1948 108.016 98.1526C107.979 99.0856 107.942 100.019 107.905 100.952L110.34 101.117C112.734 101.28 115.166 101.486 117.635 101.734C118.112 101.793 118.441 102.056 118.623 102.523C118.834 102.965 118.921 103.452 118.885 103.984C118.843 104.596 118.658 105.158 118.329 105.67C118 106.183 117.57 106.407 117.04 106.344C116.324 106.269 115.606 106.207 114.888 106.158C114.198 106.084 113.494 106.023 112.775 105.974C111.924 105.916 111.059 105.87 110.179 105.837C109.327 105.779 108.475 105.735 107.622 105.703C107.532 106.633 107.455 107.563 107.392 108.494C107.328 109.425 107.238 110.368 107.119 111.322Z" fill="white"/>
<path d="M92.2505 39.615C91.4416 39.4445 90.6972 39.6147 90.0173 40.1255C89.3373 40.6363 88.7206 41.3647 88.1669 42.3109C87.6393 43.2626 87.1626 44.3612 86.7366 45.6068C86.3422 46.8318 86.013 48.0706 85.7491 49.3231C85.5127 50.4451 85.4164 51.4195 85.4602 52.2463C85.5301 53.0786 85.6954 53.7811 85.9563 54.3539C86.2226 54.9006 86.5817 55.3305 87.0335 55.6437C87.5114 55.9624 88.0373 56.1823 88.6114 56.3032C89.1855 56.4242 89.7582 56.4222 90.3295 56.2974C90.9325 56.1519 91.4977 55.8622 92.0252 55.4283C92.5526 54.9944 93.032 54.4005 93.4634 53.6466C93.9003 52.8666 94.2425 51.8894 94.4899 50.7152C94.7868 49.3062 94.9731 47.9692 95.0489 46.7043C95.1247 45.4394 95.0761 44.3118 94.9033 43.3216C94.7359 42.3052 94.4332 41.4784 93.9952 40.8411C93.5627 40.1776 92.9811 39.7689 92.2505 39.615ZM93.5949 33.2351C95.2127 33.576 96.5832 34.3144 97.7064 35.4504C98.8558 36.5919 99.7462 37.9923 100.378 39.6515C101.009 41.3107 101.382 43.1607 101.497 45.2016C101.618 47.2164 101.455 49.2806 101.01 51.3942C100.147 55.4909 98.6286 58.4276 96.4556 60.2044C94.288 61.9551 91.3386 62.4373 87.6072 61.6511C83.954 60.8813 81.4753 59.3234 80.171 56.9774C78.8983 54.6108 78.6853 51.4183 79.5321 47.3999C80.0104 45.1297 80.7064 43.0553 81.6201 41.1767C82.5598 39.3035 83.6431 37.7195 84.8697 36.4246C86.0964 35.1297 87.4528 34.1892 88.939 33.603C90.4251 33.0168 91.9771 32.8942 93.5949 33.2351Z" fill="white"/>
<circle cx="93" cy="44" r="3" fill="white"/>
<path d="M117.251 43.615C116.442 43.4445 115.697 43.6147 115.017 44.1255C114.337 44.6363 113.721 45.3647 113.167 46.3109C112.639 47.2626 112.163 48.3612 111.737 49.6068C111.342 50.8318 111.013 52.0706 110.749 53.3231C110.513 54.4451 110.416 55.4195 110.46 56.2463C110.53 57.0786 110.695 57.7811 110.956 58.3539C111.223 58.9006 111.582 59.3305 112.033 59.6437C112.511 59.9624 113.037 60.1823 113.611 60.3032C114.185 60.4242 114.758 60.4222 115.33 60.2974C115.932 60.1519 116.498 59.8622 117.025 59.4283C117.553 58.9944 118.032 58.4005 118.463 57.6466C118.9 56.8666 119.242 55.8894 119.49 54.7152C119.787 53.3062 119.973 51.9692 120.049 50.7043C120.125 49.4394 120.076 48.3118 119.903 47.3216C119.736 46.3052 119.433 45.4784 118.995 44.8411C118.563 44.1776 117.981 43.7689 117.251 43.615ZM118.595 37.2351C120.213 37.576 121.583 38.3144 122.706 39.4504C123.856 40.5919 124.746 41.9923 125.378 43.6515C126.009 45.3107 126.382 47.1607 126.497 49.2016C126.618 51.2164 126.455 53.2806 126.01 55.3942C125.147 59.4909 123.629 62.4276 121.456 64.2044C119.288 65.9551 116.339 66.4373 112.607 65.6511C108.954 64.8813 106.475 63.3234 105.171 60.9774C103.898 58.6108 103.685 55.4183 104.532 51.3999C105.01 49.1297 105.706 47.0553 106.62 45.1767C107.56 43.3035 108.643 41.7195 109.87 40.4246C111.096 39.1297 112.453 38.1892 113.939 37.603C115.425 37.0168 116.977 36.8942 118.595 37.2351Z" fill="white"/>
<circle cx="118" cy="48" r="3" fill="white"/>
<path d="M114.418 75.6942C113.395 76.3234 112.31 76.9272 111.163 77.5054C110.045 78.122 108.778 78.6321 107.362 79.0359C105.947 79.4396 104.373 79.7007 102.639 79.8191C100.932 79.9758 98.9956 79.9111 96.8287 79.6249C93.5466 79.1913 90.612 78.213 88.0249 76.6899C85.4652 75.2052 83.2667 73.1949 81.4295 70.659C81.1012 70.1987 80.9959 69.6463 81.1135 69.0017C81.2629 68.3612 81.4991 67.9234 81.8219 67.6881C82.1857 67.3887 82.627 67.2385 83.1459 67.2376C83.6602 67.2708 84.1408 67.5601 84.5875 68.1055C86.3836 70.4622 88.3109 72.1935 90.3695 73.2993C92.4281 74.4051 94.6523 75.1158 97.0422 75.4315C98.7311 75.6546 100.21 75.7458 101.48 75.7051C102.75 75.6644 103.956 75.4936 105.098 75.1928C106.236 74.9261 107.394 74.5058 108.572 73.9317C109.745 73.3919 111.096 72.7365 112.625 71.9655C113.252 71.6315 113.814 71.5494 114.311 71.7192C114.834 71.9273 115.197 72.2531 115.397 72.6966C115.626 73.1784 115.672 73.6883 115.536 74.2263C115.427 74.8026 115.055 75.2919 114.418 75.6942Z" fill="white"/>
</svg>
