<svg width="60" height="60" viewBox="0 0 60 60" fill="none" xmlns="http://www.w3.org/2000/svg">
<circle cx="30" cy="30" r="30" fill="#13433D"/>
<circle cx="30.0012" cy="30.0003" r="28.0217" stroke="#D5F1ED" stroke-width="2"/>
<path d="M13.7012 26.1693C13.6536 25.8206 13.4864 25.5419 13.1996 25.3335C12.9234 25.1235 12.5806 24.9388 12.1713 24.7794C11.7725 24.6185 11.3421 24.4619 10.8799 24.3096C10.4178 24.1573 9.97771 23.9698 9.55975 23.7469C9.15235 23.5226 8.7966 23.2427 8.49249 22.9074C8.1975 22.5601 8.01324 22.117 7.93971 21.578C7.78833 20.4682 8.0292 19.5903 8.66234 18.9441C9.29403 18.2874 10.2968 17.8653 11.6708 17.6778C12.1147 17.6173 12.5893 17.5848 13.0947 17.5805C13.5986 17.5656 14.1386 17.578 14.7146 17.6179C14.8986 17.6251 15.0413 17.724 15.1427 17.9147C15.2546 18.104 15.3272 18.3202 15.3603 18.5633C15.382 18.7218 15.3877 18.8825 15.3776 19.0454C15.3661 19.1976 15.3373 19.3415 15.2912 19.477C15.2542 19.6005 15.1978 19.6997 15.1219 19.7746C15.0445 19.839 14.9501 19.8573 14.8387 19.8294C14.34 19.7252 13.8584 19.6671 13.3939 19.6551C12.9293 19.6431 12.4962 19.6645 12.0946 19.7193C11.5556 19.7928 11.1247 19.9485 10.8019 20.1863C10.4896 20.4227 10.3645 20.7681 10.4265 21.2226C10.4597 21.4656 10.6175 21.6756 10.9 21.8523C11.1825 22.0291 11.5291 22.2025 11.9398 22.3726C12.3611 22.5412 12.8111 22.722 13.2895 22.9151C13.7666 23.0976 14.217 23.3215 14.6407 23.5866C15.0736 23.8398 15.4442 24.1499 15.7527 24.5169C16.0611 24.8839 16.2506 25.3263 16.3213 25.8442C16.4006 26.4255 16.3567 26.9321 16.1895 27.364C16.0315 27.7838 15.7637 28.1487 15.3861 28.4586C15.0176 28.7565 14.5454 29.0039 13.9694 29.2009C13.392 29.3873 12.7228 29.5324 11.9618 29.6363C11.5602 29.691 11.1406 29.7321 10.7029 29.7595C10.2773 29.7961 9.82309 29.8204 9.34029 29.8324C9.24373 29.8348 9.15341 29.8041 9.06934 29.7402C8.99583 29.6748 8.92473 29.5877 8.85603 29.4786C8.79789 29.3681 8.74888 29.2456 8.709 29.1111C8.66768 28.966 8.63693 28.8195 8.61674 28.6715C8.59367 28.5024 8.58718 28.3365 8.59726 28.1736C8.60734 28.0108 8.63087 27.8676 8.66785 27.7441C8.7034 27.6101 8.75912 27.5056 8.83502 27.4307C8.91092 27.3557 9.00243 27.3163 9.10956 27.3125C9.6601 27.3235 10.2159 27.3338 10.777 27.3434C11.3367 27.3424 11.8385 27.3116 12.2824 27.251C12.7368 27.189 13.0988 27.0804 13.3683 26.9253C13.6364 26.7595 13.7473 26.5075 13.7012 26.1693Z" fill="white"/>
<path d="M25.0799 23.5099C25.0469 23.7064 24.9293 23.8635 24.7271 23.9812C24.5249 24.0989 24.3018 24.1705 24.0578 24.1961C23.7926 24.2238 23.5436 24.2017 23.3108 24.1295C23.0769 24.0467 22.9229 23.9073 22.8488 23.7113C22.5004 22.7397 22.1411 21.8174 21.7708 20.9445C21.3995 20.0611 20.9946 19.165 20.5563 18.2564C20.6002 18.5735 20.6378 18.8806 20.6689 19.1777C20.7095 19.463 20.7447 19.7489 20.7747 20.0353C20.8558 20.8097 20.914 21.5705 20.9493 22.3175C20.9952 23.0635 21.0378 23.8795 21.0769 24.7656C21.0746 24.9481 20.9718 25.093 20.7685 25.2C20.5652 25.3071 20.3256 25.3751 20.0498 25.404C19.8695 25.4229 19.6927 25.4253 19.5197 25.4112C19.3466 25.3972 19.1883 25.3708 19.0449 25.3322C18.9003 25.283 18.7811 25.2204 18.6874 25.1444C18.6042 25.0673 18.5624 24.9752 18.5619 24.868C18.5203 23.4459 18.4635 22.0844 18.3917 20.7835C18.3304 19.4815 18.2287 18.1515 18.0866 16.7936C18.0488 16.4329 18.0058 16.0728 17.9574 15.7132C17.9185 15.3419 17.8743 14.9711 17.8249 14.6009C17.8093 14.4524 17.8278 14.3218 17.8803 14.209C17.9435 14.0952 18.0301 14.0003 18.1401 13.9244C18.2597 13.8368 18.3973 13.7688 18.5531 13.7203C18.7089 13.6718 18.8664 13.6392 19.0255 13.6226C19.3119 13.5926 19.588 13.6173 19.8537 13.6968C20.1289 13.7645 20.3184 13.8841 20.4222 14.0555C21.0586 15.115 21.6362 16.1753 22.1548 17.2364C22.6723 18.2869 23.1591 19.3513 23.6152 20.4297C23.8348 19.2484 24.073 18.092 24.3299 16.9604C24.5857 15.8182 24.8967 14.6917 25.2631 13.5809C25.3291 13.3916 25.4791 13.2365 25.7131 13.1155C25.9566 12.9828 26.2162 12.9019 26.4921 12.8731C26.6512 12.8564 26.8067 12.8562 26.9585 12.8725C27.121 12.8877 27.2698 12.9257 27.4048 12.9866C27.5388 13.037 27.6485 13.1113 27.7338 13.2096C27.8298 13.3068 27.8909 13.4291 27.917 13.5765C28.1169 14.5637 28.2869 15.5219 28.4271 16.451C28.5662 17.3695 28.6846 18.2956 28.7823 19.2291C28.8667 20.0354 28.9358 20.8486 28.9895 21.6688C29.0432 22.489 29.0885 23.3316 29.1254 24.1964C29.1337 24.3779 29.0309 24.5227 28.817 24.6309C28.6031 24.7391 28.3582 24.8076 28.0824 24.8365C27.902 24.8554 27.72 24.8584 27.5363 24.8454C27.3633 24.8314 27.1991 24.8003 27.0439 24.7522C26.9005 24.7136 26.7819 24.6563 26.6881 24.5803C26.5944 24.5043 26.5472 24.4127 26.5467 24.3055C26.532 23.6528 26.5159 23.0378 26.4984 22.4605C26.4797 21.8726 26.451 21.2911 26.4123 20.716C26.3841 20.1398 26.3448 19.5594 26.2943 18.9748C26.2544 18.3891 26.2054 17.7669 26.1471 17.108C25.9209 18.2256 25.7221 19.2975 25.5507 20.3236C25.3782 21.3391 25.2212 22.4012 25.0799 23.5099Z" fill="white"/>
<path d="M18.3613 33.3266C18.5532 33.3141 18.6981 33.398 18.7958 33.5784C18.8936 33.7588 18.9435 33.961 18.9457 34.185C18.9478 34.3983 18.8965 34.6068 18.7918 34.8105C18.6977 35.0034 18.544 35.1116 18.3309 35.135C17.9581 35.1919 17.5853 35.2436 17.2124 35.2899C16.8501 35.336 16.4825 35.377 16.1095 35.4126C16.1695 36.0947 16.2134 36.7663 16.2411 37.4274C16.2794 38.0777 16.3018 38.7282 16.3081 39.3788C16.3159 40.1788 16.3023 40.9736 16.2673 41.7634C16.243 42.553 16.1922 43.3642 16.1149 44.197C16.0954 44.3785 15.9687 44.5131 15.7348 44.6007C15.5116 44.6775 15.2506 44.7174 14.952 44.7203C14.76 44.7222 14.5678 44.708 14.3755 44.6779C14.1832 44.6478 14.0068 44.6068 13.8463 44.555C13.6964 44.4925 13.573 44.419 13.4762 44.3346C13.3793 44.2502 13.3357 44.1546 13.3454 44.0479C13.4596 42.628 13.5526 41.2297 13.6246 39.853C13.7072 38.4761 13.7573 37.0515 13.775 35.5793C13.6044 35.581 13.4338 35.5879 13.2632 35.6003C13.1032 35.6018 12.9379 35.6034 12.7672 35.6051C12.5219 35.6075 12.2819 35.6098 12.0473 35.6121C11.8232 35.6036 11.5884 35.5952 11.343 35.5869C11.1402 35.5782 10.9897 35.4517 10.8913 35.2073C10.8036 34.9628 10.7583 34.6913 10.7553 34.3926C10.7524 34.094 10.7925 33.8269 10.8756 33.5914C10.9692 33.3451 11.1067 33.2265 11.2881 33.2354C12.2166 33.2797 13.1396 33.3134 14.0572 33.3364C14.9748 33.3595 15.8976 33.3666 16.8256 33.3575C17.0816 33.355 17.3375 33.3525 17.5935 33.3501C17.8495 33.3476 18.1055 33.3397 18.3613 33.3266Z" fill="white"/>
<path d="M21.9534 30.672C21.9427 30.4587 22.0601 30.2933 22.3054 30.176C22.5507 30.0587 22.8121 30 23.0894 30C23.3347 30 23.5641 30.0533 23.7774 30.16C23.9907 30.256 24.1081 30.416 24.1294 30.64C24.2041 31.3867 24.2627 32.1173 24.3054 32.832C24.3481 33.5467 24.3801 34.2667 24.4014 34.992C25.4147 34.992 26.4654 35.008 27.5534 35.04C27.5641 34.6347 27.5694 34.2293 27.5694 33.824C27.5801 33.408 27.5854 32.992 27.5854 32.576C27.5854 32.2773 27.5801 31.984 27.5694 31.696C27.5694 31.3973 27.5694 31.0933 27.5694 30.784C27.5694 30.6773 27.6014 30.5813 27.6654 30.496C27.7294 30.4107 27.8147 30.3413 27.9214 30.288C28.0387 30.2347 28.1667 30.192 28.3054 30.16C28.4441 30.128 28.5881 30.112 28.7374 30.112C28.9934 30.112 29.2281 30.1653 29.4414 30.272C29.6547 30.368 29.7721 30.5227 29.7934 30.736C29.9001 31.7173 29.9747 32.6827 30.0174 33.632C30.0601 34.5707 30.0814 35.5093 30.0814 36.448C30.0814 37.3013 30.0654 38.1493 30.0334 38.992C30.0014 39.8347 29.9534 40.6987 29.8894 41.584C29.8787 41.7653 29.7561 41.8987 29.5214 41.984C29.2974 42.0693 29.0361 42.112 28.7374 42.112C28.5454 42.112 28.3534 42.096 28.1614 42.064C27.9801 42.032 27.8147 41.984 27.6654 41.92C27.5267 41.8667 27.4094 41.7973 27.3134 41.712C27.2281 41.6267 27.1907 41.5307 27.2014 41.424C27.3294 39.952 27.4254 38.5333 27.4894 37.168C26.9774 37.1467 26.4654 37.1307 25.9534 37.12C25.4414 37.1093 24.9294 37.0987 24.4174 37.088C24.4067 37.7813 24.3854 38.4747 24.3534 39.168C24.3214 39.8613 24.2787 40.576 24.2254 41.312C24.2041 41.4933 24.0814 41.6267 23.8574 41.712C23.6334 41.7973 23.3774 41.84 23.0894 41.84C22.9081 41.84 22.7267 41.824 22.5454 41.792C22.3641 41.76 22.1987 41.7173 22.0494 41.664C21.9107 41.6 21.7987 41.5253 21.7134 41.44C21.6281 41.3547 21.5907 41.2587 21.6014 41.152C21.7294 39.6693 21.8201 38.2347 21.8734 36.848C21.9374 35.4613 21.9694 34.0427 21.9694 32.592C21.9694 32.272 21.9694 31.9573 21.9694 31.648C21.9694 31.328 21.9641 31.0027 21.9534 30.672Z" fill="white"/>
<path d="M33.362 35.8881C33.362 35.7814 33.394 35.6854 33.458 35.6001C33.522 35.5147 33.6073 35.4454 33.714 35.3921C33.8313 35.3281 33.9593 35.2801 34.098 35.2481C34.2473 35.2161 34.3966 35.2001 34.546 35.2001C34.802 35.2001 35.0313 35.2534 35.234 35.3601C35.4473 35.4561 35.57 35.6107 35.602 35.8241C35.7513 36.9974 35.8526 38.1494 35.906 39.2801C35.97 40.4001 36.002 41.5414 36.002 42.7041C36.002 43.9307 35.97 45.1894 35.906 46.4801C35.8953 46.6721 35.7673 46.8161 35.522 46.9121C35.2766 46.9974 34.9993 47.0401 34.69 47.0401C34.5086 47.0401 34.3273 47.0241 34.146 46.9921C33.9646 46.9707 33.7993 46.9334 33.65 46.8801C33.5113 46.8161 33.3993 46.7467 33.314 46.6721C33.2286 46.5867 33.1913 46.4907 33.202 46.3841C33.2873 45.2214 33.346 44.0907 33.378 42.9921C33.41 41.8934 33.426 40.7841 33.426 39.6641C33.426 39.0454 33.4206 38.4267 33.41 37.8081C33.3993 37.1787 33.3833 36.5387 33.362 35.8881Z" fill="white"/>
<path d="M42.8481 44.5289C42.8244 44.7197 42.8951 44.8582 43.0603 44.9443C43.2362 45.0311 43.4138 45.0913 43.5933 45.1249C43.9324 45.1694 44.2609 45.2131 44.5787 45.2561C44.9079 45.2892 45.2321 45.3166 45.5513 45.3384C45.828 45.3572 46.0998 45.3704 46.3665 45.3778C46.644 45.386 46.9271 45.3892 47.2158 45.3875C47.3762 45.3877 47.5023 45.4979 47.5943 45.718C47.6869 45.9274 47.7257 46.1439 47.7104 46.3674C47.7003 46.5164 47.6646 46.6476 47.6035 46.761C47.5423 46.8745 47.4468 46.9428 47.3169 46.966C46.0841 47.1708 44.7867 47.2268 43.4245 47.1341C43.0733 47.1102 42.7175 47.0753 42.3571 47.0293C42.0074 46.9842 41.6584 46.9283 41.3101 46.8619C41.1413 46.829 40.9735 46.7801 40.8069 46.7153C40.6509 46.6513 40.5123 46.567 40.3911 46.4625C40.2805 46.3588 40.1924 46.2405 40.1266 46.1077C40.0721 45.965 40.0617 45.804 40.0953 45.6245C40.3022 44.3129 40.4651 43.0196 40.5839 41.7447C40.7141 40.4599 40.8263 39.1258 40.9205 37.7423L41.0248 36.2099C41.0437 35.9332 41.1702 35.7226 41.4046 35.5782C41.6496 35.4345 41.9005 35.3607 42.1574 35.3568C42.4674 35.3566 42.7771 35.3616 43.0865 35.372C43.3958 35.3823 43.7155 35.3987 44.0454 35.4212C44.5987 35.4589 45.1617 35.5132 45.7342 35.5843C46.3074 35.6447 46.8795 35.721 47.4506 35.8134C47.6726 35.8499 47.8307 35.9622 47.9248 36.1503C48.0189 36.3385 48.0587 36.539 48.0442 36.7518C48.029 36.9753 47.9564 37.1789 47.8263 37.3624C47.6969 37.5354 47.5208 37.6089 47.298 37.5831L46.7393 37.5451C46.2285 37.5103 45.7329 37.4872 45.2526 37.4759C44.7723 37.4646 44.2802 37.4685 43.7764 37.4877C43.6153 37.4981 43.4882 37.559 43.3951 37.6702C43.3027 37.7709 43.2561 37.9067 43.2551 38.0777C43.2489 38.4835 43.2327 38.878 43.2066 39.2611C43.1919 39.6343 43.1772 40.0075 43.1625 40.3807L44.1363 40.447C45.094 40.5122 46.0667 40.5944 47.0542 40.6937C47.2451 40.7174 47.3769 40.8226 47.4497 41.0093C47.5339 41.1861 47.5688 41.3809 47.5543 41.5937C47.5376 41.8385 47.4635 42.0633 47.332 42.2682C47.2004 42.4731 47.0286 42.5629 46.8164 42.5378C46.5298 42.5076 46.2429 42.4827 45.9555 42.4632C45.6796 42.4337 45.3979 42.4092 45.1106 42.3896C44.77 42.3664 44.4238 42.3482 44.0719 42.335C43.7313 42.3118 43.3904 42.2939 43.0492 42.2814C43.0132 42.6531 42.9825 43.0252 42.9571 43.3977C42.9318 43.7702 42.8954 44.1472 42.8481 44.5289Z" fill="white"/>
<path d="M36.9004 15.846C36.5768 15.7778 36.2791 15.8459 36.0071 16.0502C35.7351 16.2545 35.4884 16.5459 35.267 16.9244C35.0559 17.3051 34.8652 17.7445 34.6948 18.2428C34.5371 18.7328 34.4054 19.2283 34.2998 19.7293C34.2053 20.1781 34.1667 20.5678 34.1843 20.8985C34.2122 21.2315 34.2784 21.5125 34.3827 21.7416C34.4892 21.9602 34.6329 22.1322 34.8136 22.2575C35.0047 22.385 35.2151 22.4729 35.4448 22.5213C35.6744 22.5697 35.9035 22.5689 36.132 22.519C36.3732 22.4608 36.5993 22.3449 36.8103 22.1713C37.0212 21.9978 37.213 21.7602 37.3856 21.4587C37.5603 21.1467 37.6972 20.7558 37.7962 20.2861C37.9149 19.7225 37.9895 19.1877 38.0198 18.6817C38.0501 18.1758 38.0306 17.7248 37.9615 17.3287C37.8946 16.9221 37.7735 16.5914 37.5983 16.3364C37.4253 16.0711 37.1927 15.9076 36.9004 15.846ZM37.4381 13.2941C38.0853 13.4304 38.6335 13.7258 39.0828 14.1802C39.5425 14.6368 39.8987 15.1969 40.1512 15.8606C40.4038 16.5243 40.5531 17.2643 40.5991 18.0807C40.6473 18.8866 40.5823 19.7123 40.4042 20.5577C40.0589 22.1964 39.4516 23.3711 38.5824 24.0818C37.7154 24.7821 36.5356 24.975 35.0431 24.6605C33.5818 24.3525 32.5903 23.7294 32.0686 22.791C31.5595 21.8443 31.4743 20.5673 31.813 18.96C32.0044 18.0519 32.2828 17.2222 32.6482 16.4707C33.0241 15.7214 33.4574 15.0878 33.9481 14.5699C34.4388 14.0519 34.9813 13.6757 35.5758 13.4412C36.1702 13.2068 36.791 13.1577 37.4381 13.2941Z" fill="white"/>
<circle cx="37.201" cy="17.5999" r="1.2" fill="white"/>
<path d="M46.9024 17.4459C46.5788 17.3777 46.281 17.4458 46.0091 17.6501C45.7371 17.8544 45.4904 18.1458 45.2689 18.5242C45.0579 18.9049 44.8672 19.3444 44.6968 19.8426C44.539 20.3326 44.4074 20.8281 44.3018 21.3291C44.2072 21.7779 44.1687 22.1677 44.1862 22.4984C44.2142 22.8313 44.2803 23.1123 44.3847 23.3414C44.4912 23.5601 44.6348 23.7321 44.8155 23.8574C45.0067 23.9848 45.2171 24.0728 45.4467 24.1212C45.6763 24.1696 45.9054 24.1688 46.134 24.1188C46.3751 24.0606 46.6012 23.9448 46.8122 23.7712C47.0232 23.5976 47.215 23.3601 47.3875 23.0585C47.5623 22.7465 47.6991 22.3557 47.7981 21.886C47.9169 21.3223 47.9914 20.7876 48.0217 20.2816C48.052 19.7756 48.0326 19.3246 47.9635 18.9285C47.8965 18.522 47.7754 18.1912 47.6002 17.9363C47.4272 17.6709 47.1946 17.5075 46.9024 17.4459ZM47.4401 14.8939C48.0872 15.0303 48.6354 15.3257 49.0847 15.7801C49.5445 16.2367 49.9006 16.7968 50.1532 17.4605C50.4058 18.1241 50.5551 18.8642 50.6011 19.6805C50.6493 20.4864 50.5843 21.3121 50.4062 22.1576C50.0609 23.7962 49.4536 24.9709 48.5844 25.6817C47.7174 26.3819 46.5376 26.5748 45.045 26.2603C43.5838 25.9524 42.5923 25.3292 42.0706 24.3908C41.5615 23.4442 41.4763 22.1672 41.815 20.5598C42.0063 19.6518 42.2847 18.822 42.6502 18.0705C43.0261 17.3213 43.4594 16.6877 43.95 16.1697C44.4407 15.6518 44.9833 15.2755 45.5777 15.0411C46.1722 14.8066 46.793 14.7576 47.4401 14.8939Z" fill="white"/>
<circle cx="47.2029" cy="19.1998" r="1.2" fill="white"/>
<path d="M45.7663 30.2776C45.3569 30.5293 44.923 30.7708 44.4645 31.0021C44.0169 31.2487 43.5101 31.4528 42.9441 31.6142C42.3781 31.7757 41.7483 31.8802 41.0547 31.9275C40.3721 31.9902 39.5974 31.9643 38.7306 31.8498C37.4178 31.6764 36.2439 31.2851 35.2091 30.6759C34.1852 30.082 33.3058 29.2779 32.5709 28.2635C32.4396 28.0794 32.3975 27.8584 32.4445 27.6006C32.5043 27.3444 32.5987 27.1693 32.7279 27.0751C32.8734 26.9554 33.0499 26.8953 33.2575 26.8949C33.4632 26.9082 33.6554 27.0239 33.8341 27.2421C34.5525 28.1848 35.3235 28.8773 36.1469 29.3196C36.9704 29.7619 37.8601 30.0462 38.816 30.1725C39.4916 30.2618 40.0833 30.2982 40.5912 30.2819C41.0992 30.2656 41.5815 30.1973 42.0384 30.077C42.4934 29.9703 42.9565 29.8022 43.4278 29.5726C43.8973 29.3567 44.4377 29.0945 45.049 28.7861C45.3001 28.6525 45.5249 28.6196 45.7234 28.6876C45.9329 28.7708 46.0778 28.9012 46.1581 29.0785C46.2494 29.2713 46.2678 29.4752 46.2135 29.6904C46.17 29.9209 46.021 30.1167 45.7663 30.2776Z" fill="white"/>
</svg>
