<svg width="753" height="264" viewBox="0 0 753 264" fill="none" xmlns="http://www.w3.org/2000/svg">
<path d="M15.86 173.44V191.74H14.48V184.06H10.06C9.48 186.08 8 187.2 5.86 187.2C3.04 187.2 1.36 185.24 1.36 181.9V180.02C1.36 176.7 3.04 174.74 5.86 174.74C7.98 174.74 9.46 175.88 10.06 177.86H14.48V173.44H15.86ZM8.98 181.66V180.28C8.98 177.24 7.74 176.06 5.86 176.06C3.98 176.06 2.74 177.24 2.74 180.28V181.66C2.74 184.7 3.98 185.9 5.86 185.9C7.74 185.9 8.98 184.7 8.98 181.66ZM10.36 180.04V181.9C10.36 182.2 10.34 182.5 10.32 182.78H14.48V179.14H10.32C10.34 179.44 10.36 179.74 10.36 180.04ZM21.5231 181.42V185.92H24.1831C26.2031 185.92 28.3831 185.82 30.2431 185.52L30.4031 186.74C28.2831 187.08 26.0031 187.18 23.8231 187.18H20.1231V180.18H26.3631V176.16H20.1231V174.92H27.7631V181.42H21.5231ZM29.1831 179.9H32.7231V173.44H34.1231V191.72H32.7231V181.18H29.1831V179.9ZM51.4063 173.96V180.92H39.6063V173.96H40.9863V176.24H50.0263V173.96H51.4063ZM37.1063 183.04H53.9063V184.24H46.4062V187.92H45.0063V184.24H37.1063V183.04ZM41.0063 186.3V190.26H51.8063V191.5H39.5863V186.3H41.0063ZM40.9863 177.42V179.7H50.0263V177.42H40.9863ZM70.7094 173.44V191.72H69.2894V173.44H70.7094ZM67.8894 186.02L68.0094 187.24C64.7094 187.58 61.8894 187.7 55.7694 187.7V186.46C61.5894 186.46 64.7894 186.36 67.8894 186.02ZM61.4894 183.34C58.8894 183.34 56.7294 181.64 56.7294 179.48V178.52C56.7294 176.34 58.8894 174.66 61.4894 174.66C64.0894 174.66 66.2494 176.36 66.2494 178.52V179.48C66.2494 181.64 64.0894 183.34 61.4894 183.34ZM61.4894 175.9C59.7294 175.9 58.0894 177.1 58.0894 178.6V179.4C58.0894 180.9 59.7294 182.1 61.4894 182.1C63.2494 182.1 64.8894 180.9 64.8894 179.4V178.6C64.8894 177.1 63.2494 175.9 61.4894 175.9ZM93.5925 173.44V191.72H92.1725V173.44H93.5925ZM82.0325 182.92C83.2925 181.48 83.4925 180.7 83.4925 179.12V174.76H84.9525V179.02C84.9525 180.56 85.0725 181.22 86.1525 182.46C86.9525 183.38 88.1325 184.58 89.6325 185.94L88.7125 186.9C87.4525 185.7 86.3325 184.6 85.5325 183.74C84.9325 183.1 84.3525 182.44 84.2525 182.18H84.2325C84.1725 182.44 83.4125 183.38 82.8125 184.04C82.1125 184.8 80.7925 186.14 79.6125 187.18L78.6725 186.2C79.9925 185.04 81.0925 183.98 82.0325 182.92ZM102.376 179.74H102.356C102.276 180.04 101.636 180.7 100.796 181.44C100.096 182.06 98.7356 183.14 97.8156 183.8L96.9556 182.8C98.1356 181.96 99.4156 180.98 100.396 180.02C101.376 179.06 101.596 178.36 101.596 177.28V175.76H97.4756V174.54H106.956V175.76H103.016V177.22C103.016 178.4 103.156 178.94 104.456 180.06C105.096 180.6 106.216 181.44 107.356 182.2L106.536 183.18C105.716 182.62 104.776 181.92 104.176 181.44C103.236 180.68 102.456 180 102.376 179.74ZM99.6156 186.34V185.1H111.076V191.86H109.676V186.34H99.6156ZM111.076 173.44V178H113.876V179.24H111.076V184.02H109.676V173.44H111.076ZM129.499 173.44V180.4H132.399V181.66H129.499V191.72H128.079V173.44H129.499ZM126.679 185.8L126.799 187.02C123.499 187.36 121.099 187.48 114.979 187.48V186.24C116.439 186.24 117.699 186.24 118.839 186.22V180.4H120.259V186.2C122.839 186.14 124.699 186.02 126.679 185.8ZM115.899 175.2H125.019V177.42C125.019 179.34 124.859 182.12 124.539 183.42L123.119 183.24C123.479 181.62 123.599 179.4 123.599 177.7V176.46H115.899V175.2ZM141.522 191.7V185.52H152.502V191.7H141.522ZM143.582 177.64C146.362 177.64 147.762 179.12 147.762 180.58V181.22C147.762 182.68 146.362 184.16 143.582 184.16C140.802 184.16 139.402 182.68 139.402 181.22V180.58C139.402 179.12 140.802 177.64 143.582 177.64ZM142.882 186.78V190.44H151.142V186.78H142.882ZM143.582 182.98C145.482 182.98 146.422 182.02 146.422 181.14V180.66C146.422 179.78 145.482 178.82 143.582 178.82C141.682 178.82 140.742 179.76 140.742 180.66V181.14C140.742 182.02 141.682 182.98 143.582 182.98ZM152.502 173.44V178.36H155.302V179.6H152.502V184.44H151.102V173.44H152.502ZM144.282 173.18V175.5H148.862V176.72H138.342V175.5H142.882V173.18H144.282ZM161.225 188.04L160.185 187.2C163.425 183.2 163.725 182.32 163.725 179.74V176.52H161.645V175.26H165.085V180.34H167.525V173.82H168.885V190.82H167.525V181.58H164.985C164.745 183.46 163.925 184.74 161.225 188.04ZM172.285 173.44V191.72H170.905V173.44H172.285ZM156.985 186.5L155.985 185.64C159.325 181.96 159.505 181.04 159.505 178.46V176.52H156.825V175.26H160.865V178.52C160.865 181.62 160.485 182.5 156.985 186.5ZM179.928 187.52C177.168 187.52 175.608 185.6 175.608 183.74V182.66C175.608 180.8 177.168 178.86 179.928 178.86C182.688 178.86 184.248 180.8 184.248 182.66V183.74C184.248 185.6 182.688 187.52 179.928 187.52ZM179.928 180.12C178.128 180.12 176.948 181.28 176.948 182.78V183.62C176.948 185.12 178.128 186.28 179.928 186.28C181.728 186.28 182.908 185.12 182.908 183.62V182.78C182.908 181.28 181.728 180.12 179.928 180.12ZM188.768 173.44V180.92H191.808V182.18H188.768V191.72H187.348V173.44H188.768ZM174.608 176.32H179.228V173.54H180.648V176.32H185.208V177.56H174.608V176.32ZM192.731 187.92H199.111V180.9H200.551V187.92H209.531V189.14H192.731V187.92ZM206.311 185.58L204.831 185.4C205.291 182.94 205.551 180.74 205.551 178.06V176.4H194.851V175.16H207.011V177.32C207.011 180.68 206.791 183 206.311 185.58ZM11.62 204.12V205.36H7.48V208.28C7.48 209.8 7.6 210.44 8.66 211.66C9.44 212.56 10.62 213.74 12.1 215.06L11.18 216C9.8 214.72 8.84 213.74 8.04 212.88C7.46 212.26 6.9 211.64 6.8 211.38H6.78C6.68 211.74 5.9 212.64 5.32 213.26C4.78 213.82 3.44 215.24 2.24 216.28L1.3 215.34C2.56 214.22 3.7 213.12 4.62 212.08C5.88 210.66 6.06 209.9 6.06 208.38V205.36H1.86V204.12H11.62ZM16 202.44V220.72H14.58V202.44H16ZM25.7031 202.52V205.22H29.9431V206.46H25.7031V208.58C25.7031 210.1 25.8231 210.74 26.8831 211.96C27.6631 212.86 28.8431 214.04 30.3231 215.36L29.4031 216.3C28.0231 215.02 27.0631 214.04 26.2631 213.18C25.6831 212.56 25.1231 211.94 25.0231 211.68H25.0031C24.9031 212.04 24.1231 212.94 23.5431 213.56C23.0031 214.12 21.6631 215.54 20.4631 216.58L19.5231 215.64C20.7831 214.52 21.9231 213.42 22.8431 212.38C24.1031 210.96 24.2831 210.2 24.2831 208.68V206.46H19.9231V205.22H24.2831V202.52H25.7031ZM34.2031 202.44V220.72H32.7831V202.44H34.2031ZM48.0263 204.12V205.36H43.8863V208.28C43.8863 209.8 44.0063 210.44 45.0663 211.66C45.8463 212.56 47.0263 213.74 48.5063 215.06L47.5863 216C46.2063 214.72 45.2463 213.74 44.4463 212.88C43.8663 212.26 43.3063 211.64 43.2063 211.38H43.1863C43.0863 211.74 42.3063 212.64 41.7263 213.26C41.1863 213.82 39.8463 215.24 38.6463 216.28L37.7063 215.34C38.9663 214.22 40.1063 213.12 41.0263 212.08C42.2862 210.66 42.4663 209.9 42.4663 208.38V205.36H38.2663V204.12H48.0263ZM52.4063 202.44V220.72H50.9863V202.44H52.4063ZM65.3094 211.44C62.5694 211.44 60.8694 209.5 60.8694 207.74V206.74C60.8694 204.96 62.5694 203.04 65.3094 203.04C68.0494 203.04 69.7494 204.98 69.7494 206.74V207.74C69.7494 209.5 68.0494 211.44 65.3094 211.44ZM65.3094 204.3C63.4694 204.3 62.2294 205.56 62.2294 206.88V207.6C62.2294 208.92 63.4694 210.18 65.3094 210.18C67.1494 210.18 68.3894 208.92 68.3894 207.6V206.88C68.3894 205.56 67.1494 204.3 65.3094 204.3ZM68.5694 218.76V218.24C68.5694 216.92 69.9694 215.88 71.9894 215.88C74.0094 215.88 75.4094 216.92 75.4094 218.24V218.76C75.4094 220.08 74.0094 221.12 71.9894 221.12C69.9694 221.12 68.5694 220.08 68.5694 218.76ZM74.6694 202.44V206.5H77.4694V207.74H74.6694V211.12H73.2694V202.44H74.6694ZM64.0694 213.34V219.32H64.9094C65.7894 219.32 66.9894 219.26 67.8294 219.12L67.9694 220.32C67.1094 220.46 65.8494 220.54 64.6494 220.54H62.6694V213.34H64.0694ZM72.6894 212.04V213.94H76.1094V215.06H67.8294V213.94H71.2894V212.04H72.6894ZM74.1494 218.68V218.32C74.1494 217.56 73.2494 216.98 71.9894 216.98C70.7294 216.98 69.8294 217.56 69.8294 218.32V218.68C69.8294 219.44 70.7294 220.02 71.9894 220.02C73.2494 220.02 74.1494 219.44 74.1494 218.68ZM78.5125 211.9H95.3125V213.12H78.5125V211.9ZM82.4125 215.04V219.26H93.1925V220.5H80.9925V215.04H82.4125ZM82.4925 203.14V208.12H92.9325V209.36H81.0725V203.14H82.4925ZM107.736 209.52C105.296 209.52 103.336 208.24 103.336 206.54V205.78C103.336 204.08 105.296 202.8 107.736 202.8C110.176 202.8 112.136 204.08 112.136 205.78V206.54C112.136 208.24 110.176 209.52 107.736 209.52ZM111.336 213.46H115.456V202.44H116.856V216.64H115.456V214.7H111.336V213.46ZM107.736 204C106.056 204 104.676 204.86 104.676 205.9V206.42C104.676 207.46 106.056 208.32 107.736 208.32C109.416 208.32 110.796 207.46 110.796 206.42V205.9C110.796 204.86 109.416 204 107.736 204ZM106.596 215.66V219.26H117.276V220.5H105.176V215.66H106.596ZM113.936 210.38L114.056 211.6C112.256 211.78 110.556 211.9 108.196 211.98V214.88H106.776V212C105.436 212.04 103.896 212.04 102.056 212.04V210.82C107.816 210.82 110.496 210.74 113.936 210.38ZM128.319 214.12C131.319 214.12 133.999 215.22 133.999 217.32V218C133.999 220.1 131.319 221.2 128.319 221.2C125.319 221.2 122.639 220.1 122.639 218V217.32C122.639 215.18 125.319 214.12 128.319 214.12ZM119.919 211.46H127.619V209.16H122.459V203.18H134.119V204.38H123.839V207.96H134.219V209.16H129.019V211.46H136.719V212.66H119.919V211.46ZM128.319 220C130.479 220 132.639 219.26 132.639 217.92V217.4C132.639 216.06 130.479 215.32 128.319 215.32C126.159 215.32 123.999 216.06 123.999 217.4V217.92C123.999 219.26 126.159 220 128.319 220ZM140.682 208.56V211.38C144.122 211.38 146.642 211.34 149.082 211.06L149.222 212.28C146.762 212.56 144.362 212.62 139.302 212.62V207.36H145.362V204.56H139.302V203.32H146.742V208.56H140.682ZM148.142 205H151.962V202.44H153.342V213.6H151.962V209.44H148.142V208.22H151.962V206.22H148.142V205ZM141.582 215.92V214.68H153.342V220.88H151.962V215.92H141.582ZM160.765 216.12C158.125 216.12 156.865 214.22 156.865 210.8V209.24C156.865 205.82 158.125 203.92 160.765 203.92C163.405 203.92 164.665 205.82 164.665 209.24V209.34H167.125V202.82H168.525V219.82H167.125V210.6H164.665V210.8C164.665 214.22 163.405 216.12 160.765 216.12ZM160.765 205.22C158.985 205.22 158.225 206.66 158.225 209.4V210.64C158.225 213.38 158.985 214.82 160.765 214.82C162.545 214.82 163.305 213.38 163.305 210.64V209.4C163.305 206.66 162.545 205.22 160.765 205.22ZM172.045 202.44V220.72H170.645V202.44H172.045ZM183.428 220.7V214.54H194.608V220.7H183.428ZM185.088 206.64C187.868 206.64 189.288 208.12 189.288 209.58V210.22C189.288 211.68 187.868 213.16 185.088 213.16C182.308 213.16 180.888 211.68 180.888 210.22V209.58C180.888 208.12 182.308 206.64 185.088 206.64ZM184.768 215.8V219.44H193.268V215.8H184.768ZM185.088 211.98C186.988 211.98 187.948 211.02 187.948 210.14V209.66C187.948 208.78 186.988 207.82 185.088 207.82C183.188 207.82 182.228 208.76 182.228 209.66V210.14C182.228 211.02 183.188 211.98 185.088 211.98ZM185.788 202.22V204.5H190.468V205.72H179.828V204.5H184.388V202.22H185.788ZM194.608 202.44V213.46H193.208V202.44H194.608ZM197.731 210.62H214.531V211.82H197.731V210.62ZM211.851 205.64V206.24C211.851 208.12 209.351 209.26 206.131 209.26C202.911 209.26 200.411 208.12 200.411 206.24V205.64C200.411 203.74 202.911 202.62 206.131 202.62C209.351 202.62 211.851 203.76 211.851 205.64ZM201.791 205.7V206.18C201.791 207.26 203.731 208.08 206.131 208.08C208.531 208.08 210.471 207.26 210.471 206.18V205.7C210.471 204.62 208.531 203.8 206.131 203.8C203.731 203.8 201.791 204.62 201.791 205.7ZM200.151 213.42H212.031V217.68H201.631V219.62H212.571V220.8H200.251V216.52H210.651V214.6H200.151V213.42ZM233.874 203.84H235.254V212.96H230.034V216.92H237.734V218.14H220.934V216.92H228.634V212.96H223.414V203.84H224.794V207.12H233.874V203.84ZM224.794 211.78H233.874V208.34H224.794V211.78ZM250.818 202.82V209.22H253.418V202.44H254.818V220.72H253.418V210.48H250.818V219.82H249.418V202.82H250.818ZM240.018 204.04H247.038V205.3H241.438V209.12H246.538V210.36H241.438V214.64H242.758C244.478 214.64 245.958 214.6 247.978 214.3L248.138 215.54C246.058 215.86 244.218 215.9 242.478 215.9H240.018V204.04ZM258.381 204.12H266.841V206.84H271.181V202.44H272.561V220.72H271.181V212.92H266.841V215.86H258.381V204.12ZM265.441 214.58V205.4H259.781V214.58H265.441ZM266.841 208.12V211.64H271.181V208.12H266.841ZM0.7 240.56H17.5V241.76H10V245.74H8.6V241.76H0.7V240.56ZM4.68 232.1V236.98H15.12V238.2H3.26V232.1H4.68ZM4.6 243.94V248.26H15.38V249.5H3.18V243.94H4.6ZM31.8431 232.14H33.2231V239.98H21.3831V232.14H22.7631V234.88H31.8431V232.14ZM18.9031 242.42H35.7031V243.64H28.0231V249.72H26.6031V243.64H18.9031V242.42ZM22.7631 238.8H31.8431V236.1H22.7631V238.8ZM42.3863 243.4V248.26H52.5863V249.5H40.9663V243.4H42.3863ZM52.1263 231.44V244.48H50.7263V231.44H52.1263ZM42.8263 237.94H42.8063C42.7463 238.28 42.1263 238.9 41.2463 239.74C40.5463 240.4 39.4063 241.36 38.2463 242.28L37.3663 241.28C38.4463 240.46 39.7263 239.42 40.6263 238.52C41.8863 237.26 42.0263 236.76 42.0263 235.24V232.3H43.4663V235.2C43.4663 236.68 43.5863 237.16 44.9263 238.36C45.9063 239.22 46.9863 240.08 47.8863 240.74L47.0463 241.72C45.9463 240.88 45.0663 240.16 44.3863 239.58C43.4663 238.8 42.9263 238.26 42.8263 237.94ZM75.3494 231.44V249.72H73.9294V231.44H75.3494ZM61.9894 245.56L61.2494 244.42C67.3894 240.9 68.0894 239.72 68.0894 236.74V234.44H61.4494V233.16H69.4694V236.76C69.4694 240.4 68.4894 241.76 61.9894 245.56ZM91.1325 244.56L91.2525 245.78C87.9525 246.12 85.1325 246.24 79.0125 246.24V245C81.0325 245 82.7525 245 84.2525 244.96V242.68C81.9925 242.48 80.4725 241.12 80.4725 239.64V238.88C80.4725 237.26 82.2525 235.82 84.8325 235.82C87.4325 235.82 89.1925 237.26 89.1925 238.88V239.64C89.1925 241.06 87.7925 242.38 85.6725 242.66V244.92C87.7725 244.86 89.4725 244.74 91.1325 244.56ZM93.9325 231.44V249.72H92.5125V231.44H93.9325ZM84.8325 237.02C82.9725 237.02 81.8125 238.02 81.8125 238.96V239.56C81.8125 240.5 82.9725 241.52 84.8325 241.52C86.6925 241.52 87.8525 240.5 87.8525 239.56V238.96C87.8525 238.02 86.6925 237.02 84.8325 237.02ZM85.5125 231.28V233.56H90.0325V234.8H79.4725V233.56H84.1125V231.28H85.5125ZM99.1356 232.88H110.976V238.3H100.576V241.26H111.396V242.48H105.816V245.92H113.516V247.14H96.7156V245.92H104.416V242.48H99.1956V237.1H109.596V234.1H99.1356V232.88ZM128.979 232.48V240.18H120.819V232.48H128.979ZM128.859 246.44C128.559 247 127.719 247.58 126.459 248.2C125.299 248.76 124.139 249.28 122.939 249.76L122.419 248.68C123.679 248.2 124.939 247.64 126.039 247.1C127.599 246.34 128.159 245.64 128.159 244.6V243.82H122.979V242.6H134.659V243.82H129.539V244.6C129.539 245.64 130.099 246.34 131.659 247.1C132.759 247.64 134.019 248.2 135.279 248.68L134.759 249.76C133.559 249.28 132.399 248.76 131.239 248.2C129.979 247.58 129.179 246.98 128.859 246.44ZM127.619 238.94V233.72H122.179V238.94H127.619ZM134.279 231.44V235.62H137.079V236.86H134.279V241.52H132.879V231.44H134.279ZM153.202 231.44V249.72H151.782V231.44H153.202ZM148.162 238.04V239.92C148.162 243.26 146.482 245.24 143.642 245.24C140.802 245.24 139.122 243.26 139.122 239.92V238.02C139.122 234.68 140.802 232.72 143.642 232.72C146.482 232.72 148.162 234.7 148.162 238.04ZM146.782 239.68V238.28C146.782 235.24 145.522 234.04 143.642 234.04C141.762 234.04 140.502 235.24 140.502 238.28V239.68C140.502 242.72 141.762 243.94 143.642 243.94C145.522 243.94 146.782 242.72 146.782 239.68ZM159.585 242.4H170.705V246.68H161.065V248.58H171.185V249.78H159.685V245.5H169.325V243.62H159.585V242.4ZM161.765 241.14C158.945 241.14 157.585 239.84 157.585 238.4V237.92C157.585 236.48 158.945 235.18 161.765 235.18C164.585 235.18 165.945 236.5 165.945 237.92V238.4C165.945 239.84 164.585 241.14 161.765 241.14ZM170.705 231.44V235.78H173.505V237.02H170.705V241.32H169.305V231.44H170.705ZM161.765 236.36C159.885 236.36 158.945 237.18 158.945 237.96V238.36C158.945 239.14 159.885 239.96 161.765 239.96C163.645 239.96 164.585 239.14 164.585 238.36V237.96C164.585 237.18 163.645 236.36 161.765 236.36ZM162.465 231.06V233.1H167.065V234.32H156.525V233.1H161.065V231.06H162.465ZM187.928 242.96C190.928 242.96 193.608 244.12 193.608 246.22V246.94C193.608 249.04 190.928 250.2 187.928 250.2C184.928 250.2 182.248 249.04 182.248 246.94V246.22C182.248 244.08 184.928 242.96 187.928 242.96ZM187.928 249C190.088 249 192.248 248.2 192.248 246.86V246.3C192.248 244.96 190.088 244.16 187.928 244.16C185.768 244.16 183.608 244.96 183.608 246.3V246.86C183.608 248.2 185.768 249 187.928 249ZM179.528 240.02H186.208V236.16H187.648V240.02H196.328V241.22H179.528V240.02ZM181.748 232.24H193.768V234.1C193.768 235.52 193.548 237.42 193.268 238.7L191.868 238.54C192.188 237.08 192.368 235.46 192.368 234.12V233.48H181.748V232.24ZM198.811 242.66L198.231 241.5C204.631 238.72 205.131 237.92 205.131 235.28V233.88H198.851V232.64H206.511V235.36C206.511 238.62 205.631 239.7 198.811 242.66ZM212.051 231.44V236.78H214.851V238.02H212.051V244.52H210.651V231.44H212.051ZM202.531 243.54V248.26H212.611V249.5H201.111V243.54H202.531ZM229.654 241.86H231.034V249.7H219.874V241.86H221.254V244.38H229.654V241.86ZM216.794 236.72V235.76C216.794 233.92 218.594 232.12 221.254 232.12C223.914 232.12 225.714 233.92 225.714 235.76V236.72C225.714 238.56 223.914 240.36 221.254 240.36C218.594 240.36 216.794 238.56 216.794 236.72ZM224.354 236.58V235.9C224.354 234.58 223.034 233.38 221.254 233.38C219.474 233.38 218.154 234.58 218.154 235.9V236.58C218.154 237.9 219.474 239.1 221.254 239.1C223.034 239.1 224.354 237.9 224.354 236.58ZM221.254 248.44H229.654V245.62H221.254V248.44ZM231.034 231.44V240.78H229.634V231.44H231.034ZM249.258 231.44V249.72H247.838V231.44H249.258ZM237.138 232.94V243.42H239.758C241.678 243.42 243.678 243.3 245.858 242.92L246.038 244.18C243.898 244.56 241.518 244.7 239.618 244.7H235.718V232.94H237.138ZM253.361 244.84V233.1H261.681V234.38H254.781V243.56H257.141C259.181 243.56 261.121 243.44 263.361 243.06L263.541 244.32C261.421 244.7 259.021 244.84 256.781 244.84H253.361ZM266.521 231.44V238.22H269.561V239.48H266.521V249.72H265.101V231.44H266.521Z" fill="white"/>
<path d="M6.96 151.05V140.91H23.73V151.05H6.96ZM3 137.85V124.98H15.84V126.84H5.07V130.5H15.3V132.33H5.07V135.99C11.64 135.99 14.73 135.93 18.63 135.48L18.84 137.31C15.09 137.79 11.49 137.85 3 137.85ZM9 142.8V149.16H21.69V142.8H9ZM23.73 123.66V139.29H21.63V123.66H23.73ZM38.7347 126.18H58.1747V127.95H54.1847V137.73H58.4447V139.5H38.4647V137.73H42.7247V127.95H38.7347V126.18ZM44.8247 127.95V137.73H52.0847V127.95H44.8247ZM35.8547 145.38H61.0547V147.21H35.8547V145.38ZM66.7894 125.82H84.5494V133.95H68.9494V138.39H85.1794V140.22H76.8094V145.38H88.3594V147.21H63.1594V145.38H74.7094V140.22H66.8794V132.15H82.4794V127.65H66.7894V125.82ZM103.694 137.07L102.434 138.42C101.174 137.4 100.004 136.35 99.0141 135.45C98.0541 134.55 97.5441 134.04 97.3641 133.68H97.3341C97.2141 134.04 96.7041 134.64 95.7741 135.57C94.9041 136.44 93.1641 138.09 91.6341 139.29L90.3141 137.85C91.6041 136.83 93.3141 135.36 94.6041 134.04C96.0141 132.57 96.2541 131.64 96.2541 129.93V127.26H91.4241V125.43H103.004V127.26H98.3541V129.9C98.3541 131.76 98.4741 132.39 100.244 134.07C101.174 134.94 102.374 136.02 103.694 137.07ZM95.8641 143.19V141.33H113.714V151.29H111.614V143.19H95.8641ZM108.434 124.02V139.65H106.364V132.48H101.984V130.62H106.364V124.02H108.434ZM113.714 123.66V139.71H111.644V123.66H113.714ZM139.609 138.33V140.13H121.459V125.91H139.369V127.71H123.529V132.12H139.219V133.92H123.529V138.33H139.609ZM117.769 145.38H142.969V147.21H117.769V145.38ZM168.173 123.66V151.08H166.043V123.66H168.173ZM163.943 142.53L164.123 144.36C159.173 144.87 154.943 145.05 145.763 145.05V143.19C154.493 143.19 159.293 143.04 163.943 142.53ZM154.343 138.51C150.443 138.51 147.203 135.96 147.203 132.72V131.28C147.203 128.01 150.443 125.49 154.343 125.49C158.243 125.49 161.483 128.04 161.483 131.28V132.72C161.483 135.96 158.243 138.51 154.343 138.51ZM154.343 127.35C151.703 127.35 149.243 129.15 149.243 131.4V132.6C149.243 134.85 151.703 136.65 154.343 136.65C156.983 136.65 159.443 134.85 159.443 132.6V131.4C159.443 129.15 156.983 127.35 154.343 127.35ZM188.788 133.89H188.758C188.668 134.28 187.888 135.09 186.568 136.2C185.518 137.1 183.808 138.45 181.858 139.77L180.688 138.18C183.028 136.56 184.378 135.54 185.548 134.55C187.258 133.08 187.618 132.15 187.618 130.08V128.61H181.288V126.78H187.618V123.36H189.748V126.78H195.748V128.61H189.748V130.02C189.748 132.27 190.048 132.81 192.148 134.43C193.438 135.42 194.578 136.23 196.258 137.31L195.148 138.9C194.008 138.15 192.598 137.13 191.428 136.26C190.168 135.33 188.908 134.28 188.788 133.89ZM195.088 140.52V141.96C195.088 143.67 195.388 144.69 197.038 145.83C198.328 146.73 200.428 147.81 203.908 149.52L202.948 151.17C201.148 150.27 197.638 148.44 196.318 147.6C194.818 146.64 194.218 146.13 194.038 145.71C193.888 146.13 193.318 146.64 191.818 147.6C190.498 148.44 186.958 150.27 185.158 151.17L184.168 149.52C187.648 147.81 189.748 146.73 191.038 145.83C192.688 144.69 192.988 143.67 192.988 141.96V140.52H195.088ZM202.678 123.66V141.24H200.578V133.32H194.968V131.46H200.578V123.66H202.678ZM220.503 138.96H237.423V145.95H222.723V149.37H238.143V151.17H220.653V144.18H235.353V140.79H220.503V138.96ZM216.633 138.18L215.853 136.44C225.363 132.78 226.233 131.67 226.233 127.65V126.75H216.753V124.89H228.303V127.77C228.303 128.46 228.273 129.06 228.183 129.63H235.323V123.66H237.423V137.34H235.323V131.49H227.703C226.593 133.95 223.683 135.51 216.633 138.18ZM254.588 134.79C250.088 134.79 245.978 133.11 245.978 129.99V128.97C245.978 125.85 250.088 124.17 254.588 124.17C259.088 124.17 263.198 125.85 263.198 128.97V129.99C263.198 133.11 259.088 134.79 254.588 134.79ZM254.588 125.97C251.348 125.97 248.018 127.2 248.018 129.12V129.84C248.018 131.76 251.348 132.99 254.588 132.99C257.828 132.99 261.158 131.76 261.158 129.84V129.12C261.158 127.2 257.828 125.97 254.588 125.97ZM241.988 137.01H267.188V138.84H241.988V137.01ZM245.678 151.02V141.75H263.498V151.02H245.678ZM247.718 143.64V149.13H261.458V143.64H247.718ZM269.652 152.25L270.912 145.5H273.552L271.392 152.25H269.652ZM296.746 133.56H296.716C296.476 134.16 295.366 135.18 293.206 136.62C291.406 137.82 288.946 139.29 286.786 140.46L285.646 138.78C288.256 137.43 290.566 136.05 291.976 135.09C294.946 133.08 295.636 132.15 295.636 128.91V125.61H297.826V128.91C297.826 132.15 298.486 133.08 301.456 135.09C302.866 136.05 305.146 137.4 307.726 138.75L306.616 140.4C304.486 139.23 302.056 137.79 300.256 136.59C298.096 135.15 297.016 134.16 296.746 133.56ZM284.146 145.38H309.346V147.21H284.146V145.38ZM315.2 125.31H332.9V135.99H315.2V125.31ZM317.3 127.17V134.13H330.8V127.17H317.3ZM311.45 139.83H336.65V141.66H325.13V151.08H323V141.66H311.45V139.83ZM361.375 123.66V151.08H359.245V123.66H361.375ZM340.735 143.82V126.12H353.755V128.04H342.865V141.9H346.915C349.975 141.9 352.885 141.72 356.245 141.15L356.515 143.04C353.335 143.61 349.735 143.82 346.375 143.82H340.735ZM372.72 144.18C368.76 144.18 366.87 141.33 366.87 136.2V133.86C366.87 128.73 368.76 125.88 372.72 125.88C376.68 125.88 378.57 128.73 378.57 133.86V134.01H382.26V124.23H384.36V149.73H382.26V135.9H378.57V136.2C378.57 141.33 376.68 144.18 372.72 144.18ZM372.72 127.83C370.05 127.83 368.91 129.99 368.91 134.1V135.96C368.91 140.07 370.05 142.23 372.72 142.23C375.39 142.23 376.53 140.07 376.53 135.96V134.1C376.53 129.99 375.39 127.83 372.72 127.83ZM389.64 123.66V151.08H387.54V123.66H389.64ZM423.604 123.66V151.08H421.504V135.42H415.354V136.35C415.354 141.36 412.834 144.3 408.604 144.3C404.374 144.3 401.854 141.36 401.854 136.35V133.53C401.854 128.55 404.374 125.61 408.604 125.61C412.804 125.61 415.324 128.55 415.354 133.5H421.504V123.66H423.604ZM413.284 135.99V133.92C413.284 129.36 411.424 127.59 408.604 127.59C405.784 127.59 403.924 129.36 403.924 133.92V135.99C403.924 140.55 405.784 142.35 408.604 142.35C411.424 142.35 413.284 140.55 413.284 135.99ZM450.879 123.66V151.08H448.779V134.28H442.269V132.36H448.779V123.66H450.879ZM433.119 137.82C435.009 135.66 435.309 134.49 435.309 132.12V125.67H437.499V131.97C437.499 134.28 437.679 135.27 439.299 137.13C440.499 138.51 442.269 140.31 444.519 142.35L443.139 143.79C441.249 141.99 439.569 140.34 438.369 139.05C437.469 138.09 436.599 137.1 436.449 136.71H436.419C436.329 137.1 435.189 138.51 434.289 139.5C433.239 140.64 431.259 142.65 429.489 144.21L428.079 142.74C430.059 141 431.709 139.41 433.119 137.82ZM466.544 133.29V131.82C466.544 127.92 470.654 125.34 475.574 125.34C480.464 125.34 484.604 127.92 484.604 131.82V133.29C484.604 136.92 481.034 139.38 476.654 139.74V145.38H488.174V147.21H462.974V145.38H474.494V139.74C470.054 139.38 466.544 136.92 466.544 133.29ZM475.574 127.29C471.674 127.29 468.644 129.21 468.644 131.91V133.2C468.644 135.9 471.674 137.82 475.574 137.82C479.444 137.82 482.504 135.9 482.504 133.2V131.91C482.504 129.21 479.444 127.29 475.574 127.29ZM501.409 132.84H506.419V124.23H508.519V149.73H506.419V134.76H501.409V132.84ZM496.009 132V125.85H498.139V132C498.139 134.85 498.469 135.84 499.999 137.79C500.989 139.05 502.459 140.67 504.169 142.35L502.759 143.73C501.259 142.2 499.789 140.55 498.769 139.38C497.869 138.36 497.239 137.4 497.119 137.07H497.089C496.999 137.4 496.489 138.24 495.559 139.35C494.449 140.67 493.069 142.17 491.149 144.06L489.709 142.65C491.509 140.94 493.309 139.02 494.239 137.82C495.679 135.96 496.009 134.73 496.009 132ZM513.889 123.66V151.08H511.789V123.66H513.889ZM521.153 133.23V131.76C521.153 127.86 525.263 125.31 530.183 125.31C535.073 125.31 539.213 127.86 539.213 131.76V133.23C539.213 135.33 537.983 137.07 536.123 138.18V145.38H542.783V147.21H517.583V145.38H524.243V138.18C522.353 137.07 521.153 135.36 521.153 133.23ZM530.183 127.26C526.283 127.26 523.253 129.15 523.253 131.85V133.14C523.253 135.84 526.283 137.73 530.183 137.73C534.053 137.73 537.113 135.84 537.113 133.14V131.85C537.113 129.15 534.053 127.26 530.183 127.26ZM530.183 139.68C528.803 139.68 527.513 139.47 526.343 139.11V145.38H534.023V139.11C532.853 139.5 531.533 139.68 530.183 139.68ZM546.598 148.62V145.68H549.478V148.62H546.598ZM548.908 142.56H547.168L546.808 125.58H549.268L548.908 142.56Z" fill="#536B82"/>
<path d="M21 54.2C17.48 54.2 14.08 53.6 10.8 52.4C7.6 51.2 5.12 49.48 3.36 47.24C2.72 46.36 2.4 45.48 2.4 44.6C2.4 43.56 2.8 42.68 3.6 41.96C4.48 41.16 5.44 40.76 6.48 40.76C7.04 40.76 7.6 40.88 8.16 41.12C8.72 41.28 9.16 41.6 9.48 42.08C10.76 43.6 12.48 44.8 14.64 45.68C16.88 46.56 19.2 47 21.6 47C24.4 47 26.68 46.32 28.44 44.96C30.28 43.6 31.2 41.8 31.2 39.56C31.2 37 30.12 35.2 27.96 34.16C25.88 33.04 23.44 32.24 20.64 31.76C18.08 31.28 15.48 30.6 12.84 29.72C10.2 28.76 8 27.4 6.24 25.64C4.48 23.8 3.6 21.32 3.6 18.2C3.6 13.96 5.2 10.6 8.4 8.12C11.68 5.64 16.04 4.4 21.48 4.4C24.36 4.4 27 4.84 29.4 5.72C31.8 6.52 33.8 7.64 35.4 9.08C36.36 9.88 36.84 10.88 36.84 12.08C36.84 13.04 36.48 13.88 35.76 14.6C35.04 15.32 34.2 15.68 33.24 15.68C32.28 15.68 31.36 15.36 30.48 14.72C27.92 12.64 24.76 11.6 21 11.6C14.6 11.6 11.4 13.76 11.4 18.08C11.4 20.16 12.36 21.6 14.28 22.4C16.28 23.12 18.96 23.88 22.32 24.68C23.92 25 25.64 25.48 27.48 26.12C29.4 26.68 31.24 27.52 33 28.64C34.76 29.68 36.2 31.12 37.32 32.96C38.44 34.72 39 36.96 39 39.68C39 44 37.32 47.52 33.96 50.24C30.68 52.88 26.36 54.2 21 54.2ZM55.6331 53.9C53.1731 53.9 51.2531 53.18 49.8731 51.74C48.4931 50.24 47.8031 48.2 47.8031 45.62V32.3C47.8031 31.7 47.5031 31.4 46.9031 31.4H44.6531C44.1731 31.4 43.7531 31.22 43.3931 30.86C43.0331 30.5 42.8531 30.08 42.8531 29.6C42.8531 29.12 43.0331 28.7 43.3931 28.34C43.7531 27.98 44.1731 27.8 44.6531 27.8H46.9031C47.5031 27.8 47.8031 27.5 47.8031 26.9V18.53C47.8031 17.87 48.0131 17.39 48.4331 17.09C48.8531 16.73 49.3031 16.55 49.7831 16.55C50.3231 16.55 50.8031 16.73 51.2231 17.09C51.6431 17.39 51.8531 17.87 51.8531 18.53V26.9C51.8531 27.5 52.1531 27.8 52.7531 27.8H59.0531C59.5331 27.8 59.9531 27.98 60.3131 28.34C60.6731 28.7 60.8531 29.12 60.8531 29.6C60.8531 30.08 60.6731 30.5 60.3131 30.86C59.9531 31.22 59.5331 31.4 59.0531 31.4H52.7531C52.1531 31.4 51.8531 31.7 51.8531 32.3V45.35C51.8531 48.47 53.2931 50.03 56.1731 50.03C56.8931 50.03 57.4631 49.94 57.8831 49.76C58.3631 49.58 58.7531 49.49 59.0531 49.49C59.5931 49.49 60.0131 49.7 60.3131 50.12C60.6731 50.54 60.8531 50.99 60.8531 51.47C60.8531 52.43 60.4031 53.03 59.5031 53.27C58.9031 53.51 58.2431 53.66 57.5231 53.72C56.8631 53.84 56.2331 53.9 55.6331 53.9ZM78.1753 53.9C74.4553 53.9 71.3953 52.64 68.9953 50.12C66.5953 47.54 65.3953 44.24 65.3953 40.22C65.3953 36.32 66.5953 33.14 68.9953 30.68C71.3953 28.16 74.4553 26.9 78.1753 26.9C82.0153 26.9 85.1053 28.25 87.4453 30.95V29.33C87.4453 28.67 87.6553 28.19 88.0753 27.89C88.4953 27.53 88.9453 27.35 89.4253 27.35C89.9653 27.35 90.4453 27.53 90.8653 27.89C91.2853 28.19 91.4953 28.67 91.4953 29.33V51.83C91.4953 52.43 91.2853 52.91 90.8653 53.27C90.5053 53.69 90.0253 53.9 89.4253 53.9C88.8253 53.9 88.3453 53.69 87.9853 53.27C87.6253 52.91 87.4453 52.43 87.4453 51.83V49.67C86.3653 50.99 85.0153 52.04 83.3953 52.82C81.8353 53.54 80.0953 53.9 78.1753 53.9ZM78.1753 50.21C80.9953 50.21 83.2453 49.37 84.9253 47.69C86.6053 46.01 87.4453 43.52 87.4453 40.22C87.4453 37.04 86.6053 34.64 84.9253 33.02C83.2453 31.4 80.9953 30.59 78.1753 30.59C75.5953 30.59 73.4953 31.52 71.8753 33.38C70.3153 35.24 69.5353 37.52 69.5353 40.22C69.5353 43.04 70.3153 45.41 71.8753 47.33C73.4953 49.25 75.5953 50.21 78.1753 50.21ZM103.227 40.31V51.83C103.227 52.43 103.047 52.91 102.687 53.27C102.327 53.69 101.847 53.9 101.247 53.9C100.647 53.9 100.137 53.69 99.717 53.27C99.357 52.91 99.177 52.43 99.177 51.83V29.33C99.177 28.67 99.387 28.19 99.807 27.89C100.227 27.53 100.707 27.35 101.247 27.35C101.727 27.35 102.177 27.53 102.597 27.89C103.017 28.19 103.227 28.67 103.227 29.33V31.49C103.947 29.99 105.147 28.85 106.827 28.07C108.507 27.29 110.097 26.9 111.597 26.9C112.497 26.9 113.397 27.05 114.297 27.35C114.897 27.53 115.317 27.86 115.557 28.34C115.857 28.82 115.917 29.36 115.737 29.96C115.317 31.16 114.507 31.64 113.307 31.4C112.227 31.1 111.327 30.95 110.607 30.95C108.267 30.95 106.437 31.85 105.117 33.65C103.857 35.39 103.227 37.61 103.227 40.31ZM130.428 53.9C127.968 53.9 126.048 53.18 124.668 51.74C123.288 50.24 122.598 48.2 122.598 45.62V32.3C122.598 31.7 122.298 31.4 121.698 31.4H119.448C118.968 31.4 118.548 31.22 118.188 30.86C117.828 30.5 117.648 30.08 117.648 29.6C117.648 29.12 117.828 28.7 118.188 28.34C118.548 27.98 118.968 27.8 119.448 27.8H121.698C122.298 27.8 122.598 27.5 122.598 26.9V18.53C122.598 17.87 122.808 17.39 123.228 17.09C123.648 16.73 124.098 16.55 124.578 16.55C125.118 16.55 125.598 16.73 126.018 17.09C126.438 17.39 126.648 17.87 126.648 18.53V26.9C126.648 27.5 126.948 27.8 127.548 27.8H133.848C134.328 27.8 134.748 27.98 135.108 28.34C135.468 28.7 135.648 29.12 135.648 29.6C135.648 30.08 135.468 30.5 135.108 30.86C134.748 31.22 134.328 31.4 133.848 31.4H127.548C126.948 31.4 126.648 31.7 126.648 32.3V45.35C126.648 48.47 128.088 50.03 130.968 50.03C131.688 50.03 132.258 49.94 132.678 49.76C133.158 49.58 133.548 49.49 133.848 49.49C134.388 49.49 134.808 49.7 135.108 50.12C135.468 50.54 135.648 50.99 135.648 51.47C135.648 52.43 135.198 53.03 134.298 53.27C133.698 53.51 133.038 53.66 132.318 53.72C131.658 53.84 131.028 53.9 130.428 53.9ZM145.41 59.39C145.29 59.81 145.05 60.11 144.69 60.29C144.39 60.53 144.09 60.65 143.79 60.65C142.83 60.65 142.38 60.02 142.44 58.76L143.34 49.67C143.46 48.95 143.73 48.44 144.15 48.14C144.63 47.78 145.14 47.6 145.68 47.6C146.4 47.6 147.06 47.87 147.66 48.41C148.26 48.89 148.44 49.64 148.2 50.66L145.41 59.39ZM180 54.28C178.634 54.28 177.482 53.8107 176.544 52.872C175.69 51.848 175.349 50.6533 175.52 49.288L181.024 6.28C181.194 4.57333 181.834 3.29333 182.944 2.44C184.138 1.58666 185.418 1.16 186.784 1.16C188.149 1.16 189.386 1.50133 190.496 2.184C191.69 2.78133 192.501 3.72 192.928 5L203.04 33.672C203.466 34.696 203.893 35.208 204.32 35.208C204.832 35.208 205.258 34.696 205.6 33.672L215.712 5C216.138 3.72 216.906 2.78133 218.016 2.184C219.21 1.50133 220.448 1.16 221.728 1.16C223.093 1.16 224.373 1.58666 225.568 2.44C226.762 3.29333 227.445 4.57333 227.616 6.28L233.12 49.288C233.29 50.6533 232.949 51.848 232.096 52.872C231.242 53.8107 230.09 54.28 228.64 54.28C227.53 54.28 226.506 53.896 225.568 53.128C224.714 52.36 224.202 51.3787 224.032 50.184L221.216 18.568C221.13 17.544 220.789 17.032 220.192 17.032C219.594 17.032 219.168 17.4587 218.912 18.312L209.696 43.784C209.184 45.1493 208.458 46.1307 207.52 46.728C206.581 47.3253 205.514 47.624 204.32 47.624C202.016 47.624 200.266 46.344 199.072 43.784L189.728 18.312C189.386 17.4587 188.96 17.032 188.448 17.032C188.106 17.032 187.85 17.544 187.68 18.568L184.608 50.184C184.522 51.3787 184.01 52.36 183.072 53.128C182.218 53.896 181.194 54.28 180 54.28ZM252.86 53.9C250.34 53.9 248.09 53.3 246.11 52.1C244.13 50.9 242.54 49.28 241.34 47.24C240.2 45.14 239.63 42.8 239.63 40.22C239.63 37.64 240.2 35.36 241.34 33.38C242.54 31.4 244.13 29.84 246.11 28.7C248.09 27.5 250.34 26.9 252.86 26.9C255.38 26.9 257.63 27.5 259.61 28.7C261.65 29.84 263.24 31.4 264.38 33.38C265.58 35.36 266.18 37.64 266.18 40.22C266.18 42.8 265.58 45.14 264.38 47.24C263.24 49.28 261.65 50.9 259.61 52.1C257.63 53.3 255.38 53.9 252.86 53.9ZM252.86 50.21C255.68 50.21 257.93 49.25 259.61 47.33C261.29 45.41 262.13 43.04 262.13 40.22C262.13 37.52 261.29 35.24 259.61 33.38C257.93 31.52 255.68 30.59 252.86 30.59C250.1 30.59 247.88 31.52 246.2 33.38C244.58 35.24 243.77 37.52 243.77 40.22C243.77 43.04 244.58 45.41 246.2 47.33C247.88 49.25 250.1 50.21 252.86 50.21ZM282.602 53.9C280.142 53.9 278.222 53.18 276.842 51.74C275.462 50.24 274.772 48.2 274.772 45.62V32.3C274.772 31.7 274.472 31.4 273.872 31.4H271.622C271.142 31.4 270.722 31.22 270.362 30.86C270.002 30.5 269.822 30.08 269.822 29.6C269.822 29.12 270.002 28.7 270.362 28.34C270.722 27.98 271.142 27.8 271.622 27.8H273.872C274.472 27.8 274.772 27.5 274.772 26.9V18.53C274.772 17.87 274.982 17.39 275.402 17.09C275.822 16.73 276.272 16.55 276.752 16.55C277.292 16.55 277.772 16.73 278.192 17.09C278.612 17.39 278.822 17.87 278.822 18.53V26.9C278.822 27.5 279.122 27.8 279.722 27.8H286.022C286.502 27.8 286.922 27.98 287.282 28.34C287.642 28.7 287.822 29.12 287.822 29.6C287.822 30.08 287.642 30.5 287.282 30.86C286.922 31.22 286.502 31.4 286.022 31.4H279.722C279.122 31.4 278.822 31.7 278.822 32.3V45.35C278.822 48.47 280.262 50.03 283.142 50.03C283.862 50.03 284.432 49.94 284.852 49.76C285.332 49.58 285.722 49.49 286.022 49.49C286.562 49.49 286.982 49.7 287.282 50.12C287.642 50.54 287.822 50.99 287.822 51.47C287.822 52.43 287.372 53.03 286.472 53.27C285.872 53.51 285.212 53.66 284.492 53.72C283.832 53.84 283.202 53.9 282.602 53.9ZM296.234 53.9C295.634 53.9 295.124 53.69 294.704 53.27C294.344 52.91 294.164 52.43 294.164 51.83V28.88C294.164 28.22 294.374 27.74 294.794 27.44C295.214 27.08 295.694 26.9 296.234 26.9C296.714 26.9 297.164 27.08 297.584 27.44C298.004 27.74 298.214 28.22 298.214 28.88V51.83C298.214 52.43 298.034 52.91 297.674 53.27C297.314 53.69 296.834 53.9 296.234 53.9ZM295.964 20.96C295.004 20.96 294.224 20.69 293.624 20.15C293.084 19.55 292.814 18.8 292.814 17.9C292.814 16.94 293.084 16.19 293.624 15.65C294.224 15.05 295.004 14.75 295.964 14.75C296.924 14.75 297.674 15.05 298.214 15.65C298.814 16.19 299.114 16.94 299.114 17.9C299.114 18.8 298.814 19.55 298.214 20.15C297.674 20.69 296.924 20.96 295.964 20.96ZM316.182 53.9C315.582 53.9 314.952 53.69 314.292 53.27C313.692 52.85 313.242 52.31 312.942 51.65L303.762 29.6C303.642 29.24 303.582 28.97 303.582 28.79C303.582 28.07 303.852 27.56 304.392 27.26C304.992 26.96 305.502 26.81 305.922 26.81C306.702 26.81 307.272 27.26 307.632 28.16L315.192 47.15C315.372 47.57 315.702 47.78 316.182 47.78C316.662 47.78 316.992 47.57 317.172 47.15L324.732 28.25C325.092 27.35 325.692 26.9 326.532 26.9C327.132 26.9 327.642 27.08 328.062 27.44C328.542 27.74 328.782 28.19 328.782 28.79C328.782 28.97 328.722 29.24 328.602 29.6L319.422 51.65C319.182 52.31 318.732 52.85 318.072 53.27C317.472 53.69 316.842 53.9 316.182 53.9ZM345.775 53.9C341.575 53.9 338.215 52.67 335.695 50.21C333.175 47.69 331.915 44.24 331.915 39.86C331.915 37.46 332.455 35.3 333.535 33.38C334.615 31.4 336.115 29.84 338.035 28.7C340.015 27.5 342.325 26.9 344.965 26.9C347.725 26.9 350.005 27.5 351.805 28.7C353.605 29.84 354.925 31.28 355.765 33.02C356.665 34.7 357.115 36.38 357.115 38.06C357.115 39.08 356.875 39.92 356.395 40.58C355.975 41.24 355.345 41.57 354.505 41.57H337.225C336.865 41.57 336.595 41.6 336.415 41.66C336.295 41.72 336.235 41.93 336.235 42.29C336.235 43.31 336.565 44.42 337.225 45.62C337.885 46.82 338.815 47.87 340.015 48.77C341.275 49.61 342.715 50.09 344.335 50.21C346.075 50.33 347.785 50.15 349.465 49.67C351.145 49.19 352.645 48.44 353.965 47.42C354.265 47.18 354.595 47.06 354.955 47.06C355.375 47.06 355.765 47.24 356.125 47.6C356.545 47.96 356.755 48.41 356.755 48.95C356.755 49.49 356.485 50.03 355.945 50.57C354.505 51.71 352.885 52.55 351.085 53.09C349.285 53.63 347.515 53.9 345.775 53.9ZM351.445 38.42C351.925 38.42 352.285 38.24 352.525 37.88C352.765 37.46 352.825 36.95 352.705 36.35C352.525 34.79 351.715 33.41 350.275 32.21C348.835 30.95 347.065 30.32 344.965 30.32C343.405 30.32 341.965 30.71 340.645 31.49C339.385 32.21 338.365 33.14 337.585 34.28C336.805 35.42 336.415 36.62 336.415 37.88C336.415 38.18 336.685 38.33 337.225 38.33L351.445 38.42ZM367.721 59.39C367.601 59.81 367.361 60.11 367.001 60.29C366.701 60.53 366.401 60.65 366.101 60.65C365.141 60.65 364.691 60.02 364.751 58.76L365.651 49.67C365.771 48.95 366.041 48.44 366.461 48.14C366.941 47.78 367.451 47.6 367.991 47.6C368.711 47.6 369.371 47.87 369.971 48.41C370.571 48.89 370.751 49.64 370.511 50.66L367.721 59.39ZM423.942 54.28C418.993 54.28 414.47 53.128 410.374 50.824C406.364 48.4347 403.164 45.2347 400.774 41.224C398.385 37.128 397.19 32.52 397.19 27.4C397.19 22.024 398.385 17.3307 400.774 13.32C403.164 9.30933 406.364 6.19466 410.374 3.976C414.47 1.672 418.993 0.519997 423.942 0.519997C428.892 0.519997 433.329 1.672 437.254 3.976C441.265 6.19466 444.422 9.30933 446.726 13.32C449.116 17.3307 450.31 22.024 450.31 27.4C450.31 32.52 449.116 37.128 446.726 41.224C444.422 45.2347 441.265 48.4347 437.254 50.824C433.329 53.128 428.892 54.28 423.942 54.28ZM423.942 46.472C427.356 46.472 430.342 45.6187 432.902 43.912C435.548 42.12 437.596 39.7733 439.046 36.872C440.497 33.9707 441.222 30.8133 441.222 27.4C441.222 21.9387 439.601 17.416 436.358 13.832C433.116 10.248 428.977 8.456 423.942 8.456C418.822 8.456 414.641 10.248 411.398 13.832C408.156 17.416 406.534 21.9387 406.534 27.4C406.534 30.8133 407.26 33.9707 408.71 36.872C410.161 39.7733 412.209 42.12 414.854 43.912C417.5 45.6187 420.529 46.472 423.942 46.472ZM470.86 53.9C468.94 53.9 467.17 53.54 465.55 52.82C463.99 52.04 462.67 50.99 461.59 49.67V63.53C461.59 64.13 461.41 64.61 461.05 64.97C460.69 65.39 460.21 65.6 459.61 65.6C459.01 65.6 458.5 65.39 458.08 64.97C457.72 64.61 457.54 64.13 457.54 63.53V29.33C457.54 28.67 457.75 28.19 458.17 27.89C458.59 27.53 459.07 27.35 459.61 27.35C460.09 27.35 460.54 27.53 460.96 27.89C461.38 28.19 461.59 28.67 461.59 29.33V30.95C463.93 28.25 467.02 26.9 470.86 26.9C474.58 26.9 477.64 28.16 480.04 30.68C482.44 33.14 483.64 36.32 483.64 40.22C483.64 44.24 482.44 47.54 480.04 50.12C477.64 52.64 474.58 53.9 470.86 53.9ZM470.86 50.21C473.44 50.21 475.51 49.25 477.07 47.33C478.69 45.41 479.5 43.04 479.5 40.22C479.5 37.52 478.69 35.24 477.07 33.38C475.51 31.52 473.44 30.59 470.86 30.59C468.1 30.59 465.85 31.4 464.11 33.02C462.43 34.64 461.59 37.04 461.59 40.22C461.59 43.52 462.43 46.01 464.11 47.69C465.85 49.37 468.1 50.21 470.86 50.21ZM503.731 53.9C501.811 53.9 500.041 53.54 498.421 52.82C496.861 52.04 495.541 50.99 494.461 49.67V63.53C494.461 64.13 494.281 64.61 493.921 64.97C493.561 65.39 493.081 65.6 492.481 65.6C491.881 65.6 491.371 65.39 490.951 64.97C490.591 64.61 490.411 64.13 490.411 63.53V29.33C490.411 28.67 490.621 28.19 491.041 27.89C491.461 27.53 491.941 27.35 492.481 27.35C492.961 27.35 493.411 27.53 493.831 27.89C494.251 28.19 494.461 28.67 494.461 29.33V30.95C496.801 28.25 499.891 26.9 503.731 26.9C507.451 26.9 510.511 28.16 512.911 30.68C515.311 33.14 516.511 36.32 516.511 40.22C516.511 44.24 515.311 47.54 512.911 50.12C510.511 52.64 507.451 53.9 503.731 53.9ZM503.731 50.21C506.311 50.21 508.381 49.25 509.941 47.33C511.561 45.41 512.371 43.04 512.371 40.22C512.371 37.52 511.561 35.24 509.941 33.38C508.381 31.52 506.311 30.59 503.731 30.59C500.971 30.59 498.721 31.4 496.981 33.02C495.301 34.64 494.461 37.04 494.461 40.22C494.461 43.52 495.301 46.01 496.981 47.69C498.721 49.37 500.971 50.21 503.731 50.21ZM536.041 53.9C533.521 53.9 531.271 53.3 529.291 52.1C527.311 50.9 525.721 49.28 524.521 47.24C523.381 45.14 522.811 42.8 522.811 40.22C522.811 37.64 523.381 35.36 524.521 33.38C525.721 31.4 527.311 29.84 529.291 28.7C531.271 27.5 533.521 26.9 536.041 26.9C538.561 26.9 540.811 27.5 542.791 28.7C544.831 29.84 546.421 31.4 547.561 33.38C548.761 35.36 549.361 37.64 549.361 40.22C549.361 42.8 548.761 45.14 547.561 47.24C546.421 49.28 544.831 50.9 542.791 52.1C540.811 53.3 538.561 53.9 536.041 53.9ZM536.041 50.21C538.861 50.21 541.111 49.25 542.791 47.33C544.471 45.41 545.311 43.04 545.311 40.22C545.311 37.52 544.471 35.24 542.791 33.38C541.111 31.52 538.861 30.59 536.041 30.59C533.281 30.59 531.061 31.52 529.381 33.38C527.761 35.24 526.951 37.52 526.951 40.22C526.951 43.04 527.761 45.41 529.381 47.33C531.061 49.25 533.281 50.21 536.041 50.21ZM560.204 40.31V51.83C560.204 52.43 560.024 52.91 559.664 53.27C559.304 53.69 558.824 53.9 558.224 53.9C557.624 53.9 557.114 53.69 556.694 53.27C556.334 52.91 556.154 52.43 556.154 51.83V29.33C556.154 28.67 556.364 28.19 556.784 27.89C557.204 27.53 557.684 27.35 558.224 27.35C558.704 27.35 559.154 27.53 559.574 27.89C559.994 28.19 560.204 28.67 560.204 29.33V31.49C560.924 29.99 562.124 28.85 563.804 28.07C565.484 27.29 567.074 26.9 568.574 26.9C569.474 26.9 570.374 27.05 571.274 27.35C571.874 27.53 572.294 27.86 572.534 28.34C572.834 28.82 572.894 29.36 572.714 29.96C572.294 31.16 571.484 31.64 570.284 31.4C569.204 31.1 568.304 30.95 567.584 30.95C565.244 30.95 563.414 31.85 562.094 33.65C560.834 35.39 560.204 37.61 560.204 40.31ZM587.405 53.9C584.945 53.9 583.025 53.18 581.645 51.74C580.265 50.24 579.575 48.2 579.575 45.62V32.3C579.575 31.7 579.275 31.4 578.675 31.4H576.425C575.945 31.4 575.525 31.22 575.165 30.86C574.805 30.5 574.625 30.08 574.625 29.6C574.625 29.12 574.805 28.7 575.165 28.34C575.525 27.98 575.945 27.8 576.425 27.8H578.675C579.275 27.8 579.575 27.5 579.575 26.9V18.53C579.575 17.87 579.785 17.39 580.205 17.09C580.625 16.73 581.075 16.55 581.555 16.55C582.095 16.55 582.575 16.73 582.995 17.09C583.415 17.39 583.625 17.87 583.625 18.53V26.9C583.625 27.5 583.925 27.8 584.525 27.8H590.825C591.305 27.8 591.725 27.98 592.085 28.34C592.445 28.7 592.625 29.12 592.625 29.6C592.625 30.08 592.445 30.5 592.085 30.86C591.725 31.22 591.305 31.4 590.825 31.4H584.525C583.925 31.4 583.625 31.7 583.625 32.3V45.35C583.625 48.47 585.065 50.03 587.945 50.03C588.665 50.03 589.235 49.94 589.655 49.76C590.135 49.58 590.525 49.49 590.825 49.49C591.365 49.49 591.785 49.7 592.085 50.12C592.445 50.54 592.625 50.99 592.625 51.47C592.625 52.43 592.175 53.03 591.275 53.27C590.675 53.51 590.015 53.66 589.295 53.72C588.635 53.84 588.005 53.9 587.405 53.9ZM617.867 28.97C617.867 28.31 618.077 27.8 618.497 27.44C618.917 27.08 619.397 26.9 619.937 26.9C620.417 26.9 620.867 27.08 621.287 27.44C621.707 27.8 621.917 28.31 621.917 28.97V41.66C621.917 45.38 620.837 48.35 618.677 50.57C616.517 52.79 613.577 53.9 609.857 53.9C607.097 53.9 604.847 53.33 603.107 52.19C601.367 51.05 600.077 49.55 599.237 47.69C598.457 45.77 598.067 43.73 598.067 41.57V28.97C598.067 28.31 598.277 27.8 598.697 27.44C599.117 27.08 599.597 26.9 600.137 26.9C600.617 26.9 601.067 27.08 601.487 27.44C601.907 27.8 602.117 28.31 602.117 28.97V41.93C602.117 44.87 602.897 46.97 604.457 48.23C606.017 49.49 607.817 50.12 609.857 50.12C611.777 50.12 613.577 49.49 615.257 48.23C616.997 46.97 617.867 44.93 617.867 42.11V28.97ZM651.862 53.9C651.262 53.9 650.752 53.69 650.332 53.27C649.972 52.91 649.792 52.43 649.792 51.83V39.59C649.792 36.59 649.162 34.37 647.902 32.93C646.642 31.49 644.872 30.77 642.592 30.77C640.492 30.77 638.752 31.28 637.372 32.3C636.052 33.26 635.092 34.49 634.492 35.99C633.892 37.43 633.592 38.87 633.592 40.31V51.83C633.592 52.43 633.412 52.91 633.052 53.27C632.692 53.69 632.212 53.9 631.612 53.9C631.012 53.9 630.502 53.69 630.082 53.27C629.722 52.91 629.542 52.43 629.542 51.83V29.33C629.542 28.67 629.752 28.19 630.172 27.89C630.592 27.53 631.072 27.35 631.612 27.35C632.092 27.35 632.542 27.53 632.962 27.89C633.382 28.19 633.592 28.67 633.592 29.33V31.31C634.792 29.93 636.232 28.85 637.912 28.07C639.592 27.29 641.332 26.9 643.132 26.9C646.192 26.9 648.742 27.92 650.782 29.96C652.822 31.94 653.842 35.03 653.842 39.23V51.83C653.842 52.43 653.662 52.91 653.302 53.27C652.942 53.69 652.462 53.9 651.862 53.9ZM664.054 53.9C663.454 53.9 662.944 53.69 662.524 53.27C662.164 52.91 661.984 52.43 661.984 51.83V28.88C661.984 28.22 662.194 27.74 662.614 27.44C663.034 27.08 663.514 26.9 664.054 26.9C664.534 26.9 664.984 27.08 665.404 27.44C665.824 27.74 666.034 28.22 666.034 28.88V51.83C666.034 52.43 665.854 52.91 665.494 53.27C665.134 53.69 664.654 53.9 664.054 53.9ZM663.784 20.96C662.824 20.96 662.044 20.69 661.444 20.15C660.904 19.55 660.634 18.8 660.634 17.9C660.634 16.94 660.904 16.19 661.444 15.65C662.044 15.05 662.824 14.75 663.784 14.75C664.744 14.75 665.494 15.05 666.034 15.65C666.634 16.19 666.934 16.94 666.934 17.9C666.934 18.8 666.634 19.55 666.034 20.15C665.494 20.69 664.744 20.96 663.784 20.96ZM683.733 53.9C681.273 53.9 679.353 53.18 677.973 51.74C676.593 50.24 675.903 48.2 675.903 45.62V32.3C675.903 31.7 675.603 31.4 675.003 31.4H672.753C672.273 31.4 671.853 31.22 671.493 30.86C671.133 30.5 670.953 30.08 670.953 29.6C670.953 29.12 671.133 28.7 671.493 28.34C671.853 27.98 672.273 27.8 672.753 27.8H675.003C675.603 27.8 675.903 27.5 675.903 26.9V18.53C675.903 17.87 676.113 17.39 676.533 17.09C676.953 16.73 677.403 16.55 677.883 16.55C678.423 16.55 678.903 16.73 679.323 17.09C679.743 17.39 679.953 17.87 679.953 18.53V26.9C679.953 27.5 680.253 27.8 680.853 27.8H687.153C687.633 27.8 688.053 27.98 688.413 28.34C688.773 28.7 688.953 29.12 688.953 29.6C688.953 30.08 688.773 30.5 688.413 30.86C688.053 31.22 687.633 31.4 687.153 31.4H680.853C680.253 31.4 679.953 31.7 679.953 32.3V45.35C679.953 48.47 681.393 50.03 684.273 50.03C684.993 50.03 685.563 49.94 685.983 49.76C686.463 49.58 686.853 49.49 687.153 49.49C687.693 49.49 688.113 49.7 688.413 50.12C688.773 50.54 688.953 50.99 688.953 51.47C688.953 52.43 688.503 53.03 687.603 53.27C687.003 53.51 686.343 53.66 685.623 53.72C684.963 53.84 684.333 53.9 683.733 53.9ZM692.145 28.79C692.145 28.07 692.415 27.59 692.955 27.35C693.555 27.05 694.065 26.9 694.485 26.9C695.265 26.9 695.835 27.35 696.195 28.25L703.755 47.15C704.175 48.05 704.745 48.5 705.465 48.5C705.645 48.5 705.855 48.47 706.095 48.41C706.335 48.35 706.485 48.2 706.545 47.96L714.195 28.34C714.555 27.38 715.155 26.9 715.995 26.9C716.475 26.9 716.955 27.08 717.435 27.44C717.975 27.8 718.245 28.25 718.245 28.79C718.245 29.03 718.185 29.33 718.065 29.69L703.845 64.16C703.485 65.12 702.885 65.6 702.045 65.6C701.565 65.6 701.055 65.42 700.515 65.06C700.035 64.7 699.795 64.25 699.795 63.71C699.795 63.35 699.855 63.05 699.975 62.81L704.205 53.45C703.545 53.45 702.975 53.27 702.495 52.91C702.015 52.49 701.685 52.07 701.505 51.65L692.325 29.6C692.205 29.24 692.145 28.97 692.145 28.79Z" fill="white"/>
</svg>
