<svg width="885" height="254" viewBox="0 0 885 254" fill="none" xmlns="http://www.w3.org/2000/svg">
<path d="M633.943 183.64C636.943 183.64 639.483 184.92 639.483 187.02V187.8C639.483 189.9 636.943 191.2 633.943 191.2C630.943 191.2 628.403 189.9 628.403 187.8V187.02C628.403 184.86 630.943 183.64 633.943 183.64ZM633.943 190C636.083 190 638.123 189.18 638.123 187.76V187.08C638.123 185.66 636.083 184.84 633.943 184.84C631.803 184.84 629.763 185.66 629.763 187.08V187.76C629.763 189.18 631.803 190 633.943 190ZM629.863 178.52H629.843C629.783 178.86 629.163 179.48 628.283 180.32C627.583 180.98 626.403 181.98 625.303 182.86L624.423 181.84C625.503 181.04 626.763 180 627.663 179.1C628.923 177.84 629.063 177.32 629.063 175.82V173.26H630.503V175.78C630.503 177.26 630.623 177.74 631.963 178.94C632.943 179.8 634.003 180.64 634.883 181.28L634.043 182.26C632.983 181.46 632.103 180.74 631.423 180.16C630.503 179.38 629.963 178.84 629.863 178.52ZM633.863 176.56H637.983V172.44H639.383V183.22H637.983V177.8H633.863V176.56ZM648.806 178.24H648.786C648.666 178.5 648.166 178.92 647.506 179.38C646.486 180.08 645.026 180.94 644.066 181.48L643.306 180.42C644.926 179.52 646.326 178.66 647.006 178.12C647.906 177.42 648.046 176.98 648.046 175.9V175.48H643.906V174.26H648.046V172.28H649.446V174.26H653.586V175.48H649.446V175.86C649.446 176.94 649.566 177.36 650.526 178.1C651.166 178.58 652.486 179.36 653.846 180.12L653.146 181.16C652.086 180.56 651.006 179.92 650.146 179.36C649.546 178.96 648.926 178.52 648.806 178.24ZM657.766 172.44V190.72H656.346V172.44H657.766ZM654.946 182.3L655.066 183.52C653.246 183.7 651.546 183.8 649.346 183.88V190.14H647.906V183.94C646.466 183.96 644.826 183.98 642.846 183.98V182.74C648.626 182.74 652.266 182.6 654.946 182.3ZM666.069 186.52C663.309 186.52 661.749 184.6 661.749 182.74V181.66C661.749 179.8 663.309 177.86 666.069 177.86C668.829 177.86 670.389 179.8 670.389 181.66V182.74C670.389 184.6 668.829 186.52 666.069 186.52ZM666.069 179.12C664.269 179.12 663.089 180.28 663.089 181.78V182.62C663.089 184.12 664.269 185.28 666.069 185.28C667.869 185.28 669.049 184.12 669.049 182.62V181.78C669.049 180.28 667.869 179.12 666.069 179.12ZM674.909 172.44V179.92H677.949V181.18H674.909V190.72H673.489V172.44H674.909ZM660.749 175.32H665.369V172.54H666.789V175.32H671.349V176.56H660.749V175.32ZM681.492 180.42V184.92H684.012C686.032 184.92 688.212 184.82 690.072 184.52L690.232 185.74C688.112 186.08 685.832 186.18 683.652 186.18H680.092V179.18H686.012V175.16H680.092V173.92H687.412V180.42H681.492ZM688.892 176.5H692.672V172.44H694.092V190.72H692.672V182.22H688.892V180.94H692.672V177.78H688.892V176.5ZM697.075 181.9H713.875V183.12H697.075V181.9ZM700.975 185.04V189.26H711.755V190.5H699.555V185.04H700.975ZM701.055 173.14V178.12H711.495V179.36H699.635V173.14H701.055ZM722.798 173.14H734.558V179.48H729.378V181.74H737.078V182.94H720.278V181.74H727.978V179.48H722.798V173.14ZM724.178 174.34V178.28H733.178V174.34H724.178ZM722.418 186.26V185.04H734.658V190.86H733.258V186.26H722.418ZM744.381 178.82H744.361C744.281 179.12 743.641 179.78 742.801 180.52C742.101 181.14 740.741 182.22 739.821 182.88L738.961 181.88C740.141 181.04 741.421 180.06 742.401 179.1C743.381 178.14 743.601 177.44 743.601 176.36V174.76H739.481V173.54H748.941V174.76H745.021V176.3C745.021 177.48 745.161 178.02 746.461 179.14C747.101 179.68 748.221 180.52 749.361 181.28L748.541 182.26C747.721 181.7 746.781 181 746.181 180.52C745.241 179.76 744.461 179.08 744.381 178.82ZM741.921 185.36V184.12H753.681V190.86H752.281V185.36H741.921ZM753.681 172.44V183.04H752.281V178.26H748.461V177.02H752.281V172.44H753.681ZM761.124 186.12C758.484 186.12 757.224 184.22 757.224 180.8V179.24C757.224 175.82 758.484 173.92 761.124 173.92C763.764 173.92 765.024 175.82 765.024 179.24V179.34H767.484V172.82H768.884V189.82H767.484V180.6H765.024V180.8C765.024 184.22 763.764 186.12 761.124 186.12ZM761.124 175.22C759.344 175.22 758.584 176.66 758.584 179.4V180.64C758.584 183.38 759.344 184.82 761.124 184.82C762.904 184.82 763.664 183.38 763.664 180.64V179.4C763.664 176.66 762.904 175.22 761.124 175.22ZM772.404 172.44V190.72H771.004V172.44H772.404ZM793.608 182.82H794.988V190.7H783.828V182.82H785.208V185.34H793.608V182.82ZM785.908 178.34H785.888C785.828 178.6 785.328 179.1 784.428 179.84C783.708 180.42 782.388 181.42 781.248 182.16L780.448 181.12C781.648 180.36 782.788 179.54 783.728 178.76C784.888 177.78 785.128 177.28 785.128 175.92V174.76H780.968V173.54H790.528V174.76H786.548V175.74C786.548 177.32 786.668 177.6 788.048 178.64C788.888 179.28 789.928 179.98 790.928 180.58L790.148 181.58C789.328 181.06 788.408 180.42 787.628 179.86C786.668 179.16 786.008 178.6 785.908 178.34ZM785.208 189.44H793.608V186.58H785.208V189.44ZM794.988 172.44V181.74H793.588V172.44H794.988ZM798.091 181H814.891V182.2H807.191V184.24C809.891 184.4 812.171 185.48 812.171 187.42V187.98C812.171 190.06 809.491 191.2 806.491 191.2C803.491 191.2 800.811 190.06 800.811 187.98V187.4C800.811 185.46 803.071 184.4 805.791 184.24V182.2H798.091V181ZM806.471 176.88C806.251 177.32 805.331 177.82 804.091 178.34C802.951 178.82 801.831 179.24 800.051 179.84L799.491 178.74C801.311 178.14 802.671 177.64 803.671 177.2C805.311 176.48 805.771 175.92 805.771 174.88V174.38H800.291V173.18H812.691V174.38H807.191V174.88C807.191 175.92 807.631 176.5 809.271 177.2C810.251 177.62 811.771 178.18 813.451 178.72L812.931 179.82C811.291 179.28 809.911 178.76 808.871 178.32C807.631 177.82 806.711 177.3 806.491 176.88H806.471ZM806.491 190C808.631 190 810.811 189.32 810.811 187.9V187.5C810.811 186.08 808.631 185.4 806.491 185.4C804.351 185.4 802.171 186.1 802.171 187.48V187.9C802.171 189.32 804.351 190 806.491 190ZM821.694 186.52C818.934 186.52 817.374 184.6 817.374 182.74V181.66C817.374 179.8 818.934 177.86 821.694 177.86C824.454 177.86 826.014 179.8 826.014 181.66V182.74C826.014 184.6 824.454 186.52 821.694 186.52ZM821.694 179.12C819.894 179.12 818.714 180.28 818.714 181.78V182.62C818.714 184.12 819.894 185.28 821.694 185.28C823.494 185.28 824.674 184.12 824.674 182.62V181.78C824.674 180.28 823.494 179.12 821.694 179.12ZM830.534 172.44V179.92H833.574V181.18H830.534V190.72H829.114V172.44H830.534ZM816.374 175.32H820.994V172.54H822.414V175.32H826.974V176.56H816.374V175.32ZM834.497 186.92H840.877V179.9H842.317V186.92H851.297V188.14H834.497V186.92ZM848.077 184.58L846.597 184.4C847.057 181.94 847.317 179.74 847.317 177.06V175.4H836.617V174.16H848.777V176.32C848.777 179.68 848.557 182 848.077 184.58ZM588.776 203.12V204.36H584.636V207.28C584.636 208.8 584.756 209.44 585.816 210.66C586.596 211.56 587.776 212.74 589.256 214.06L588.336 215C586.956 213.72 585.996 212.74 585.196 211.88C584.616 211.26 584.056 210.64 583.956 210.38H583.936C583.836 210.74 583.056 211.64 582.476 212.26C581.936 212.82 580.596 214.24 579.396 215.28L578.456 214.34C579.716 213.22 580.856 212.12 581.776 211.08C583.036 209.66 583.216 208.9 583.216 207.38V204.36H579.016V203.12H588.776ZM593.156 201.44V219.72H591.736V201.44H593.156ZM602.859 201.52V204.22H607.099V205.46H602.859V207.58C602.859 209.1 602.979 209.74 604.039 210.96C604.819 211.86 605.999 213.04 607.479 214.36L606.559 215.3C605.179 214.02 604.219 213.04 603.419 212.18C602.839 211.56 602.279 210.94 602.179 210.68H602.159C602.059 211.04 601.279 211.94 600.699 212.56C600.159 213.12 598.819 214.54 597.619 215.58L596.679 214.64C597.939 213.52 599.079 212.42 599.999 211.38C601.259 209.96 601.439 209.2 601.439 207.68V205.46H597.079V204.22H601.439V201.52H602.859ZM611.359 201.44V219.72H609.939V201.44H611.359ZM625.183 203.12V204.36H621.043V207.28C621.043 208.8 621.163 209.44 622.223 210.66C623.003 211.56 624.183 212.74 625.663 214.06L624.743 215C623.363 213.72 622.403 212.74 621.603 211.88C621.023 211.26 620.463 210.64 620.363 210.38H620.343C620.243 210.74 619.463 211.64 618.883 212.26C618.343 212.82 617.003 214.24 615.803 215.28L614.863 214.34C616.123 213.22 617.263 212.12 618.183 211.08C619.442 209.66 619.623 208.9 619.623 207.38V204.36H615.423V203.12H625.183ZM629.563 201.44V219.72H628.143V201.44H629.563ZM642.466 210.44C639.726 210.44 638.026 208.5 638.026 206.74V205.74C638.026 203.96 639.726 202.04 642.466 202.04C645.206 202.04 646.906 203.98 646.906 205.74V206.74C646.906 208.5 645.206 210.44 642.466 210.44ZM642.466 203.3C640.626 203.3 639.386 204.56 639.386 205.88V206.6C639.386 207.92 640.626 209.18 642.466 209.18C644.306 209.18 645.546 207.92 645.546 206.6V205.88C645.546 204.56 644.306 203.3 642.466 203.3ZM645.726 217.76V217.24C645.726 215.92 647.126 214.88 649.146 214.88C651.166 214.88 652.566 215.92 652.566 217.24V217.76C652.566 219.08 651.166 220.12 649.146 220.12C647.126 220.12 645.726 219.08 645.726 217.76ZM651.826 201.44V205.5H654.626V206.74H651.826V210.12H650.426V201.44H651.826ZM641.226 212.34V218.32H642.066C642.946 218.32 644.146 218.26 644.986 218.12L645.126 219.32C644.266 219.46 643.006 219.54 641.806 219.54H639.826V212.34H641.226ZM649.846 211.04V212.94H653.266V214.06H644.986V212.94H648.446V211.04H649.846ZM651.306 217.68V217.32C651.306 216.56 650.406 215.98 649.146 215.98C647.886 215.98 646.986 216.56 646.986 217.32V217.68C646.986 218.44 647.886 219.02 649.146 219.02C650.406 219.02 651.306 218.44 651.306 217.68ZM655.669 210.9H672.469V212.12H655.669V210.9ZM659.569 214.04V218.26H670.349V219.5H658.149V214.04H659.569ZM659.649 202.14V207.12H670.089V208.36H658.229V202.14H659.649ZM684.892 208.52C682.452 208.52 680.492 207.24 680.492 205.54V204.78C680.492 203.08 682.452 201.8 684.892 201.8C687.332 201.8 689.292 203.08 689.292 204.78V205.54C689.292 207.24 687.332 208.52 684.892 208.52ZM688.492 212.46H692.612V201.44H694.012V215.64H692.612V213.7H688.492V212.46ZM684.892 203C683.212 203 681.832 203.86 681.832 204.9V205.42C681.832 206.46 683.212 207.32 684.892 207.32C686.572 207.32 687.952 206.46 687.952 205.42V204.9C687.952 203.86 686.572 203 684.892 203ZM683.752 214.66V218.26H694.432V219.5H682.332V214.66H683.752ZM691.092 209.38L691.212 210.6C689.412 210.78 687.712 210.9 685.352 210.98V213.88H683.932V211C682.592 211.04 681.052 211.04 679.212 211.04V209.82C684.972 209.82 687.652 209.74 691.092 209.38ZM705.475 213.12C708.475 213.12 711.155 214.22 711.155 216.32V217C711.155 219.1 708.475 220.2 705.475 220.2C702.475 220.2 699.795 219.1 699.795 217V216.32C699.795 214.18 702.475 213.12 705.475 213.12ZM697.075 210.46H704.775V208.16H699.615V202.18H711.275V203.38H700.995V206.96H711.375V208.16H706.175V210.46H713.875V211.66H697.075V210.46ZM705.475 219C707.635 219 709.795 218.26 709.795 216.92V216.4C709.795 215.06 707.635 214.32 705.475 214.32C703.315 214.32 701.155 215.06 701.155 216.4V216.92C701.155 218.26 703.315 219 705.475 219ZM717.838 207.56V210.38C721.278 210.38 723.798 210.34 726.238 210.06L726.378 211.28C723.918 211.56 721.518 211.62 716.458 211.62V206.36H722.518V203.56H716.458V202.32H723.898V207.56H717.838ZM725.298 204H729.118V201.44H730.498V212.6H729.118V208.44H725.298V207.22H729.118V205.22H725.298V204ZM718.738 214.92V213.68H730.498V219.88H729.118V214.92H718.738ZM737.921 215.12C735.281 215.12 734.021 213.22 734.021 209.8V208.24C734.021 204.82 735.281 202.92 737.921 202.92C740.561 202.92 741.821 204.82 741.821 208.24V208.34H744.281V201.82H745.681V218.82H744.281V209.6H741.821V209.8C741.821 213.22 740.561 215.12 737.921 215.12ZM737.921 204.22C736.141 204.22 735.381 205.66 735.381 208.4V209.64C735.381 212.38 736.141 213.82 737.921 213.82C739.701 213.82 740.461 212.38 740.461 209.64V208.4C740.461 205.66 739.701 204.22 737.921 204.22ZM749.201 201.44V219.72H747.801V201.44H749.201ZM760.584 219.7V213.54H771.764V219.7H760.584ZM762.244 205.64C765.024 205.64 766.444 207.12 766.444 208.58V209.22C766.444 210.68 765.024 212.16 762.244 212.16C759.464 212.16 758.044 210.68 758.044 209.22V208.58C758.044 207.12 759.464 205.64 762.244 205.64ZM761.924 214.8V218.44H770.424V214.8H761.924ZM762.244 210.98C764.144 210.98 765.104 210.02 765.104 209.14V208.66C765.104 207.78 764.144 206.82 762.244 206.82C760.344 206.82 759.384 207.76 759.384 208.66V209.14C759.384 210.02 760.344 210.98 762.244 210.98ZM762.944 201.22V203.5H767.624V204.72H756.984V203.5H761.544V201.22H762.944ZM771.764 201.44V212.46H770.364V201.44H771.764ZM774.888 209.62H791.688V210.82H774.888V209.62ZM789.008 204.64V205.24C789.008 207.12 786.508 208.26 783.288 208.26C780.067 208.26 777.568 207.12 777.568 205.24V204.64C777.568 202.74 780.067 201.62 783.288 201.62C786.508 201.62 789.008 202.76 789.008 204.64ZM778.948 204.7V205.18C778.948 206.26 780.888 207.08 783.288 207.08C785.688 207.08 787.628 206.26 787.628 205.18V204.7C787.628 203.62 785.688 202.8 783.288 202.8C780.888 202.8 778.948 203.62 778.948 204.7ZM777.308 212.42H789.188V216.68H778.788V218.62H789.728V219.8H777.408V215.52H787.808V213.6H777.308V212.42ZM811.031 202.84H812.411V211.96H807.191V215.92H814.891V217.14H798.091V215.92H805.791V211.96H800.571V202.84H801.951V206.12H811.031V202.84ZM801.951 210.78H811.031V207.34H801.951V210.78ZM827.974 201.82V208.22H830.574V201.44H831.974V219.72H830.574V209.48H827.974V218.82H826.574V201.82H827.974ZM817.174 203.04H824.194V204.3H818.594V208.12H823.694V209.36H818.594V213.64H819.914C821.634 213.64 823.114 213.6 825.134 213.3L825.294 214.54C823.214 214.86 821.374 214.9 819.634 214.9H817.174V203.04ZM835.537 203.12H843.997V205.84H848.337V201.44H849.717V219.72H848.337V211.92H843.997V214.86H835.537V203.12ZM842.597 213.58V204.4H836.937V213.58H842.597ZM843.997 207.12V210.64H848.337V207.12H843.997ZM584.956 233.3V232.08H597.556V233.3H591.976V234C591.976 236.06 592.356 236.52 594.276 237.8C595.196 238.4 596.756 239.3 598.436 240.14L597.716 241.2C596.316 240.48 594.676 239.54 593.496 238.78C592.116 237.88 591.456 237.36 591.276 236.98H591.256C591.096 237.36 590.416 237.9 589.036 238.8C587.856 239.56 586.196 240.52 584.776 241.26L584.036 240.16C585.716 239.32 587.316 238.4 588.236 237.8C590.156 236.52 590.536 236.06 590.536 234V233.3H584.956ZM582.856 244.92H590.536V240.72H591.976V244.92H599.656V246.14H582.856V244.92ZM612.839 243.56L612.959 244.78C609.659 245.12 607.239 245.24 601.119 245.24V244C603.139 244 604.799 244 606.239 243.96V241.68C604.019 241.48 602.499 240.12 602.499 238.64V237.88C602.499 236.24 604.299 234.82 606.839 234.82C609.379 234.82 611.179 236.26 611.179 237.88V238.64C611.179 240.06 609.759 241.38 607.659 241.66V243.92C609.619 243.86 611.199 243.74 612.839 243.56ZM615.639 230.44V237.98H618.539V239.24H615.639V248.72H614.219V230.44H615.639ZM606.839 236.02C605.039 236.02 603.839 237 603.839 237.98V238.54C603.839 239.52 605.039 240.52 606.839 240.52C608.639 240.52 609.839 239.52 609.839 238.54V237.98C609.839 237 608.639 236.02 606.839 236.02ZM607.539 230.28V232.56H611.999V233.8H601.499V232.56H606.139V230.28H607.539ZM621.663 241.94H633.563V245.96H623.143V247.64H634.103V248.82H621.763V244.8H632.183V243.12H621.663V241.94ZM619.263 239.16H636.063V240.36H619.263V239.16ZM621.723 232.1V230.92H633.463V234.86H623.123V236.46H633.863V237.64H621.783V233.7H632.123V232.1H621.723ZM657.546 230.44V248.72H656.126V230.44H657.546ZM652.506 237.04V238.92C652.506 242.26 650.826 244.24 647.986 244.24C645.146 244.24 643.466 242.26 643.466 238.92V237.02C643.466 233.68 645.146 231.72 647.986 231.72C650.826 231.72 652.506 233.7 652.506 237.04ZM651.126 238.68V237.28C651.126 234.24 649.866 233.04 647.986 233.04C646.106 233.04 644.846 234.24 644.846 237.28V238.68C644.846 241.72 646.106 242.94 647.986 242.94C649.866 242.94 651.126 241.72 651.126 238.68ZM660.669 239H677.469V240.2H669.769V242.02H674.969V246H664.549V247.64H675.509V248.82H663.169V244.84H673.589V243.2H663.069V242.02H668.369V240.2H660.669V239ZM663.129 232.14V230.96H674.869V234.82H664.529V236.34H675.269V237.52H663.189V233.66H673.529V232.14H663.129ZM699.032 230.44V248.74H697.652V241.06H693.232C692.652 243.08 691.172 244.2 689.032 244.2C686.212 244.2 684.532 242.24 684.532 238.9V237.02C684.532 233.7 686.212 231.74 689.032 231.74C691.152 231.74 692.632 232.88 693.232 234.86H697.652V230.44H699.032ZM692.152 238.66V237.28C692.152 234.24 690.912 233.06 689.032 233.06C687.152 233.06 685.912 234.24 685.912 237.28V238.66C685.912 241.7 687.152 242.9 689.032 242.9C690.912 242.9 692.152 241.7 692.152 238.66ZM693.532 237.04V238.9C693.532 239.2 693.512 239.5 693.492 239.78H697.652V236.14H693.492C693.512 236.44 693.532 236.74 693.532 237.04ZM704.695 238.42V242.92H707.355C709.375 242.92 711.555 242.82 713.415 242.52L713.575 243.74C711.455 244.08 709.175 244.18 706.995 244.18H703.295V237.18H709.535V233.16H703.295V231.92H710.935V238.42H704.695ZM712.355 236.9H715.895V230.44H717.295V248.72H715.895V238.18H712.355V236.9ZM734.578 230.96V237.92H722.778V230.96H724.158V233.24H733.198V230.96H734.578ZM720.278 240.04H737.078V241.24H729.578V244.92H728.178V241.24H720.278V240.04ZM724.178 243.3V247.26H734.978V248.5H722.758V243.3H724.178ZM724.158 234.42V236.7H733.198V234.42H724.158ZM738.481 238.62H755.281V239.82H738.481V238.62ZM752.601 233.64V234.24C752.601 236.12 750.101 237.26 746.881 237.26C743.661 237.26 741.161 236.12 741.161 234.24V233.64C741.161 231.74 743.661 230.62 746.881 230.62C750.101 230.62 752.601 231.76 752.601 233.64ZM742.541 233.7V234.18C742.541 235.26 744.481 236.08 746.881 236.08C749.281 236.08 751.221 235.26 751.221 234.18V233.7C751.221 232.62 749.281 231.8 746.881 231.8C744.481 231.8 742.541 232.62 742.541 233.7ZM740.901 241.42H752.781V245.68H742.381V247.62H753.321V248.8H741.001V244.52H751.401V242.6H740.901V241.42ZM776.724 230.44V248.72H775.304V230.44H776.724ZM763.364 244.56L762.624 243.42C768.764 239.9 769.464 238.72 769.464 235.74V233.44H762.824V232.16H770.844V235.76C770.844 239.4 769.864 240.76 763.364 244.56ZM780.908 243.84V232.1H789.228V233.38H782.328V242.56H784.688C786.728 242.56 788.668 242.44 790.908 242.06L791.088 243.32C788.968 243.7 786.568 243.84 784.327 243.84H780.908ZM794.068 230.44V237.22H797.108V238.48H794.068V248.72H792.648V230.44H794.068ZM811.811 241.26H813.191V248.72H802.031V241.26H803.411V243.62H811.811V241.26ZM800.771 236.2V238.66C804.951 238.66 807.131 238.58 809.511 238.3L809.631 239.52C807.431 239.8 804.811 239.9 799.391 239.9V235H805.931V232.56H799.391V231.32H807.311V236.2H800.771ZM803.411 247.46H811.811V244.86H803.411V247.46ZM813.191 230.44V240.18H811.791V230.44H813.191ZM831.414 230.44V248.72H829.994V230.44H831.414ZM819.294 231.94V242.42H821.914C823.834 242.42 825.834 242.3 828.014 241.92L828.194 243.18C826.054 243.56 823.674 243.7 821.774 243.7H817.874V231.94H819.294ZM835.517 243.84V232.1H843.837V233.38H836.937V242.56H839.297C841.337 242.56 843.277 242.44 845.517 242.06L845.697 243.32C843.577 243.7 841.177 243.84 838.937 243.84H835.517ZM848.677 230.44V237.22H851.717V238.48H848.677V248.72H847.257V230.44H848.677Z" fill="white"/>
<path d="M355.352 150.17V138.47H372.002V140.3H357.422V143.39H371.732V145.19H357.422V148.34H372.512V150.17H355.352ZM352.022 137.15L351.242 135.41C360.752 131.75 361.562 130.67 361.562 126.65V125.75H352.142V123.89H363.632V126.77C363.632 131.87 362.012 133.34 352.022 137.15ZM371.942 122.66V128.48H376.142V130.34H371.942V136.7H369.842V122.66H371.942ZM400.387 122.66V150.08H398.257V122.66H400.387ZM392.827 132.56V135.38C392.827 140.39 390.307 143.36 386.047 143.36C381.787 143.36 379.267 140.39 379.267 135.38V132.53C379.267 127.52 381.787 124.58 386.047 124.58C390.307 124.58 392.827 127.55 392.827 132.56ZM390.757 135.02V132.92C390.757 128.36 388.867 126.56 386.047 126.56C383.227 126.56 381.337 128.36 381.337 132.92V135.02C381.337 139.58 383.227 141.41 386.047 141.41C388.867 141.41 390.757 139.58 390.757 135.02ZM433.811 122.66V132.71H438.371V134.6H433.811V150.08H431.681V122.66H433.811ZM416.591 124.91V140.63H419.981C422.861 140.63 425.861 140.45 429.131 139.88L429.401 141.77C426.191 142.34 422.621 142.55 419.771 142.55H414.461V124.91H416.591ZM454.336 132.56V135.35C454.336 140.36 451.816 143.3 447.586 143.3C443.356 143.3 440.836 140.36 440.836 135.35V132.53C440.836 127.55 443.356 124.61 447.586 124.61C451.816 124.61 454.336 127.58 454.336 132.56ZM452.266 134.99V132.92C452.266 128.36 450.406 126.59 447.586 126.59C444.766 126.59 442.906 128.36 442.906 132.92V134.99C442.906 139.55 444.766 141.35 447.586 141.35C450.406 141.35 452.266 139.55 452.266 134.99ZM461.176 122.66V132.95H465.736V134.84H461.176V150.08H459.046V122.66H461.176ZM471.981 137.9H488.661V144.92H474.201V148.37H489.381V150.17H472.131V143.15H486.591V139.73H471.981V137.9ZM468.741 137.12L467.961 135.38C477.471 131.72 478.281 130.7 478.281 126.65V125.75H468.861V123.89H480.351V126.77C480.351 131.9 478.731 133.31 468.741 137.12ZM488.661 122.66V128.45H492.861V130.31H488.661V136.28H486.561V122.66H488.661ZM501.986 138.41H527.186V140.24H515.666V150.08H513.536V140.24H501.986V138.41ZM518.096 132.59C516.116 131.6 514.916 130.76 514.586 130.07H514.556C514.196 130.76 513.026 131.63 511.046 132.62C509.426 133.43 507.086 134.51 504.656 135.47L503.726 133.79C505.946 132.95 508.436 131.84 510.356 130.85C512.666 129.68 513.506 128.69 513.506 126.02V123.62H515.636V126.02C515.636 128.69 516.446 129.68 518.756 130.85C520.676 131.84 523.106 132.92 525.326 133.76L524.426 135.41C521.996 134.45 519.716 133.4 518.096 132.59ZM542.88 124.07V135.56H530.64V124.07H542.88ZM541.68 147.14V146.36C541.68 144.38 543.78 142.82 546.81 142.82C549.84 142.82 551.94 144.38 551.94 146.36V147.14C551.94 149.12 549.84 150.68 546.81 150.68C543.78 150.68 541.68 149.12 541.68 147.14ZM540.84 133.7V125.93H532.68V133.7H540.84ZM550.83 122.66V128.03H555.03V129.89H550.83V135.68H548.73V122.66H550.83ZM534.93 139.01V147.98H536.19C537.51 147.98 539.31 147.89 540.57 147.68L540.78 149.48C539.49 149.69 537.6 149.81 535.8 149.81H532.83V139.01H534.93ZM547.86 137.06V139.91H552.99V141.59H540.57V139.91H545.76V137.06H547.86ZM550.05 147.02V146.48C550.05 145.34 548.7 144.47 546.81 144.47C544.92 144.47 543.57 145.34 543.57 146.48V147.02C543.57 148.16 544.92 149.03 546.81 149.03C548.7 149.03 550.05 148.16 550.05 147.02ZM556.595 137.09H581.795V138.92H556.595V137.09ZM562.445 141.68V147.89H578.645V149.75H560.315V141.68H562.445ZM569.195 134.57C564.305 134.57 560.585 132.56 560.585 129.5V128.36C560.585 125.3 564.305 123.29 569.195 123.29C574.085 123.29 577.805 125.3 577.805 128.36V129.5C577.805 132.56 574.085 134.57 569.195 134.57ZM569.195 125.09C565.685 125.09 562.625 126.53 562.625 128.51V129.35C562.625 131.33 565.685 132.77 569.195 132.77C572.705 132.77 575.765 131.33 575.765 129.35V128.51C575.765 126.53 572.705 125.09 569.195 125.09ZM597.31 150.05V139.91H614.08V150.05H597.31ZM593.35 136.85V123.98H606.19V125.84H595.42V129.5H605.65V131.33H595.42V134.99C601.99 134.99 605.08 134.93 608.98 134.48L609.19 136.31C605.44 136.79 601.84 136.85 593.35 136.85ZM599.35 141.8V148.16H612.04V141.8H599.35ZM614.08 122.66V138.29H611.98V122.66H614.08ZM627.734 133.28C624.074 133.28 621.134 131.36 621.134 128.81V127.67C621.134 125.12 624.074 123.2 627.734 123.2C631.394 123.2 634.334 125.12 634.334 127.67V128.81C634.334 131.36 631.394 133.28 627.734 133.28ZM633.134 139.19H639.314V122.66H641.414V143.96H639.314V141.05H633.134V139.19ZM627.734 125C625.214 125 623.144 126.29 623.144 127.85V128.63C623.144 130.19 625.214 131.48 627.734 131.48C630.254 131.48 632.324 130.19 632.324 128.63V127.85C632.324 126.29 630.254 125 627.734 125ZM626.024 142.49V147.89H642.044V149.75H623.894V142.49H626.024ZM637.034 134.57L637.214 136.4C634.514 136.67 631.964 136.85 628.424 136.97V141.32H626.294V137C624.284 137.06 621.974 137.06 619.214 137.06V135.23C627.854 135.23 631.874 135.11 637.034 134.57ZM667.309 123.53V125.33H651.889V130.16H667.459V131.96H649.819V123.53H667.309ZM649.609 139.07H667.459V145.49H651.829V148.43H668.269V150.2H649.759V143.75H665.389V140.84H649.609V139.07ZM646.009 134.6H671.209V136.4H646.009V134.6ZM673.314 134.93H698.514V136.73H673.314V134.93ZM694.494 127.46V128.36C694.494 131.18 690.744 132.89 685.914 132.89C681.084 132.89 677.334 131.18 677.334 128.36V127.46C677.334 124.61 681.084 122.93 685.914 122.93C690.744 122.93 694.494 124.64 694.494 127.46ZM679.404 127.55V128.27C679.404 129.89 682.314 131.12 685.914 131.12C689.514 131.12 692.424 129.89 692.424 128.27V127.55C692.424 125.93 689.514 124.7 685.914 124.7C682.314 124.7 679.404 125.93 679.404 127.55ZM676.944 139.13H694.764V145.52H679.164V148.43H695.574V150.2H677.094V143.78H692.694V140.9H676.944V139.13ZM721.708 124.37V137.3H709.468V124.37H721.708ZM719.668 135.44V126.23H711.508V135.44H719.668ZM729.658 122.66V130.67H733.858V132.53H729.658V142.28H727.558V122.66H729.658ZM715.378 140.72V147.89H730.498V149.75H713.248V140.72H715.378ZM756.663 122.66V132.71H761.223V134.6H756.663V150.08H754.533V122.66H756.663ZM739.443 124.91V140.63H742.833C745.713 140.63 748.713 140.45 751.983 139.88L752.253 141.77C749.043 142.34 745.473 142.55 742.623 142.55H737.313V124.91H739.443ZM782.138 124.76H784.208V138.44H776.378V144.38H787.928V146.21H762.728V144.38H774.278V138.44H766.448V124.76H768.518V129.68H782.138V124.76ZM768.518 136.67H782.138V131.51H768.518V136.67ZM801.162 131.84H806.172V123.23H808.272V148.73H806.172V133.76H801.162V131.84ZM795.762 131V124.85H797.892V131C797.892 133.85 798.222 134.84 799.752 136.79C800.742 138.05 802.212 139.67 803.922 141.35L802.512 142.73C801.012 141.2 799.542 139.55 798.522 138.38C797.622 137.36 796.992 136.4 796.872 136.07H796.842C796.752 136.4 796.242 137.24 795.312 138.35C794.202 139.67 792.822 141.17 790.902 143.06L789.462 141.65C791.262 139.94 793.062 138.02 793.992 136.82C795.432 134.96 795.762 133.73 795.762 131ZM813.642 122.66V150.08H811.542V122.66H813.642ZM820.907 132.23V130.76C820.907 126.86 825.017 124.31 829.937 124.31C834.827 124.31 838.967 126.86 838.967 130.76V132.23C838.967 134.33 837.737 136.07 835.877 137.18V144.38H842.537V146.21H817.337V144.38H823.997V137.18C822.107 136.07 820.907 134.36 820.907 132.23ZM829.937 126.26C826.037 126.26 823.007 128.15 823.007 130.85V132.14C823.007 134.84 826.037 136.73 829.937 136.73C833.807 136.73 836.867 134.84 836.867 132.14V130.85C836.867 128.15 833.807 126.26 829.937 126.26ZM829.937 138.68C828.557 138.68 827.267 138.47 826.097 138.11V144.38H833.777V138.11C832.607 138.5 831.287 138.68 829.937 138.68ZM846.352 147.62V144.68H849.232V147.62H846.352ZM848.662 141.56H846.922L846.562 124.58H849.022L848.662 141.56Z" fill="#536B82"/>
<path d="M28.08 53.2C23.44 53.2 19.2 52.12 15.36 49.96C11.6 47.72 8.6 44.72 6.36 40.96C4.12 37.12 3 32.8 3 28C3 22.96 4.12 18.56 6.36 14.8C8.6 11.04 11.6 8.12 15.36 6.04C19.2 3.88 23.44 2.8 28.08 2.8C32.72 2.8 36.88 3.88 40.56 6.04C44.32 8.12 47.28 11.04 49.44 14.8C51.68 18.56 52.8 22.96 52.8 28C52.8 32.8 51.68 37.12 49.44 40.96C47.28 44.72 44.32 47.72 40.56 49.96C36.88 52.12 32.72 53.2 28.08 53.2ZM28.08 45.88C31.28 45.88 34.08 45.08 36.48 43.48C38.96 41.8 40.88 39.6 42.24 36.88C43.6 34.16 44.28 31.2 44.28 28C44.28 22.88 42.76 18.64 39.72 15.28C36.68 11.92 32.8 10.24 28.08 10.24C23.28 10.24 19.36 11.92 16.32 15.28C13.28 18.64 11.76 22.88 11.76 28C11.76 31.2 12.44 34.16 13.8 36.88C15.16 39.6 17.08 41.8 19.56 43.48C22.04 45.08 24.88 45.88 28.08 45.88ZM73.1513 52.9C71.2313 52.9 69.4613 52.54 67.8413 51.82C66.2813 51.04 64.9613 49.99 63.8813 48.67V50.38C63.8813 50.98 63.7013 51.49 63.3413 51.91C62.9813 52.27 62.5013 52.45 61.9013 52.45C61.3013 52.45 60.7913 52.27 60.3713 51.91C60.0113 51.49 59.8313 50.98 59.8313 50.38V15.28C59.8313 14.62 60.0413 14.14 60.4613 13.84C60.8813 13.48 61.3613 13.3 61.9013 13.3C62.3813 13.3 62.8313 13.48 63.2513 13.84C63.6713 14.14 63.8813 14.62 63.8813 15.28V29.95C66.2213 27.25 69.3113 25.9 73.1513 25.9C76.8713 25.9 79.9313 27.16 82.3313 29.68C84.7313 32.14 85.9313 35.32 85.9313 39.22C85.9313 43.24 84.7313 46.54 82.3313 49.12C79.9313 51.64 76.8713 52.9 73.1513 52.9ZM73.1513 49.21C75.7313 49.21 77.8013 48.25 79.3613 46.33C80.9813 44.41 81.7913 42.04 81.7913 39.22C81.7913 36.52 80.9813 34.24 79.3613 32.38C77.8013 30.52 75.7313 29.59 73.1513 29.59C70.3913 29.59 68.1413 30.4 66.4013 32.02C64.7213 33.64 63.8813 36.04 63.8813 39.22C63.8813 42.52 64.7213 45.01 66.4013 46.69C68.1413 48.37 70.3913 49.21 73.1513 49.21ZM89.6423 64.6C89.2223 64.6 88.7423 64.54 88.2023 64.42C87.6023 64.36 87.0923 64.24 86.6723 64.06C86.1323 63.82 85.8023 63.43 85.6823 62.89C85.5023 62.41 85.4723 61.96 85.5923 61.54C85.7123 61.12 85.9823 60.76 86.4023 60.46C86.8223 60.22 87.3323 60.16 87.9323 60.28C88.2923 60.4 88.6523 60.49 89.0123 60.55C89.4323 60.61 89.7923 60.64 90.0923 60.64C91.2923 60.64 92.2523 60.22 92.9723 59.38C93.6923 58.6 94.0523 57.31 94.0523 55.51V27.88C94.0523 27.22 94.2623 26.74 94.6823 26.44C95.1023 26.08 95.5823 25.9 96.1223 25.9C96.6023 25.9 97.0523 26.08 97.4723 26.44C97.8923 26.74 98.1023 27.22 98.1023 27.88V55.69C98.1023 58.51 97.3223 60.7 95.7623 62.26C94.2023 63.82 92.1623 64.6 89.6423 64.6ZM95.8523 19.96C94.8923 19.96 94.1123 19.69 93.5123 19.15C92.9723 18.55 92.7023 17.8 92.7023 16.9C92.7023 15.94 92.9723 15.19 93.5123 14.65C94.1123 14.05 94.8923 13.75 95.8523 13.75C96.8123 13.75 97.5623 14.05 98.1023 14.65C98.7023 15.19 99.0023 15.94 99.0023 16.9C99.0023 17.8 98.7023 18.55 98.1023 19.15C97.5623 19.69 96.8123 19.96 95.8523 19.96ZM118.748 52.9C114.548 52.9 111.188 51.67 108.668 49.21C106.148 46.69 104.888 43.24 104.888 38.86C104.888 36.46 105.428 34.3 106.508 32.38C107.587 30.4 109.088 28.84 111.008 27.7C112.988 26.5 115.298 25.9 117.938 25.9C120.698 25.9 122.978 26.5 124.778 27.7C126.578 28.84 127.898 30.28 128.738 32.02C129.638 33.7 130.088 35.38 130.088 37.06C130.088 38.08 129.848 38.92 129.368 39.58C128.948 40.24 128.318 40.57 127.478 40.57H110.198C109.838 40.57 109.568 40.6 109.388 40.66C109.268 40.72 109.208 40.93 109.208 41.29C109.208 42.31 109.538 43.42 110.198 44.62C110.858 45.82 111.788 46.87 112.988 47.77C114.248 48.61 115.688 49.09 117.308 49.21C119.048 49.33 120.758 49.15 122.438 48.67C124.118 48.19 125.618 47.44 126.938 46.42C127.238 46.18 127.568 46.06 127.928 46.06C128.348 46.06 128.738 46.24 129.098 46.6C129.518 46.96 129.728 47.41 129.728 47.95C129.728 48.49 129.458 49.03 128.918 49.57C127.478 50.71 125.858 51.55 124.058 52.09C122.258 52.63 120.488 52.9 118.748 52.9ZM124.418 37.42C124.898 37.42 125.258 37.24 125.498 36.88C125.738 36.46 125.798 35.95 125.678 35.35C125.498 33.79 124.688 32.41 123.248 31.21C121.808 29.95 120.038 29.32 117.938 29.32C116.378 29.32 114.938 29.71 113.618 30.49C112.358 31.21 111.338 32.14 110.558 33.28C109.778 34.42 109.388 35.62 109.388 36.88C109.388 37.18 109.658 37.33 110.198 37.33L124.418 37.42ZM149.492 52.9C146.852 52.9 144.542 52.3 142.562 51.1C140.582 49.84 139.052 48.19 137.972 46.15C136.892 44.05 136.352 41.74 136.352 39.22C136.352 36.64 136.922 34.36 138.062 32.38C139.262 30.34 140.852 28.75 142.832 27.61C144.812 26.47 147.032 25.9 149.492 25.9C153.152 25.9 156.092 26.71 158.312 28.33C158.852 28.69 159.122 29.23 159.122 29.95C159.122 31.15 158.522 31.75 157.322 31.75C157.202 31.75 157.052 31.75 156.872 31.75C156.692 31.69 156.512 31.63 156.332 31.57C155.552 31.09 154.592 30.61 153.452 30.13C152.372 29.65 151.142 29.41 149.762 29.41C147.002 29.41 144.752 30.37 143.012 32.29C141.272 34.15 140.402 36.49 140.402 39.31C140.402 42.07 141.212 44.35 142.832 46.15C144.512 47.89 146.642 48.91 149.222 49.21C150.842 49.27 152.402 48.97 153.902 48.31C155.462 47.65 156.752 46.84 157.772 45.88C158.132 45.58 158.522 45.43 158.942 45.43C159.422 45.43 159.812 45.64 160.112 46.06C160.472 46.42 160.652 46.84 160.652 47.32C160.652 47.8 160.382 48.37 159.842 49.03C158.522 50.23 157.022 51.19 155.342 51.91C153.662 52.57 151.712 52.9 149.492 52.9ZM176.6 52.9C174.14 52.9 172.22 52.18 170.84 50.74C169.46 49.24 168.77 47.2 168.77 44.62V31.3C168.77 30.7 168.47 30.4 167.87 30.4H165.62C165.14 30.4 164.72 30.22 164.36 29.86C164 29.5 163.82 29.08 163.82 28.6C163.82 28.12 164 27.7 164.36 27.34C164.72 26.98 165.14 26.8 165.62 26.8H167.87C168.47 26.8 168.77 26.5 168.77 25.9V17.53C168.77 16.87 168.98 16.39 169.4 16.09C169.82 15.73 170.27 15.55 170.75 15.55C171.29 15.55 171.77 15.73 172.19 16.09C172.61 16.39 172.82 16.87 172.82 17.53V25.9C172.82 26.5 173.12 26.8 173.72 26.8H180.02C180.5 26.8 180.92 26.98 181.28 27.34C181.64 27.7 181.82 28.12 181.82 28.6C181.82 29.08 181.64 29.5 181.28 29.86C180.92 30.22 180.5 30.4 180.02 30.4H173.72C173.12 30.4 172.82 30.7 172.82 31.3V44.35C172.82 47.47 174.26 49.03 177.14 49.03C177.86 49.03 178.43 48.94 178.85 48.76C179.33 48.58 179.72 48.49 180.02 48.49C180.56 48.49 180.98 48.7 181.28 49.12C181.64 49.54 181.82 49.99 181.82 50.47C181.82 51.43 181.37 52.03 180.47 52.27C179.87 52.51 179.21 52.66 178.49 52.72C177.83 52.84 177.2 52.9 176.6 52.9ZM190.232 52.9C189.632 52.9 189.122 52.69 188.702 52.27C188.342 51.91 188.162 51.43 188.162 50.83V27.88C188.162 27.22 188.372 26.74 188.792 26.44C189.212 26.08 189.692 25.9 190.232 25.9C190.712 25.9 191.162 26.08 191.582 26.44C192.002 26.74 192.212 27.22 192.212 27.88V50.83C192.212 51.43 192.032 51.91 191.672 52.27C191.312 52.69 190.832 52.9 190.232 52.9ZM189.962 19.96C189.002 19.96 188.222 19.69 187.622 19.15C187.082 18.55 186.812 17.8 186.812 16.9C186.812 15.94 187.082 15.19 187.622 14.65C188.222 14.05 189.002 13.75 189.962 13.75C190.922 13.75 191.672 14.05 192.212 14.65C192.812 15.19 193.112 15.94 193.112 16.9C193.112 17.8 192.812 18.55 192.212 19.15C191.672 19.69 190.922 19.96 189.962 19.96ZM210.18 52.9C209.58 52.9 208.95 52.69 208.29 52.27C207.69 51.85 207.24 51.31 206.94 50.65L197.76 28.6C197.64 28.24 197.58 27.97 197.58 27.79C197.58 27.07 197.85 26.56 198.39 26.26C198.99 25.96 199.5 25.81 199.92 25.81C200.7 25.81 201.27 26.26 201.63 27.16L209.19 46.15C209.37 46.57 209.7 46.78 210.18 46.78C210.66 46.78 210.99 46.57 211.17 46.15L218.73 27.25C219.09 26.35 219.69 25.9 220.53 25.9C221.13 25.9 221.64 26.08 222.06 26.44C222.54 26.74 222.78 27.19 222.78 27.79C222.78 27.97 222.72 28.24 222.6 28.6L213.42 50.65C213.18 51.31 212.73 51.85 212.07 52.27C211.47 52.69 210.84 52.9 210.18 52.9ZM239.773 52.9C235.573 52.9 232.213 51.67 229.693 49.21C227.173 46.69 225.913 43.24 225.913 38.86C225.913 36.46 226.453 34.3 227.533 32.38C228.613 30.4 230.113 28.84 232.033 27.7C234.013 26.5 236.323 25.9 238.963 25.9C241.723 25.9 244.003 26.5 245.803 27.7C247.603 28.84 248.923 30.28 249.763 32.02C250.663 33.7 251.113 35.38 251.113 37.06C251.113 38.08 250.873 38.92 250.393 39.58C249.973 40.24 249.343 40.57 248.503 40.57H231.223C230.863 40.57 230.593 40.6 230.413 40.66C230.293 40.72 230.233 40.93 230.233 41.29C230.233 42.31 230.563 43.42 231.223 44.62C231.883 45.82 232.813 46.87 234.013 47.77C235.273 48.61 236.713 49.09 238.333 49.21C240.073 49.33 241.783 49.15 243.463 48.67C245.143 48.19 246.643 47.44 247.963 46.42C248.263 46.18 248.593 46.06 248.953 46.06C249.373 46.06 249.763 46.24 250.123 46.6C250.543 46.96 250.753 47.41 250.753 47.95C250.753 48.49 250.483 49.03 249.943 49.57C248.503 50.71 246.883 51.55 245.083 52.09C243.283 52.63 241.513 52.9 239.773 52.9ZM245.443 37.42C245.923 37.42 246.283 37.24 246.523 36.88C246.763 36.46 246.823 35.95 246.703 35.35C246.523 33.79 245.713 32.41 244.273 31.21C242.833 29.95 241.063 29.32 238.963 29.32C237.403 29.32 235.963 29.71 234.643 30.49C233.383 31.21 232.363 32.14 231.583 33.28C230.803 34.42 230.413 35.62 230.413 36.88C230.413 37.18 230.683 37.33 231.223 37.33L245.443 37.42ZM261.719 58.39C261.599 58.81 261.359 59.11 260.999 59.29C260.699 59.53 260.399 59.65 260.099 59.65C259.139 59.65 258.689 59.02 258.749 57.76L259.649 48.67C259.769 47.95 260.039 47.44 260.459 47.14C260.939 46.78 261.449 46.6 261.989 46.6C262.709 46.6 263.369 46.87 263.969 47.41C264.569 47.89 264.749 48.64 264.509 49.66L261.719 58.39ZM309.108 53.28C307.743 53.28 306.634 52.896 305.78 52.128C305.012 51.36 304.628 50.3787 304.628 49.184V11.936C304.628 9.80266 303.519 8.736 301.3 8.736H293.236C290.591 8.736 289.268 7.41333 289.268 4.768C289.268 2.12267 290.591 0.799999 293.236 0.799999H324.852C326.047 0.799999 327.028 1.184 327.796 1.952C328.564 2.63466 328.948 3.57333 328.948 4.768C328.948 5.96266 328.564 6.944 327.796 7.712C327.028 8.39466 326.047 8.736 324.852 8.736H316.916C314.698 8.736 313.588 9.80266 313.588 11.936V49.184C313.588 50.3787 313.162 51.36 312.308 52.128C311.54 52.896 310.474 53.28 309.108 53.28ZM346.798 52.9C342.598 52.9 339.238 51.67 336.718 49.21C334.198 46.69 332.938 43.24 332.938 38.86C332.938 36.46 333.478 34.3 334.558 32.38C335.638 30.4 337.138 28.84 339.058 27.7C341.038 26.5 343.348 25.9 345.988 25.9C348.748 25.9 351.028 26.5 352.828 27.7C354.628 28.84 355.948 30.28 356.788 32.02C357.688 33.7 358.138 35.38 358.138 37.06C358.138 38.08 357.898 38.92 357.418 39.58C356.998 40.24 356.368 40.57 355.528 40.57H338.248C337.888 40.57 337.618 40.6 337.438 40.66C337.318 40.72 337.258 40.93 337.258 41.29C337.258 42.31 337.588 43.42 338.248 44.62C338.908 45.82 339.838 46.87 341.038 47.77C342.298 48.61 343.738 49.09 345.358 49.21C347.098 49.33 348.808 49.15 350.488 48.67C352.168 48.19 353.668 47.44 354.988 46.42C355.288 46.18 355.618 46.06 355.978 46.06C356.398 46.06 356.788 46.24 357.148 46.6C357.568 46.96 357.778 47.41 357.778 47.95C357.778 48.49 357.508 49.03 356.968 49.57C355.528 50.71 353.908 51.55 352.108 52.09C350.308 52.63 348.538 52.9 346.798 52.9ZM352.468 37.42C352.948 37.42 353.308 37.24 353.548 36.88C353.788 36.46 353.848 35.95 353.728 35.35C353.548 33.79 352.738 32.41 351.298 31.21C349.858 29.95 348.088 29.32 345.988 29.32C344.428 29.32 342.988 29.71 341.668 30.49C340.408 31.21 339.388 32.14 338.608 33.28C337.828 34.42 337.438 35.62 337.438 36.88C337.438 37.18 337.708 37.33 338.248 37.33L352.468 37.42ZM377.183 52.9C373.463 52.9 370.403 51.64 368.003 49.12C365.603 46.54 364.403 43.24 364.403 39.22C364.403 35.32 365.603 32.14 368.003 29.68C370.403 27.16 373.463 25.9 377.183 25.9C381.023 25.9 384.113 27.25 386.453 29.95V28.33C386.453 27.67 386.663 27.19 387.083 26.89C387.503 26.53 387.953 26.35 388.433 26.35C388.973 26.35 389.453 26.53 389.873 26.89C390.293 27.19 390.503 27.67 390.503 28.33V50.83C390.503 51.43 390.293 51.91 389.873 52.27C389.513 52.69 389.033 52.9 388.433 52.9C387.833 52.9 387.353 52.69 386.993 52.27C386.633 51.91 386.453 51.43 386.453 50.83V48.67C385.373 49.99 384.023 51.04 382.403 51.82C380.843 52.54 379.103 52.9 377.183 52.9ZM377.183 49.21C380.003 49.21 382.253 48.37 383.933 46.69C385.613 45.01 386.453 42.52 386.453 39.22C386.453 36.04 385.613 33.64 383.933 32.02C382.253 30.4 380.003 29.59 377.183 29.59C374.603 29.59 372.503 30.52 370.883 32.38C369.323 34.24 368.543 36.52 368.543 39.22C368.543 42.04 369.323 44.41 370.883 46.33C372.503 48.25 374.603 49.21 377.183 49.21ZM400.255 52.9C399.655 52.9 399.145 52.69 398.725 52.27C398.365 51.91 398.185 51.43 398.185 50.83V28.33C398.185 27.67 398.395 27.19 398.815 26.89C399.235 26.53 399.715 26.35 400.255 26.35C400.735 26.35 401.185 26.53 401.605 26.89C402.025 27.19 402.235 27.67 402.235 28.33V30.22C403.255 28.78 404.545 27.7 406.105 26.98C407.725 26.26 409.375 25.9 411.055 25.9C413.035 25.9 414.805 26.38 416.365 27.34C417.985 28.3 419.215 29.77 420.055 31.75C421.195 29.47 422.695 27.94 424.555 27.16C426.475 26.32 428.275 25.9 429.955 25.9C432.775 25.9 435.145 26.89 437.065 28.87C439.045 30.85 440.035 33.97 440.035 38.23V50.83C440.035 51.43 439.855 51.91 439.495 52.27C439.135 52.69 438.655 52.9 438.055 52.9C437.455 52.9 436.945 52.69 436.525 52.27C436.165 51.91 435.985 51.43 435.985 50.83V38.5C435.985 35.44 435.385 33.22 434.185 31.84C433.045 30.46 431.455 29.77 429.415 29.77C427.375 29.77 425.755 30.28 424.555 31.3C423.355 32.26 422.485 33.46 421.945 34.9C421.405 36.34 421.135 37.81 421.135 39.31V50.83C421.135 51.43 420.955 51.91 420.595 52.27C420.235 52.69 419.755 52.9 419.155 52.9C418.555 52.9 418.045 52.69 417.625 52.27C417.265 51.91 417.085 51.43 417.085 50.83V38.59C417.085 35.53 416.485 33.31 415.285 31.93C414.145 30.49 412.555 29.77 410.515 29.77C408.475 29.77 406.855 30.28 405.655 31.3C404.455 32.26 403.585 33.49 403.045 34.99C402.505 36.43 402.235 37.87 402.235 39.31V50.83C402.235 51.43 402.055 51.91 401.695 52.27C401.335 52.69 400.855 52.9 400.255 52.9ZM454.438 52.9C452.638 52.9 451.468 52 450.928 50.2L444.178 28.69C444.118 28.51 444.088 28.24 444.088 27.88C444.088 27.34 444.268 26.89 444.628 26.53C445.048 26.11 445.558 25.9 446.158 25.9C447.178 25.9 447.808 26.35 448.048 27.25L453.538 46.6C453.718 47.2 454.018 47.5 454.438 47.5C454.858 47.5 455.158 47.2 455.338 46.6L460.198 29.59C460.318 29.11 460.648 28.72 461.188 28.42C461.728 28.06 462.328 27.88 462.988 27.88C463.648 27.88 464.248 28.06 464.788 28.42C465.328 28.72 465.658 29.11 465.778 29.59L470.638 46.6C470.818 47.2 471.118 47.5 471.538 47.5C471.958 47.5 472.258 47.2 472.438 46.6L477.928 27.34C478.168 26.38 478.828 25.9 479.908 25.9C480.448 25.9 480.898 26.08 481.258 26.44C481.678 26.74 481.888 27.19 481.888 27.79C481.888 28.09 481.858 28.33 481.798 28.51L475.048 50.2C474.508 52 473.338 52.9 471.538 52.9C469.678 52.9 468.508 52 468.028 50.2L463.708 34.54C463.588 34.06 463.348 33.82 462.988 33.82C462.688 33.82 462.448 34.06 462.268 34.54L457.948 50.2C457.468 52 456.298 52.9 454.438 52.9ZM499.186 52.9C496.666 52.9 494.416 52.3 492.436 51.1C490.456 49.9 488.866 48.28 487.666 46.24C486.526 44.14 485.956 41.8 485.956 39.22C485.956 36.64 486.526 34.36 487.666 32.38C488.866 30.4 490.456 28.84 492.436 27.7C494.416 26.5 496.666 25.9 499.186 25.9C501.706 25.9 503.956 26.5 505.936 27.7C507.976 28.84 509.566 30.4 510.706 32.38C511.906 34.36 512.506 36.64 512.506 39.22C512.506 41.8 511.906 44.14 510.706 46.24C509.566 48.28 507.976 49.9 505.936 51.1C503.956 52.3 501.706 52.9 499.186 52.9ZM499.186 49.21C502.006 49.21 504.256 48.25 505.936 46.33C507.616 44.41 508.456 42.04 508.456 39.22C508.456 36.52 507.616 34.24 505.936 32.38C504.256 30.52 502.006 29.59 499.186 29.59C496.426 29.59 494.206 30.52 492.526 32.38C490.906 34.24 490.096 36.52 490.096 39.22C490.096 42.04 490.906 44.41 492.526 46.33C494.206 48.25 496.426 49.21 499.186 49.21ZM523.348 39.31V50.83C523.348 51.43 523.168 51.91 522.808 52.27C522.448 52.69 521.968 52.9 521.368 52.9C520.768 52.9 520.258 52.69 519.838 52.27C519.478 51.91 519.298 51.43 519.298 50.83V28.33C519.298 27.67 519.508 27.19 519.928 26.89C520.348 26.53 520.828 26.35 521.368 26.35C521.848 26.35 522.298 26.53 522.718 26.89C523.138 27.19 523.348 27.67 523.348 28.33V30.49C524.068 28.99 525.268 27.85 526.948 27.07C528.628 26.29 530.218 25.9 531.718 25.9C532.618 25.9 533.518 26.05 534.418 26.35C535.018 26.53 535.438 26.86 535.678 27.34C535.978 27.82 536.038 28.36 535.858 28.96C535.438 30.16 534.628 30.64 533.428 30.4C532.348 30.1 531.448 29.95 530.728 29.95C528.388 29.95 526.558 30.85 525.238 32.65C523.978 34.39 523.348 36.61 523.348 39.31ZM542.989 52.9C542.389 52.9 541.879 52.69 541.459 52.27C541.099 51.91 540.919 51.43 540.919 50.83V15.28C540.919 14.62 541.129 14.14 541.549 13.84C541.969 13.48 542.449 13.3 542.989 13.3C543.469 13.3 543.919 13.48 544.339 13.84C544.759 14.14 544.969 14.62 544.969 15.28V33.37C544.969 34.39 545.269 34.9 545.869 34.9C546.169 34.9 546.469 34.78 546.769 34.54L558.829 26.17C559.189 25.99 559.549 25.9 559.909 25.9C560.449 25.9 560.899 26.11 561.259 26.53C561.679 26.89 561.889 27.37 561.889 27.97C561.889 28.69 561.529 29.29 560.809 29.77L550.639 36.43C550.219 36.73 550.009 37.06 550.009 37.42C550.009 37.78 550.219 38.17 550.639 38.59L561.529 49.12C561.769 49.3 561.919 49.51 561.979 49.75C562.039 49.99 562.069 50.23 562.069 50.47C562.069 51.07 561.859 51.58 561.439 52C561.019 52.42 560.479 52.63 559.819 52.63C559.459 52.63 559.069 52.48 558.649 52.18L546.679 40.03C546.259 39.61 545.899 39.4 545.599 39.4C545.179 39.4 544.969 39.91 544.969 40.93V50.83C544.969 51.43 544.789 51.91 544.429 52.27C544.069 52.69 543.589 52.9 542.989 52.9ZM571.772 58.39C571.652 58.81 571.412 59.11 571.052 59.29C570.752 59.53 570.452 59.65 570.152 59.65C569.192 59.65 568.742 59.02 568.802 57.76L569.702 48.67C569.822 47.95 570.092 47.44 570.512 47.14C570.992 46.78 571.502 46.6 572.042 46.6C572.762 46.6 573.422 46.87 574.022 47.41C574.622 47.89 574.802 48.64 574.562 49.66L571.772 58.39ZM608.281 53.28C607.001 53.28 605.934 52.896 605.081 52.128C604.228 51.36 603.801 50.3787 603.801 49.184V4.384C603.801 3.104 604.228 2.08 605.081 1.312C605.934 0.543996 607.001 0.159996 608.281 0.159996C609.646 0.159996 610.713 0.543996 611.481 1.312C612.334 2.08 612.761 3.104 612.761 4.384V17.312C612.761 19.872 613.956 21.152 616.345 21.152H634.777C637.166 21.152 638.361 19.872 638.361 17.312V4.384C638.361 3.104 638.745 2.08 639.513 1.312C640.366 0.543996 641.476 0.159996 642.841 0.159996C644.206 0.159996 645.273 0.543996 646.041 1.312C646.894 2.08 647.321 3.104 647.321 4.384V49.184C647.321 50.3787 646.894 51.36 646.041 52.128C645.273 52.896 644.206 53.28 642.841 53.28C641.476 53.28 640.366 52.896 639.513 52.128C638.745 51.36 638.361 50.3787 638.361 49.184V32.928C638.361 30.368 637.166 29.088 634.777 29.088H616.345C613.956 29.088 612.761 30.368 612.761 32.928V49.184C612.761 50.3787 612.334 51.36 611.481 52.128C610.713 52.896 609.646 53.28 608.281 53.28ZM668.521 52.9C664.801 52.9 661.741 51.64 659.341 49.12C656.941 46.54 655.741 43.24 655.741 39.22C655.741 35.32 656.941 32.14 659.341 29.68C661.741 27.16 664.801 25.9 668.521 25.9C672.361 25.9 675.451 27.25 677.791 29.95V28.33C677.791 27.67 678.001 27.19 678.421 26.89C678.841 26.53 679.291 26.35 679.771 26.35C680.311 26.35 680.791 26.53 681.211 26.89C681.631 27.19 681.841 27.67 681.841 28.33V50.83C681.841 51.43 681.631 51.91 681.211 52.27C680.851 52.69 680.371 52.9 679.771 52.9C679.171 52.9 678.691 52.69 678.331 52.27C677.971 51.91 677.791 51.43 677.791 50.83V48.67C676.711 49.99 675.361 51.04 673.741 51.82C672.181 52.54 670.441 52.9 668.521 52.9ZM668.521 49.21C671.341 49.21 673.591 48.37 675.271 46.69C676.951 45.01 677.791 42.52 677.791 39.22C677.791 36.04 676.951 33.64 675.271 32.02C673.591 30.4 671.341 29.59 668.521 29.59C665.941 29.59 663.841 30.52 662.221 32.38C660.661 34.24 659.881 36.52 659.881 39.22C659.881 42.04 660.661 44.41 662.221 46.33C663.841 48.25 665.941 49.21 668.521 49.21ZM693.573 39.31V50.83C693.573 51.43 693.393 51.91 693.033 52.27C692.673 52.69 692.193 52.9 691.593 52.9C690.993 52.9 690.483 52.69 690.063 52.27C689.703 51.91 689.523 51.43 689.523 50.83V28.33C689.523 27.67 689.733 27.19 690.153 26.89C690.573 26.53 691.053 26.35 691.593 26.35C692.073 26.35 692.523 26.53 692.943 26.89C693.363 27.19 693.573 27.67 693.573 28.33V30.49C694.293 28.99 695.493 27.85 697.173 27.07C698.853 26.29 700.443 25.9 701.943 25.9C702.843 25.9 703.743 26.05 704.643 26.35C705.243 26.53 705.663 26.86 705.903 27.34C706.203 27.82 706.263 28.36 706.083 28.96C705.663 30.16 704.853 30.64 703.653 30.4C702.573 30.1 701.673 29.95 700.953 29.95C698.613 29.95 696.783 30.85 695.463 32.65C694.203 34.39 693.573 36.61 693.573 39.31ZM713.214 52.9C712.614 52.9 712.104 52.69 711.684 52.27C711.324 51.91 711.144 51.43 711.144 50.83V28.33C711.144 27.67 711.354 27.19 711.774 26.89C712.194 26.53 712.674 26.35 713.214 26.35C713.694 26.35 714.144 26.53 714.564 26.89C714.984 27.19 715.194 27.67 715.194 28.33V30.22C716.214 28.78 717.504 27.7 719.064 26.98C720.684 26.26 722.334 25.9 724.014 25.9C725.994 25.9 727.764 26.38 729.324 27.34C730.944 28.3 732.174 29.77 733.014 31.75C734.154 29.47 735.654 27.94 737.514 27.16C739.434 26.32 741.234 25.9 742.914 25.9C745.734 25.9 748.104 26.89 750.024 28.87C752.004 30.85 752.994 33.97 752.994 38.23V50.83C752.994 51.43 752.814 51.91 752.454 52.27C752.094 52.69 751.614 52.9 751.014 52.9C750.414 52.9 749.904 52.69 749.484 52.27C749.124 51.91 748.944 51.43 748.944 50.83V38.5C748.944 35.44 748.344 33.22 747.144 31.84C746.004 30.46 744.414 29.77 742.374 29.77C740.334 29.77 738.714 30.28 737.514 31.3C736.314 32.26 735.444 33.46 734.904 34.9C734.364 36.34 734.094 37.81 734.094 39.31V50.83C734.094 51.43 733.914 51.91 733.554 52.27C733.194 52.69 732.714 52.9 732.114 52.9C731.514 52.9 731.004 52.69 730.584 52.27C730.224 51.91 730.044 51.43 730.044 50.83V38.59C730.044 35.53 729.444 33.31 728.244 31.93C727.104 30.49 725.514 29.77 723.474 29.77C721.434 29.77 719.814 30.28 718.614 31.3C717.414 32.26 716.544 33.49 716.004 34.99C715.464 36.43 715.194 37.87 715.194 39.31V50.83C715.194 51.43 715.014 51.91 714.654 52.27C714.294 52.69 713.814 52.9 713.214 52.9ZM772.506 52.9C769.986 52.9 767.736 52.3 765.756 51.1C763.776 49.9 762.186 48.28 760.986 46.24C759.846 44.14 759.276 41.8 759.276 39.22C759.276 36.64 759.846 34.36 760.986 32.38C762.186 30.4 763.776 28.84 765.756 27.7C767.736 26.5 769.986 25.9 772.506 25.9C775.026 25.9 777.276 26.5 779.256 27.7C781.296 28.84 782.886 30.4 784.026 32.38C785.226 34.36 785.826 36.64 785.826 39.22C785.826 41.8 785.226 44.14 784.026 46.24C782.886 48.28 781.296 49.9 779.256 51.1C777.276 52.3 775.026 52.9 772.506 52.9ZM772.506 49.21C775.326 49.21 777.576 48.25 779.256 46.33C780.936 44.41 781.776 42.04 781.776 39.22C781.776 36.52 780.936 34.24 779.256 32.38C777.576 30.52 775.326 29.59 772.506 29.59C769.746 29.59 767.526 30.52 765.846 32.38C764.226 34.24 763.416 36.52 763.416 39.22C763.416 42.04 764.226 44.41 765.846 46.33C767.526 48.25 769.746 49.21 772.506 49.21ZM814.938 52.9C814.338 52.9 813.828 52.69 813.408 52.27C813.048 51.91 812.868 51.43 812.868 50.83V38.59C812.868 35.59 812.238 33.37 810.978 31.93C809.718 30.49 807.948 29.77 805.668 29.77C803.568 29.77 801.828 30.28 800.448 31.3C799.128 32.26 798.168 33.49 797.568 34.99C796.968 36.43 796.668 37.87 796.668 39.31V50.83C796.668 51.43 796.488 51.91 796.128 52.27C795.768 52.69 795.288 52.9 794.688 52.9C794.088 52.9 793.578 52.69 793.158 52.27C792.798 51.91 792.618 51.43 792.618 50.83V28.33C792.618 27.67 792.828 27.19 793.248 26.89C793.668 26.53 794.148 26.35 794.688 26.35C795.168 26.35 795.618 26.53 796.038 26.89C796.458 27.19 796.668 27.67 796.668 28.33V30.31C797.868 28.93 799.308 27.85 800.988 27.07C802.668 26.29 804.408 25.9 806.208 25.9C809.268 25.9 811.818 26.92 813.858 28.96C815.898 30.94 816.918 34.03 816.918 38.23V50.83C816.918 51.43 816.738 51.91 816.378 52.27C816.018 52.69 815.538 52.9 814.938 52.9ZM821.911 27.79C821.911 27.07 822.181 26.59 822.721 26.35C823.321 26.05 823.831 25.9 824.251 25.9C825.031 25.9 825.601 26.35 825.961 27.25L833.521 46.15C833.941 47.05 834.511 47.5 835.231 47.5C835.411 47.5 835.621 47.47 835.861 47.41C836.101 47.35 836.251 47.2 836.311 46.96L843.961 27.34C844.321 26.38 844.921 25.9 845.761 25.9C846.241 25.9 846.721 26.08 847.201 26.44C847.741 26.8 848.011 27.25 848.011 27.79C848.011 28.03 847.951 28.33 847.831 28.69L833.611 63.16C833.251 64.12 832.651 64.6 831.811 64.6C831.331 64.6 830.821 64.42 830.281 64.06C829.801 63.7 829.561 63.25 829.561 62.71C829.561 62.35 829.621 62.05 829.741 61.81L833.971 52.45C833.311 52.45 832.741 52.27 832.261 51.91C831.781 51.49 831.451 51.07 831.271 50.65L822.091 28.6C821.971 28.24 821.911 27.97 821.911 27.79Z" fill="white"/>
</svg>
