<svg width="753" height="263" viewBox="0 0 753 263" fill="none" xmlns="http://www.w3.org/2000/svg">
<path d="M15.12 124.37V129.32H21.75V122.66H23.85V140.12H21.75V131.18H15.12V136.37H2.76V124.37H15.12ZM13.11 134.51V126.23H4.77V134.51H13.11ZM14.16 141.32V138.89H16.26V141.32C16.26 143.81 17.07 144.71 19.41 145.91C20.97 146.72 23.25 147.71 25.05 148.43L24.18 150.14C22.23 149.33 20.1 148.31 18.75 147.62C16.77 146.63 15.57 145.76 15.21 145.01C14.85 145.76 13.65 146.63 11.67 147.62C10.32 148.31 8.19 149.33 6.24 150.14L5.34 148.43C7.14 147.71 9.45 146.72 11.01 145.91C13.23 144.77 14.16 143.81 14.16 141.32ZM37.3847 132.95H37.3547C37.2347 133.4 36.2747 134.39 35.0147 135.5C33.9647 136.43 31.9247 138.05 30.4847 139.07L29.1947 137.57C31.0547 136.28 32.9447 134.81 34.4147 133.37C35.8847 131.93 36.2147 130.88 36.2147 129.26V126.29H29.9747V124.46H44.3147V126.29H38.3447V129.17C38.3447 130.94 38.5547 131.75 40.5047 133.43C41.4647 134.24 43.1447 135.5 44.9147 136.67L43.6847 138.17C42.4547 137.3 40.9847 136.22 40.0847 135.5C38.6747 134.36 37.5047 133.34 37.3847 132.95ZM36.3347 140.66V147.89H51.6947V149.75H34.2047V140.66H36.3347ZM51.0047 122.66V142.25H48.9047V122.66H51.0047ZM68.9794 138.02H85.8994V144.98H71.1994V148.37H86.6194V150.17H69.1294V143.21H83.8294V139.85H68.9794V138.02ZM65.0794 137.12L64.2994 135.38C73.8094 131.72 74.6194 130.7 74.6194 126.65V125.75H65.1994V123.89H76.6894V126.77C76.6894 131.9 75.0694 133.31 65.0794 137.12ZM77.9194 131.27H83.8294V127.88H78.3694V126.05H83.8294V122.66H85.8994V136.4H83.8294V133.1H77.9194V131.27ZM112.334 122.66V133.1H116.684V134.99H112.334V150.08H110.204V122.66H112.334ZM108.104 141.2L108.284 143.03C103.334 143.54 99.7341 143.72 90.5541 143.72V141.86C92.7441 141.86 94.6341 141.86 96.3441 141.83V133.1H98.4741V141.8C102.344 141.71 105.134 141.53 108.104 141.2ZM91.9341 125.3H105.614V128.63C105.614 131.51 105.374 135.68 104.894 137.63L102.764 137.36C103.304 134.93 103.484 131.6 103.484 129.05V127.19H91.9341V125.3ZM121.369 139.91H139.219V145.94H123.589V148.46H140.029V150.23H121.519V144.2H137.149V141.68H121.369V139.91ZM117.769 135.74H142.969V137.54H117.769V135.74ZM121.459 125.15V123.38H139.069V129.29H123.559V131.69H139.669V133.46H121.549V127.55H137.059V125.15H121.459ZM157.673 150.05V140.78H174.143V150.05H157.673ZM160.763 128.96C164.933 128.96 167.033 131.18 167.033 133.37V134.33C167.033 136.52 164.933 138.74 160.763 138.74C156.593 138.74 154.493 136.52 154.493 134.33V133.37C154.493 131.18 156.593 128.96 160.763 128.96ZM159.713 142.67V148.16H172.103V142.67H159.713ZM160.763 136.97C163.613 136.97 165.023 135.53 165.023 134.21V133.49C165.023 132.17 163.613 130.73 160.763 130.73C157.913 130.73 156.503 132.14 156.503 133.49V134.21C156.503 135.53 157.913 136.97 160.763 136.97ZM174.143 122.66V130.04H178.343V131.9H174.143V139.16H172.043V122.66H174.143ZM161.813 122.27V125.75H168.683V127.58H152.903V125.75H159.713V122.27H161.813ZM187.228 144.56L185.668 143.3C190.528 137.3 190.978 135.98 190.978 132.11V127.28H187.858V125.39H193.018V133.01H196.678V123.23H198.718V148.73H196.678V134.87H192.868C192.508 137.69 191.278 139.61 187.228 144.56ZM203.818 122.66V150.08H201.748V122.66H203.818ZM180.868 142.25L179.368 140.96C184.378 135.44 184.648 134.06 184.648 130.19V127.28H180.628V125.39H186.688V130.28C186.688 134.93 186.118 136.25 180.868 142.25ZM237.303 122.66V150.08H235.173V122.66H237.303ZM229.743 132.56V135.38C229.743 140.39 227.223 143.36 222.963 143.36C218.703 143.36 216.183 140.39 216.183 135.38V132.53C216.183 127.52 218.703 124.58 222.963 124.58C227.223 124.58 229.743 127.55 229.743 132.56ZM227.673 135.02V132.92C227.673 128.36 225.783 126.56 222.963 126.56C220.143 126.56 218.253 128.36 218.253 132.92V135.02C218.253 139.58 220.143 141.41 222.963 141.41C225.783 141.41 227.673 139.58 227.673 135.02ZM258.668 133.28V135.17H244.538V128.57H255.698V125.72H244.508V123.86H257.798V130.43H246.638V133.28H258.668ZM256.208 142.22H262.838V122.66H264.968V150.08H262.838V144.11H256.208V142.22ZM260.768 137.3L260.948 139.13C258.158 139.4 255.548 139.58 252.098 139.7V149.21H249.938V139.76C247.838 139.79 245.438 139.82 242.558 139.82V137.96C251.228 137.96 256.748 137.75 260.768 137.3ZM286.212 123.02V129.95H290.292V122.66H292.362V142.1H290.292V131.84H286.212V141.44H284.142V123.02H286.212ZM277.032 140.66V147.89H292.962V149.75H274.902V140.66H277.032ZM270.462 124.46H272.562V135.23C276.612 135.23 278.862 135.02 281.802 134.54L282.042 136.37C279.162 136.85 276.792 137.09 270.462 137.09V124.46ZM310.007 150.05V139.91H326.777V150.05H310.007ZM306.047 136.85V123.98H318.887V125.84H308.117V129.5H318.347V131.33H308.117V134.99C314.687 134.99 317.777 134.93 321.677 134.48L321.887 136.31C318.137 136.79 314.537 136.85 306.047 136.85ZM312.047 141.8V148.16H324.737V141.8H312.047ZM326.777 122.66V138.29H324.677V122.66H326.777ZM340.432 133.28C336.772 133.28 333.832 131.36 333.832 128.81V127.67C333.832 125.12 336.772 123.2 340.432 123.2C344.092 123.2 347.032 125.12 347.032 127.67V128.81C347.032 131.36 344.092 133.28 340.432 133.28ZM345.832 139.19H352.012V122.66H354.112V143.96H352.012V141.05H345.832V139.19ZM340.432 125C337.912 125 335.842 126.29 335.842 127.85V128.63C335.842 130.19 337.912 131.48 340.432 131.48C342.952 131.48 345.022 130.19 345.022 128.63V127.85C345.022 126.29 342.952 125 340.432 125ZM338.722 142.49V147.89H354.742V149.75H336.592V142.49H338.722ZM349.732 134.57L349.912 136.4C347.212 136.67 344.662 136.85 341.122 136.97V141.32H338.992V137C336.982 137.06 334.672 137.06 331.912 137.06V135.23C340.552 135.23 344.572 135.11 349.732 134.57ZM358.706 134.93H383.906V136.73H358.706V134.93ZM379.886 127.46V128.36C379.886 131.18 376.136 132.89 371.306 132.89C366.476 132.89 362.726 131.18 362.726 128.36V127.46C362.726 124.61 366.476 122.93 371.306 122.93C376.136 122.93 379.886 124.64 379.886 127.46ZM364.796 127.55V128.27C364.796 129.89 367.706 131.12 371.306 131.12C374.906 131.12 377.816 129.89 377.816 128.27V127.55C377.816 125.93 374.906 124.7 371.306 124.7C367.706 124.7 364.796 125.93 364.796 127.55ZM362.336 139.13H380.156V145.52H364.556V148.43H380.966V150.2H362.486V143.78H378.086V140.9H362.336V139.13ZM408.181 139.7C412.681 139.7 416.491 141.53 416.491 144.68V145.82C416.491 148.97 412.681 150.8 408.181 150.8C403.681 150.8 399.871 148.97 399.871 145.82V144.68C399.871 141.47 403.681 139.7 408.181 139.7ZM410.581 135.17L410.761 136.94C405.751 137.45 399.901 137.45 394.231 137.45V135.65H397.141V126.2H394.411V124.4H409.381V126.2H406.351V135.5C407.791 135.41 409.201 135.32 410.581 135.17ZM408.181 149C411.391 149 414.451 147.83 414.451 145.7V144.8C414.451 142.67 411.391 141.5 408.181 141.5C404.971 141.5 401.911 142.67 401.911 144.8V145.7C401.911 147.83 404.971 149 408.181 149ZM409.501 127.34H414.271V122.66H416.341V139.07H414.271V133.43H409.501V131.63H414.271V129.14H409.501V127.34ZM399.181 135.65C400.951 135.65 402.661 135.62 404.311 135.56V126.2H399.181V135.65ZM441.996 122.66V133.13H446.556V135.02H441.996V150.08H439.866V122.66H441.996ZM422.736 143.78L421.626 142.07C430.836 136.79 431.826 135.05 431.826 130.58V127.19H421.926V125.27H433.896V130.61C433.896 136.07 432.486 138.08 422.736 143.78ZM466 123.23V133.16H469.84V122.66H471.94V150.08H469.84V135.05H466V148.73H463.9V123.23H466ZM455.23 143.09C451.39 143.09 449.26 140.42 449.26 137.72V136.46C449.26 133.76 451.39 131.09 455.23 131.09C459.07 131.09 461.2 133.76 461.2 136.46V137.72C461.2 140.39 459.07 143.09 455.23 143.09ZM455.23 132.95C452.8 132.95 451.27 134.75 451.27 136.61V137.57C451.27 139.43 452.8 141.23 455.23 141.23C457.66 141.23 459.19 139.43 459.19 137.57V136.61C459.19 134.75 457.66 132.95 455.23 132.95ZM448.21 129.32V127.46H454.15V123.44H456.25V127.46H461.8V129.32H448.21ZM491.565 132.92C489.585 131.93 488.415 131.12 488.055 130.4H488.025C487.695 131.12 486.495 131.96 484.515 132.95C482.895 133.76 480.765 134.78 478.275 135.74L477.345 134.06C479.565 133.22 481.905 132.17 483.825 131.18C486.705 129.68 486.975 128.45 486.975 126.44V126.17H478.665V124.37H497.385V126.17H489.105V126.44C489.105 128.45 489.315 129.68 492.225 131.18C494.145 132.17 496.425 133.19 498.645 134.03L497.745 135.68C495.495 134.81 493.305 133.79 491.565 132.92ZM475.425 138.44H500.625V140.27H489.105V150.08H486.975V140.27H475.425V138.44ZM513.86 131.84H518.87V123.23H520.97V148.73H518.87V133.76H513.86V131.84ZM508.46 131V124.85H510.59V131C510.59 133.85 510.92 134.84 512.45 136.79C513.44 138.05 514.91 139.67 516.62 141.35L515.21 142.73C513.71 141.2 512.24 139.55 511.22 138.38C510.32 137.36 509.69 136.4 509.57 136.07H509.54C509.45 136.4 508.94 137.24 508.01 138.35C506.9 139.67 505.52 141.17 503.6 143.06L502.16 141.65C503.96 139.94 505.76 138.02 506.69 136.82C508.13 134.96 508.46 133.73 508.46 131ZM526.34 122.66V150.08H524.24V122.66H526.34ZM533.604 132.23V130.76C533.604 126.86 537.714 124.31 542.634 124.31C547.524 124.31 551.664 126.86 551.664 130.76V132.23C551.664 134.33 550.434 136.07 548.574 137.18V144.38H555.234V146.21H530.034V144.38H536.694V137.18C534.804 136.07 533.604 134.36 533.604 132.23ZM542.634 126.26C538.734 126.26 535.704 128.15 535.704 130.85V132.14C535.704 134.84 538.734 136.73 542.634 136.73C546.504 136.73 549.564 134.84 549.564 132.14V130.85C549.564 128.15 546.504 126.26 542.634 126.26ZM542.634 138.68C541.254 138.68 539.964 138.47 538.794 138.11V144.38H546.474V138.11C545.304 138.5 543.984 138.68 542.634 138.68ZM559.049 147.62V144.68H561.929V147.62H559.049ZM561.359 141.56H559.619L559.259 124.58H561.719L561.359 141.56Z" fill="#536B82"/>
<path d="M9.1 179.04H9.08C8.92 179.44 8.18 180.12 6.74 181.08C5.54 181.88 3.9 182.86 2.46 183.64L1.7 182.52C3.44 181.62 4.98 180.7 5.92 180.06C7.9 178.72 8.36 178.1 8.36 175.94V173.74H9.82V175.94C9.82 178.1 10.26 178.72 12.24 180.06C13.18 180.7 14.7 181.6 16.42 182.5L15.68 183.6C14.26 182.82 12.64 181.86 11.44 181.06C10 180.1 9.28 179.44 9.1 179.04ZM0.7 186.92H17.5V188.14H0.7V186.92ZM21.4031 173.54H33.2031V180.66H21.4031V173.54ZM22.8031 174.78V179.42H31.8031V174.78H22.8031ZM18.9031 183.22H35.7031V184.44H28.0231V190.72H26.6031V184.44H18.9031V183.22ZM52.1863 172.44V190.72H50.7663V172.44H52.1863ZM38.4263 185.88V174.08H47.1063V175.36H39.8463V184.6H42.5463C44.5863 184.6 46.5263 184.48 48.7663 184.1L48.9463 185.36C46.8263 185.74 44.4263 185.88 42.1863 185.88H38.4263ZM59.7494 186.12C57.1094 186.12 55.8494 184.22 55.8494 180.8V179.24C55.8494 175.82 57.1094 173.92 59.7494 173.92C62.3894 173.92 63.6494 175.82 63.6494 179.24V179.34H66.1094V172.82H67.5094V189.82H66.1094V180.6H63.6494V180.8C63.6494 184.22 62.3894 186.12 59.7494 186.12ZM59.7494 175.22C57.9694 175.22 57.2094 176.66 57.2094 179.4V180.64C57.2094 183.38 57.9694 184.82 59.7494 184.82C61.5294 184.82 62.2894 183.38 62.2894 180.64V179.4C62.2894 176.66 61.5294 175.22 59.7494 175.22ZM71.0294 172.44V190.72H69.6294V172.44H71.0294ZM88.6525 172.44V190.72H87.2525V179.52H82.9125V178.24H87.2525V172.44H88.6525ZM76.8125 181.88C78.0725 180.44 78.2725 179.66 78.2725 178.08V173.78H79.7325V177.98C79.7325 179.52 79.8525 180.18 80.9325 181.42C81.7325 182.34 82.9125 183.54 84.4125 184.9L83.4925 185.86C82.2325 184.66 81.1125 183.56 80.3125 182.7C79.7125 182.06 79.1325 181.4 79.0325 181.14H79.0125C78.9525 181.4 78.1925 182.34 77.5925 183C76.8925 183.76 75.5725 185.1 74.3925 186.14L73.4525 185.16C74.7725 184 75.8725 182.94 76.8125 181.88ZM111.796 172.44V190.72H110.376V172.44H111.796ZM106.756 179.04V180.92C106.756 184.26 105.076 186.24 102.236 186.24C99.3956 186.24 97.7156 184.26 97.7156 180.92V179.02C97.7156 175.68 99.3956 173.72 102.236 173.72C105.076 173.72 106.756 175.7 106.756 179.04ZM105.376 180.68V179.28C105.376 176.24 104.116 175.04 102.236 175.04C100.356 175.04 99.0956 176.24 99.0956 179.28V180.68C99.0956 183.72 100.356 184.94 102.236 184.94C104.116 184.94 105.376 183.72 105.376 180.68ZM117.319 182.72H129.219V187.34H118.799V189.6H129.759V190.8H117.419V186.16H127.839V183.92H117.319V182.72ZM123.399 173.12H129.219V173.76C129.219 175.48 129.119 177.34 128.539 179.24H131.719V180.44H114.919V179.24H120.079C120.659 177.54 120.839 175.8 120.839 174.34H116.419V173.12H122.219V173.76C122.219 175.48 122.119 177.34 121.539 179.24H127.079C127.659 177.54 127.839 175.8 127.839 174.34H123.399V173.12ZM148.282 172.44V190.72H146.882V180.28H142.782V180.9C142.782 184.24 141.102 186.2 138.282 186.2C135.462 186.2 133.782 184.24 133.782 180.9V179.02C133.782 175.7 135.462 173.74 138.282 173.74C141.082 173.74 142.762 175.7 142.782 179H146.882V172.44H148.282ZM141.402 180.66V179.28C141.402 176.24 140.162 175.06 138.282 175.06C136.402 175.06 135.162 176.24 135.162 179.28V180.66C135.162 183.7 136.402 184.9 138.282 184.9C140.162 184.9 141.402 183.7 141.402 180.66ZM162.605 172.68V177.3H165.325V172.44H166.705V185.4H165.325V178.56H162.605V184.96H161.225V172.68H162.605ZM156.485 184.44V189.26H167.105V190.5H155.065V184.44H156.485ZM152.105 173.64H153.505V180.82C156.205 180.82 157.705 180.68 159.665 180.36L159.825 181.58C157.905 181.9 156.325 182.06 152.105 182.06V173.64ZM178.408 182.68H189.688V187.32H179.888V189.58H190.168V190.78H178.508V186.14H188.308V183.9H178.408V182.68ZM175.808 182.08L175.288 180.92C181.628 178.48 182.168 177.8 182.168 175.1V174.5H175.888V173.26H183.548V175.18C183.548 178.6 182.468 179.54 175.808 182.08ZM184.368 178.18H188.308V175.92H184.668V174.7H188.308V172.44H189.688V181.6H188.308V179.4H184.368V178.18ZM207.311 172.44V179.4H210.211V180.66H207.311V190.72H205.891V172.44H207.311ZM204.491 184.8L204.611 186.02C201.311 186.36 198.911 186.48 192.791 186.48V185.24C194.251 185.24 195.511 185.24 196.651 185.22V179.4H198.071V185.2C200.651 185.14 202.511 185.02 204.491 184.8ZM193.711 174.2H202.831V176.42C202.831 178.34 202.671 181.12 202.351 182.42L200.931 182.24C201.291 180.62 201.411 178.4 201.411 176.7V175.46H193.711V174.2ZM213.334 183.94H225.234V187.96H214.814V189.64H225.774V190.82H213.434V186.8H223.854V185.12H213.334V183.94ZM210.934 181.16H227.734V182.36H210.934V181.16ZM213.394 174.1V172.92H225.134V176.86H214.794V178.46H225.534V179.64H213.454V175.7H223.794V174.1H213.394ZM249.178 172.44V190.72H247.758V172.44H249.178ZM235.818 186.56L235.078 185.42C241.218 181.9 241.918 180.72 241.918 177.74V175.44H235.278V174.16H243.298V177.76C243.298 181.4 242.318 182.76 235.818 186.56ZM261.541 173.36V182.46H253.301V173.36H254.661V176.72H260.181V173.36H261.541ZM266.721 172.44V177.84H269.521V179.08H266.721V185.52H265.321V172.44H266.721ZM257.201 184.62V189.26H267.281V190.5H255.781V184.62H257.201ZM254.661 177.94V181.24H260.181V177.94H254.661ZM278.844 190.68V183.72H289.824V190.68H278.844ZM280.204 184.98V189.42H288.464V184.98H280.204ZM280.864 178.04H280.844C280.784 178.38 280.164 179 279.284 179.84C278.584 180.5 277.404 181.5 276.304 182.38L275.424 181.36C276.504 180.56 277.764 179.52 278.664 178.62C279.924 177.36 280.064 176.84 280.064 175.34V173.2H281.504V175.3C281.504 176.78 281.624 177.26 282.964 178.46C283.944 179.32 285.004 180.16 285.884 180.8L285.044 181.78C283.984 180.98 283.104 180.26 282.424 179.68C281.504 178.9 280.964 178.36 280.864 178.04ZM289.824 172.44V176.78H292.624V178.02H289.824V182.64H288.424V172.44H289.824ZM303.387 179.04V180.9C303.387 184.24 301.707 186.2 298.887 186.2C296.067 186.2 294.387 184.24 294.387 180.9V179.02C294.387 175.7 296.067 173.74 298.887 173.74C301.707 173.74 303.387 175.72 303.387 179.04ZM302.007 180.66V179.28C302.007 176.24 300.767 175.06 298.887 175.06C297.007 175.06 295.767 176.24 295.767 179.28V180.66C295.767 183.7 297.007 184.9 298.887 184.9C300.767 184.9 302.007 183.7 302.007 180.66ZM307.947 172.44V179.3H310.987V180.56H307.947V190.72H306.527V172.44H307.947ZM6.72 208.3H6.7C6.62 208.6 5.98 209.26 5.14 210C4.44 210.62 3.08 211.7 2.12 212.38L1.26 211.38C2.5 210.52 3.76 209.54 4.74 208.58C5.72 207.62 5.94 206.92 5.94 205.84V203.86H1.78V202.64H11.34V203.86H7.36V205.78C7.36 206.96 7.5 207.5 8.8 208.62C9.44 209.16 10.56 210 11.74 210.78L10.92 211.78C10.1 211.2 9.12 210.48 8.52 210C7.58 209.24 6.8 208.56 6.72 208.3ZM6.02 213.44V218.26H16.26V219.5H4.6V213.44H6.02ZM15.8 201.44V214.5H14.4V201.44H15.8ZM25.2431 207.24H25.2231C25.1031 207.5 24.6031 207.92 23.9431 208.38C22.9231 209.08 21.4631 209.94 20.5031 210.48L19.7431 209.42C21.3631 208.52 22.7631 207.66 23.4431 207.12C24.3431 206.42 24.4831 205.98 24.4831 204.9V204.48H20.3431V203.26H24.4831V201.28H25.8831V203.26H30.0231V204.48H25.8831V204.86C25.8831 205.94 26.0031 206.36 26.9631 207.1C27.6031 207.58 28.9231 208.36 30.2831 209.12L29.5831 210.16C28.5231 209.56 27.4431 208.92 26.5831 208.36C25.9831 207.96 25.3631 207.52 25.2431 207.24ZM34.2031 201.44V219.72H32.7831V201.44H34.2031ZM31.3831 211.3L31.5031 212.52C29.6831 212.7 27.9831 212.8 25.7831 212.88V219.14H24.3431V212.94C22.9031 212.96 21.2631 212.98 19.2831 212.98V211.74C25.0631 211.74 28.7031 211.6 31.3831 211.3ZM43.0063 207.82H42.9863C42.9063 208.12 42.2663 208.78 41.4263 209.52C40.7263 210.14 39.3663 211.22 38.4463 211.88L37.5863 210.88C38.7663 210.04 40.0463 209.06 41.0263 208.1C42.0063 207.14 42.2263 206.44 42.2263 205.36V203.76H38.1063V202.54H47.5663V203.76H43.6463V205.3C43.6463 206.48 43.7863 207.02 45.0863 208.14C45.7263 208.68 46.8463 209.52 47.9863 210.28L47.1663 211.26C46.3463 210.7 45.4063 210 44.8063 209.52C43.8663 208.76 43.0863 208.08 43.0063 207.82ZM40.5463 214.36V213.12H52.3063V219.86H50.9063V214.36H40.5463ZM52.3063 201.44V212.04H50.9063V207.26H47.0863V206.02H50.9063V201.44H52.3063ZM60.6494 213.52V218.26H70.8694V219.5H59.2294V213.52H60.6494ZM70.4094 201.44V214.52H69.0094V201.44H70.4094ZM60.6494 211.48C57.9094 211.48 56.1494 209.44 56.1494 207.46V206.26C56.1494 204.28 57.9094 202.24 60.6494 202.24C63.3894 202.24 65.1494 204.28 65.1494 206.26V207.46C65.1494 209.44 63.3894 211.48 60.6494 211.48ZM60.6494 203.5C58.7894 203.5 57.5094 204.88 57.5094 206.38V207.34C57.5094 208.84 58.7894 210.22 60.6494 210.22C62.5094 210.22 63.7894 208.84 63.7894 207.34V206.38C63.7894 204.88 62.5094 203.5 60.6494 203.5ZM88.2925 212.8C91.2925 212.8 93.8325 214.02 93.8325 216.12V216.88C93.8325 218.98 91.2925 220.2 88.2925 220.2C85.2925 220.2 82.7525 218.98 82.7525 216.88V216.12C82.7525 213.98 85.2925 212.8 88.2925 212.8ZM89.8925 209.78L90.0125 210.96C86.6725 211.3 82.7725 211.3 78.9925 211.3V210.1H80.9325V203.8H79.1125V202.6H89.0925V203.8H87.0725V210C88.0325 209.94 88.9725 209.88 89.8925 209.78ZM88.2925 219C90.4325 219 92.4725 218.22 92.4725 216.8V216.2C92.4725 214.78 90.4325 214 88.2925 214C86.1525 214 84.1125 214.78 84.1125 216.2V216.8C84.1125 218.22 86.1525 219 88.2925 219ZM89.1725 204.56H92.3525V201.44H93.7325V212.38H92.3525V208.62H89.1725V207.42H92.3525V205.76H89.1725V204.56ZM82.2925 210.1C83.4725 210.1 84.6125 210.08 85.7125 210.04V203.8H82.2925V210.1ZM110.836 201.44V208.42H113.876V209.68H110.836V219.72H109.416V201.44H110.836ZM97.9956 215.52L97.2556 214.38C103.396 210.86 104.056 209.7 104.056 206.72V204.46H97.4556V203.18H105.436V206.74C105.436 210.38 104.496 211.72 97.9956 215.52ZM117.319 212.94H129.219V216.96H118.799V218.64H129.759V219.82H117.419V215.8H127.839V214.12H117.319V212.94ZM114.919 210.16H131.719V211.36H114.919V210.16ZM117.379 203.1V201.92H129.119V205.86H118.779V207.46H129.519V208.64H117.439V204.7H127.779V203.1H117.379ZM138.122 211.18H145.802V209.32H140.642V202.12H152.342V203.3H141.982V205.14H152.242V206.3H141.982V208.14H152.442V209.32H147.202V211.18H154.922V212.38H138.122V211.18ZM146.522 213.58C149.522 213.58 152.202 214.54 152.202 216.6V217.2C152.202 219.26 149.522 220.22 146.522 220.22C143.522 220.22 140.842 219.26 140.842 217.2V216.6C140.842 214.52 143.522 213.58 146.522 213.58ZM146.522 219.02C148.682 219.02 150.842 218.4 150.842 217.12V216.68C150.842 215.42 148.682 214.78 146.522 214.78C144.362 214.78 142.202 215.42 142.202 216.68V217.12C142.202 218.4 144.362 219.02 146.522 219.02ZM168.245 201.82V208.44H170.805V201.44H172.205V219.72H170.805V209.7H168.245V218.82H166.845V201.82H168.245ZM161.065 215.06C158.505 215.06 157.085 213.28 157.085 211.48V210.64C157.085 208.84 158.505 207.06 161.065 207.06C163.625 207.06 165.045 208.84 165.045 210.64V211.48C165.045 213.26 163.625 215.06 161.065 215.06ZM161.065 208.3C159.445 208.3 158.425 209.5 158.425 210.74V211.38C158.425 212.62 159.445 213.82 161.065 213.82C162.685 213.82 163.705 212.62 163.705 211.38V210.74C163.705 209.5 162.685 208.3 161.065 208.3ZM156.385 205.88V204.64H160.345V201.96H161.745V204.64H165.445V205.88H156.385ZM182.028 202.54H193.828V209.66H182.028V202.54ZM183.428 203.78V208.42H192.428V203.78H183.428ZM179.528 212.22H196.328V213.44H188.648V219.72H187.228V213.44H179.528V212.22ZM207.391 209.02V209.78C207.391 211.44 205.791 213 203.191 213C200.591 213 198.991 211.44 198.991 209.78V209.02C198.991 207.36 200.591 205.8 203.191 205.8C205.791 205.8 207.391 207.36 207.391 209.02ZM203.191 211.8C204.971 211.8 206.051 210.7 206.051 209.72V209.08C206.051 208.1 204.971 207 203.191 207C201.411 207 200.331 208.1 200.331 209.08V209.72C200.331 210.7 201.411 211.8 203.191 211.8ZM212.111 201.44V207.02H214.911V208.26H212.111V214.74H210.711V201.44H212.111ZM202.631 214.44V218.26H212.671V219.5H201.211V214.44H202.631ZM203.891 201.26V203.6H208.471V204.82H197.951V203.6H202.491V201.26H203.891ZM221.714 215.56C218.954 215.56 217.374 213.62 217.374 211.76V210.68C217.374 208.82 218.954 206.86 221.714 206.86C224.474 206.86 226.054 208.82 226.054 210.68V211.76C226.054 213.62 224.474 215.56 221.714 215.56ZM221.714 208.12C219.914 208.12 218.714 209.3 218.714 210.8V211.64C218.714 213.14 219.914 214.32 221.714 214.32C223.514 214.32 224.714 213.14 224.714 211.64V210.8C224.714 209.3 223.514 208.12 221.714 208.12ZM231.054 201.44V219.72H229.634V201.44H231.054ZM216.374 204.32H221.014V201.54H222.434V204.32H227.014V205.56H216.374V204.32ZM248.818 212.64C251.818 212.64 254.358 213.92 254.358 216.02V216.8C254.358 218.9 251.818 220.2 248.818 220.2C245.818 220.2 243.278 218.9 243.278 216.8V216.02C243.278 213.86 245.818 212.64 248.818 212.64ZM248.818 219C250.958 219 252.998 218.18 252.998 216.76V216.08C252.998 214.66 250.958 213.84 248.818 213.84C246.678 213.84 244.638 214.66 244.638 216.08V216.76C244.638 218.18 246.678 219 248.818 219ZM244.738 207.52H244.718C244.658 207.86 244.038 208.48 243.158 209.32C242.458 209.98 241.278 210.98 240.178 211.86L239.298 210.84C240.378 210.04 241.638 209 242.538 208.1C243.798 206.84 243.938 206.32 243.938 204.82V202.26H245.378V204.78C245.378 206.26 245.498 206.74 246.838 207.94C247.818 208.8 248.878 209.64 249.758 210.28L248.918 211.26C247.858 210.46 246.978 209.74 246.298 209.16C245.378 208.38 244.838 207.84 244.738 207.52ZM248.738 205.56H252.858V201.44H254.258V212.22H252.858V206.8H248.738V205.56ZM266.361 212.6C269.361 212.6 271.801 213.92 271.801 216.02V216.78C271.801 218.88 269.361 220.2 266.361 220.2C263.361 220.2 260.921 218.88 260.921 216.78V216.02C260.921 213.88 263.361 212.6 266.361 212.6ZM266.361 219C268.501 219 270.441 218.14 270.441 216.72V216.08C270.441 214.66 268.501 213.8 266.361 213.8C264.221 213.8 262.281 214.66 262.281 216.08V216.72C262.281 218.14 264.221 219 266.361 219ZM263.001 207.8H262.981C262.901 208.1 262.261 208.76 261.421 209.5C260.721 210.12 259.361 211.2 258.441 211.86L257.581 210.86C258.761 210.02 260.041 209.04 261.021 208.08C262.001 207.12 262.221 206.42 262.221 205.34V203.82H258.101V202.6H267.581V203.82H263.641V205.28C263.641 206.46 263.781 207 265.081 208.12C265.721 208.66 266.841 209.5 267.981 210.26L267.161 211.26C266.361 210.7 265.401 209.98 264.801 209.5C263.861 208.74 263.081 208.06 263.001 207.8ZM271.701 201.44V206.06H274.501V207.3H271.701V212.2H270.301V201.44H271.701ZM280.944 215.52C278.184 215.52 276.624 213.6 276.624 211.74V210.66C276.624 208.8 278.184 206.86 280.944 206.86C283.704 206.86 285.264 208.8 285.264 210.66V211.74C285.264 213.6 283.704 215.52 280.944 215.52ZM280.944 208.12C279.144 208.12 277.964 209.28 277.964 210.78V211.62C277.964 213.12 279.144 214.28 280.944 214.28C282.744 214.28 283.924 213.12 283.924 211.62V210.78C283.924 209.28 282.744 208.12 280.944 208.12ZM289.784 201.44V208.92H292.824V210.18H289.784V219.72H288.364V201.44H289.784ZM275.624 204.32H280.244V201.54H281.664V204.32H286.224V205.56H275.624V204.32ZM301.167 207.56H304.507V201.82H305.907V218.82H304.507V208.84H301.167V207.56ZM297.567 207V202.9H298.987V207C298.987 208.9 299.207 209.56 300.227 210.86C300.887 211.7 301.867 212.78 303.007 213.9L302.067 214.82C301.067 213.8 300.087 212.7 299.407 211.92C298.807 211.24 298.387 210.6 298.307 210.38H298.287C298.227 210.6 297.887 211.16 297.267 211.9C296.527 212.78 295.607 213.78 294.327 215.04L293.367 214.1C294.567 212.96 295.767 211.68 296.387 210.88C297.347 209.64 297.567 208.82 297.567 207ZM309.487 201.44V219.72H308.087V201.44H309.487ZM314.33 207.82V206.84C314.33 204.24 317.07 202.54 320.35 202.54C323.61 202.54 326.37 204.24 326.37 206.84V207.82C326.37 209.22 325.55 210.38 324.31 211.12V215.92H328.75V217.14H311.95V215.92H316.39V211.12C315.13 210.38 314.33 209.24 314.33 207.82ZM320.35 203.84C317.75 203.84 315.73 205.1 315.73 206.9V207.76C315.73 209.56 317.75 210.82 320.35 210.82C322.93 210.82 324.97 209.56 324.97 207.76V206.9C324.97 205.1 322.93 203.84 320.35 203.84ZM320.35 212.12C319.43 212.12 318.57 211.98 317.79 211.74V215.92H322.91V211.74C322.13 212 321.25 212.12 320.35 212.12ZM15.86 230.44V248.74H14.48V241.06H10.06C9.48 243.08 8 244.2 5.86 244.2C3.04 244.2 1.36 242.24 1.36 238.9V237.02C1.36 233.7 3.04 231.74 5.86 231.74C7.98 231.74 9.46 232.88 10.06 234.86H14.48V230.44H15.86ZM8.98 238.66V237.28C8.98 234.24 7.74 233.06 5.86 233.06C3.98 233.06 2.74 234.24 2.74 237.28V238.66C2.74 241.7 3.98 242.9 5.86 242.9C7.74 242.9 8.98 241.7 8.98 238.66ZM10.36 237.04V238.9C10.36 239.2 10.34 239.5 10.32 239.78H14.48V236.14H10.32C10.34 236.44 10.36 236.74 10.36 237.04ZM21.5231 238.42V242.92H24.1831C26.2031 242.92 28.3831 242.82 30.2431 242.52L30.4031 243.74C28.2831 244.08 26.0031 244.18 23.8231 244.18H20.1231V237.18H26.3631V233.16H20.1231V231.92H27.7631V238.42H21.5231ZM29.1831 236.9H32.7231V230.44H34.1231V248.72H32.7231V238.18H29.1831V236.9ZM51.4063 230.96V237.92H39.6063V230.96H40.9863V233.24H50.0263V230.96H51.4063ZM37.1063 240.04H53.9063V241.24H46.4062V244.92H45.0063V241.24H37.1063V240.04ZM41.0063 243.3V247.26H51.8063V248.5H39.5863V243.3H41.0063ZM40.9863 234.42V236.7H50.0263V234.42H40.9863ZM70.7094 230.44V248.72H69.2894V230.44H70.7094ZM67.8894 243.02L68.0094 244.24C64.7094 244.58 61.8894 244.7 55.7694 244.7V243.46C61.5894 243.46 64.7894 243.36 67.8894 243.02ZM61.4894 240.34C58.8894 240.34 56.7294 238.64 56.7294 236.48V235.52C56.7294 233.34 58.8894 231.66 61.4894 231.66C64.0894 231.66 66.2494 233.36 66.2494 235.52V236.48C66.2494 238.64 64.0894 240.34 61.4894 240.34ZM61.4894 232.9C59.7294 232.9 58.0894 234.1 58.0894 235.6V236.4C58.0894 237.9 59.7294 239.1 61.4894 239.1C63.2494 239.1 64.8894 237.9 64.8894 236.4V235.6C64.8894 234.1 63.2494 232.9 61.4894 232.9ZM88.2725 241.6C91.2725 241.6 93.8125 242.9 93.8125 245V245.78C93.8125 247.88 91.2725 249.2 88.2725 249.2C85.2725 249.2 82.7325 247.88 82.7325 245.78V245C82.7325 242.84 85.2725 241.6 88.2725 241.6ZM83.6325 240.06C80.8125 240.06 79.1725 238.02 79.1725 236.2V235.04C79.1725 233.22 80.8125 231.18 83.6325 231.18C86.4525 231.18 88.0925 233.22 88.0925 235.04V236.2C88.0925 238.02 86.4525 240.06 83.6325 240.06ZM88.2725 248C90.4125 248 92.4525 247.16 92.4525 245.74V245.06C92.4525 243.64 90.4125 242.8 88.2725 242.8C86.1325 242.8 84.0925 243.64 84.0925 245.06V245.74C84.0925 247.16 86.1325 248 88.2725 248ZM83.6325 232.44C81.8325 232.44 80.5325 233.62 80.5325 235.16V236.08C80.5325 237.62 81.8325 238.8 83.6325 238.8C85.4325 238.8 86.7325 237.62 86.7325 236.08V235.16C86.7325 233.62 85.4325 232.44 83.6325 232.44ZM89.0525 232.94H92.3325V230.44H93.7125V241.2H92.3325V238.32H89.0525V237.1H92.3325V234.16H89.0525V232.94ZM102.736 237.52C100.296 237.52 98.3356 236.24 98.3356 234.54V233.78C98.3356 232.08 100.296 230.8 102.736 230.8C105.176 230.8 107.136 232.08 107.136 233.78V234.54C107.136 236.24 105.176 237.52 102.736 237.52ZM106.336 241.46H110.456V230.44H111.856V244.64H110.456V242.7H106.336V241.46ZM102.736 232C101.056 232 99.6756 232.86 99.6756 233.9V234.42C99.6756 235.46 101.056 236.32 102.736 236.32C104.416 236.32 105.796 235.46 105.796 234.42V233.9C105.796 232.86 104.416 232 102.736 232ZM101.596 243.66V247.26H112.276V248.5H100.176V243.66H101.596ZM108.936 238.38L109.056 239.6C107.256 239.78 105.556 239.9 103.196 239.98V242.88H101.776V240C100.436 240.04 98.8956 240.04 97.0556 240.04V238.82C102.816 238.82 105.496 238.74 108.936 238.38ZM124.579 238.02V238.78C124.579 240.44 122.979 242 120.379 242C117.779 242 116.179 240.44 116.179 238.78V238.02C116.179 236.36 117.779 234.8 120.379 234.8C122.979 234.8 124.579 236.36 124.579 238.02ZM120.379 240.8C122.159 240.8 123.239 239.7 123.239 238.72V238.08C123.239 237.1 122.159 236 120.379 236C118.599 236 117.519 237.1 117.519 238.08V238.72C117.519 239.7 118.599 240.8 120.379 240.8ZM129.299 230.44V236.02H132.099V237.26H129.299V243.74H127.899V230.44H129.299ZM119.819 243.44V247.26H129.859V248.5H118.399V243.44H119.819ZM121.079 230.26V232.6H125.659V233.82H115.139V232.6H119.679V230.26H121.079ZM147.322 230.96V238.9H139.082V230.96H140.442V233.78H145.962V230.96H147.322ZM141.422 240.76H152.542V245.36H142.902V247.58H153.022V248.78H141.522V244.18H151.162V241.98H141.422V240.76ZM152.542 230.44V234.34H155.342V235.58H152.542V239.68H151.142V230.44H152.542ZM140.442 235V237.68H145.962V235H140.442ZM162.225 237.38H162.205C162.125 237.68 161.485 238.34 160.645 239.08C159.945 239.7 158.585 240.78 157.665 241.44L156.805 240.44C157.985 239.6 159.265 238.62 160.245 237.66C161.225 236.7 161.445 236 161.445 234.92V232.86H157.325V231.64H166.785V232.86H162.865V234.86C162.865 236.04 163.005 236.58 164.305 237.7C164.945 238.24 166.065 239.08 167.205 239.84L166.385 240.82C165.565 240.26 164.625 239.56 164.025 239.08C163.085 238.32 162.305 237.64 162.225 237.38ZM166.305 235.3H170.125V230.44H171.525V243.5H170.125V236.54H166.305V235.3ZM161.745 242.44V247.26H171.985V248.5H160.325V242.44H161.745ZM174.528 238.62H191.328V239.82H174.528V238.62ZM188.648 233.64V234.24C188.648 236.12 186.148 237.26 182.928 237.26C179.708 237.26 177.208 236.12 177.208 234.24V233.64C177.208 231.74 179.708 230.62 182.928 230.62C186.148 230.62 188.648 231.76 188.648 233.64ZM178.588 233.7V234.18C178.588 235.26 180.528 236.08 182.928 236.08C185.328 236.08 187.268 235.26 187.268 234.18V233.7C187.268 232.62 185.328 231.8 182.928 231.8C180.528 231.8 178.588 232.62 178.588 233.7ZM176.948 241.42H188.828V245.68H178.428V247.62H189.368V248.8H177.048V244.52H187.448V242.6H176.948V241.42ZM197.731 239.4H214.531V240.62H197.731V239.4ZM206.131 242.12C209.131 242.12 211.811 243.22 211.811 245.32V246C211.811 248.1 209.131 249.2 206.131 249.2C203.131 249.2 200.451 248.1 200.451 246V245.32C200.451 243.18 203.131 242.12 206.131 242.12ZM206.131 248C208.291 248 210.451 247.26 210.451 245.92V245.4C210.451 244.06 208.291 243.32 206.131 243.32C203.971 243.32 201.811 244.06 201.811 245.4V245.92C201.811 247.26 203.971 248 206.131 248ZM206.131 237.86C203.071 237.86 200.391 236.72 200.391 234.66V233.98C200.391 231.9 203.071 230.78 206.131 230.78C209.191 230.78 211.871 231.92 211.871 233.98V234.66C211.871 236.72 209.191 237.86 206.131 237.86ZM206.131 231.98C203.931 231.98 201.751 232.82 201.751 234.08V234.56C201.751 235.82 203.931 236.66 206.131 236.66C208.331 236.66 210.511 235.82 210.511 234.56V234.08C210.511 232.82 208.331 231.98 206.131 231.98ZM221.954 237.52C219.514 237.52 217.554 236.24 217.554 234.54V233.78C217.554 232.08 219.514 230.8 221.954 230.8C224.394 230.8 226.354 232.08 226.354 233.78V234.54C226.354 236.24 224.394 237.52 221.954 237.52ZM225.554 241.46H229.674V230.44H231.074V244.64H229.674V242.7H225.554V241.46ZM221.954 232C220.274 232 218.894 232.86 218.894 233.9V234.42C218.894 235.46 220.274 236.32 221.954 236.32C223.634 236.32 225.014 235.46 225.014 234.42V233.9C225.014 232.86 223.634 232 221.954 232ZM220.814 243.66V247.26H231.494V248.5H219.394V243.66H220.814ZM228.154 238.38L228.274 239.6C226.474 239.78 224.774 239.9 222.414 239.98V242.88H220.994V240C219.654 240.04 218.114 240.04 216.274 240.04V238.82C222.034 238.82 224.714 238.74 228.154 238.38ZM239.538 244.52C236.778 244.52 235.218 242.6 235.218 240.74V239.66C235.218 237.8 236.778 235.86 239.538 235.86C242.298 235.86 243.858 237.8 243.858 239.66V240.74C243.858 242.6 242.298 244.52 239.538 244.52ZM239.538 237.12C237.738 237.12 236.558 238.28 236.558 239.78V240.62C236.558 242.12 237.738 243.28 239.538 243.28C241.338 243.28 242.518 242.12 242.518 240.62V239.78C242.518 238.28 241.338 237.12 239.538 237.12ZM248.378 230.44V237.92H251.418V239.18H248.378V248.72H246.958V230.44H248.378ZM234.218 233.32H238.838V230.54H240.258V233.32H244.818V234.56H234.218V233.32ZM252.341 244.92H258.721V237.9H260.161V244.92H269.141V246.14H252.341V244.92ZM265.921 242.58L264.441 242.4C264.901 239.94 265.161 237.74 265.161 235.06V233.4H254.461V232.16H266.621V234.32C266.621 237.68 266.401 240 265.921 242.58ZM280.864 239.76C278.084 239.76 276.404 237.78 276.404 235.96V234.84C276.404 233.02 278.084 231.04 280.864 231.04C283.644 231.04 285.324 233.02 285.324 234.84V235.96C285.324 237.78 283.644 239.76 280.864 239.76ZM284.844 248.76C282.624 246.88 281.684 245.82 281.584 245.56C281.424 245.82 281.104 246.24 280.164 247.04C279.664 247.48 278.984 248.04 278.044 248.76L277.264 247.76C278.124 247.12 278.804 246.58 279.304 246.14C280.804 244.84 280.904 244.36 280.904 243.06V241.46H282.284V243.12C282.284 244.34 282.324 244.72 283.604 245.98C283.924 246.3 284.344 246.66 284.844 247.06C285.344 246.66 285.764 246.3 286.084 245.98C287.364 244.72 287.404 244.34 287.404 243.12V241.46H288.784V243.06C288.784 244.36 288.884 244.84 290.384 246.14C290.884 246.58 291.564 247.12 292.424 247.76L291.644 248.76C290.704 248.04 290.024 247.48 289.524 247.04C288.584 246.24 288.264 245.82 288.104 245.56C288.004 245.82 287.064 246.88 284.844 248.76ZM280.864 232.3C279.044 232.3 277.764 233.56 277.764 234.96V235.84C277.764 237.24 279.044 238.5 280.864 238.5C282.684 238.5 283.964 237.24 283.964 235.84V234.96C283.964 233.56 282.684 232.3 280.864 232.3ZM290.644 230.44V240.3H289.244V230.44H290.644ZM306.727 241.7H308.107V248.7H296.187V241.7H297.567V243.94H306.727V241.7ZM309.247 236.48L308.707 237.6C307.307 237.06 305.707 236.36 304.707 235.88C303.007 235.08 302.307 234.58 302.167 234.2H302.147C302.007 234.6 301.307 235.1 299.607 235.9C298.607 236.38 297.027 237.08 295.627 237.62L295.047 236.48C296.847 235.78 298.327 235.16 299.287 234.68C301.087 233.8 301.447 233.28 301.447 231.9V230.62H302.867V231.9C302.867 233.28 303.207 233.8 305.007 234.68C305.967 235.16 307.467 235.78 309.247 236.48ZM297.567 247.44H306.727V245.18H297.567V247.44ZM293.747 238.98H310.547V240.2H293.747V238.98ZM327.07 230.44V248.72H325.65V230.44H327.07ZM314.95 231.94V242.42H317.57C319.49 242.42 321.49 242.3 323.67 241.92L323.85 243.18C321.71 243.56 319.33 243.7 317.43 243.7H313.53V231.94H314.95ZM331.173 243.84V232.1H339.493V233.38H332.593V242.56H334.953C336.993 242.56 338.933 242.44 341.173 242.06L341.353 243.32C339.233 243.7 336.833 243.84 334.593 243.84H331.173ZM344.333 230.44V237.22H347.373V238.48H344.333V248.72H342.913V230.44H344.333Z" fill="white"/>
<path d="M10.2 53.2C9.16 53.2 8.2 52.84 7.32 52.12C6.44 51.48 6 50.52 6 49.24V7.36C6 6 6.44 5 7.32 4.36C8.2 3.72 9.16 3.4 10.2 3.4C11.32 3.4 12.28 3.72 13.08 4.36C13.96 5 14.4 6 14.4 7.36V49.24C14.4 50.52 13.96 51.48 13.08 52.12C12.28 52.84 11.32 53.2 10.2 53.2ZM46.7606 52.9C46.1606 52.9 45.6506 52.69 45.2306 52.27C44.8706 51.91 44.6906 51.43 44.6906 50.83V38.59C44.6906 35.59 44.0606 33.37 42.8006 31.93C41.5406 30.49 39.7706 29.77 37.4906 29.77C35.3906 29.77 33.6506 30.28 32.2706 31.3C30.9506 32.26 29.9906 33.49 29.3906 34.99C28.7906 36.43 28.4906 37.87 28.4906 39.31V50.83C28.4906 51.43 28.3106 51.91 27.9506 52.27C27.5906 52.69 27.1106 52.9 26.5106 52.9C25.9106 52.9 25.4006 52.69 24.9806 52.27C24.6206 51.91 24.4406 51.43 24.4406 50.83V28.33C24.4406 27.67 24.6506 27.19 25.0706 26.89C25.4906 26.53 25.9706 26.35 26.5106 26.35C26.9906 26.35 27.4406 26.53 27.8606 26.89C28.2806 27.19 28.4906 27.67 28.4906 28.33V30.31C29.6906 28.93 31.1306 27.85 32.8106 27.07C34.4906 26.29 36.2306 25.9 38.0306 25.9C41.0906 25.9 43.6406 26.92 45.6806 28.96C47.7206 30.94 48.7406 34.03 48.7406 38.23V50.83C48.7406 51.43 48.5606 51.91 48.2006 52.27C47.8406 52.69 47.3606 52.9 46.7606 52.9ZM60.6628 52.9C60.1828 52.9 59.7328 52.72 59.3128 52.36C58.8928 52.06 58.6828 51.58 58.6828 50.92V31.3C58.6828 30.7 58.3828 30.4 57.7828 30.4H55.0828C54.6028 30.4 54.1828 30.22 53.8228 29.86C53.4628 29.5 53.2828 29.08 53.2828 28.6C53.2828 28.12 53.4628 27.7 53.8228 27.34C54.1828 26.98 54.6028 26.8 55.0828 26.8H57.7828C58.3828 26.8 58.6828 26.5 58.6828 25.9V22.66C58.6828 19.84 59.4928 17.65 61.1128 16.09C62.7328 14.53 64.8028 13.75 67.3228 13.75C67.8028 13.75 68.3428 13.81 68.9428 13.93C69.6028 13.99 70.1428 14.11 70.5628 14.29C71.3428 14.53 71.7328 15.1 71.7328 16C71.7328 16.66 71.4928 17.23 71.0128 17.71C70.5328 18.13 69.9328 18.25 69.2128 18.07C68.8528 17.95 68.4628 17.86 68.0428 17.8C67.6828 17.74 67.3528 17.71 67.0528 17.71C65.9128 17.71 64.8928 18.13 63.9928 18.97C63.1528 19.75 62.7328 21.04 62.7328 22.84V25.9C62.7328 26.5 63.0328 26.8 63.6328 26.8H69.0328C69.5128 26.8 69.9328 26.98 70.2928 27.34C70.6528 27.7 70.8328 28.12 70.8328 28.6C70.8328 29.08 70.6528 29.5 70.2928 29.86C69.9328 30.22 69.5128 30.4 69.0328 30.4H63.6328C63.0328 30.4 62.7328 30.7 62.7328 31.3V50.92C62.7328 51.58 62.5228 52.06 62.1028 52.36C61.6828 52.72 61.2028 52.9 60.6628 52.9ZM79.2028 52.9C78.6028 52.9 78.0928 52.69 77.6728 52.27C77.3128 51.91 77.1328 51.43 77.1328 50.83V27.88C77.1328 27.22 77.3428 26.74 77.7628 26.44C78.1828 26.08 78.6628 25.9 79.2028 25.9C79.6828 25.9 80.1328 26.08 80.5528 26.44C80.9728 26.74 81.1828 27.22 81.1828 27.88V50.83C81.1828 51.43 81.0028 51.91 80.6428 52.27C80.2828 52.69 79.8028 52.9 79.2028 52.9ZM78.9328 19.96C77.9728 19.96 77.1928 19.69 76.5928 19.15C76.0528 18.55 75.7828 17.8 75.7828 16.9C75.7828 15.94 76.0528 15.19 76.5928 14.65C77.1928 14.05 77.9728 13.75 78.9328 13.75C79.8928 13.75 80.6428 14.05 81.1828 14.65C81.7828 15.19 82.0828 15.94 82.0828 16.9C82.0828 17.8 81.7828 18.55 81.1828 19.15C80.6428 19.69 79.8928 19.96 78.9328 19.96ZM111.624 52.9C111.024 52.9 110.514 52.69 110.094 52.27C109.734 51.91 109.554 51.43 109.554 50.83V38.59C109.554 35.59 108.924 33.37 107.664 31.93C106.404 30.49 104.634 29.77 102.354 29.77C100.254 29.77 98.5139 30.28 97.1339 31.3C95.8139 32.26 94.8539 33.49 94.2539 34.99C93.6539 36.43 93.3539 37.87 93.3539 39.31V50.83C93.3539 51.43 93.1739 51.91 92.8139 52.27C92.4539 52.69 91.9739 52.9 91.3739 52.9C90.7739 52.9 90.2639 52.69 89.8439 52.27C89.4839 51.91 89.3039 51.43 89.3039 50.83V28.33C89.3039 27.67 89.5139 27.19 89.9339 26.89C90.3539 26.53 90.8339 26.35 91.3739 26.35C91.8539 26.35 92.3039 26.53 92.7239 26.89C93.1439 27.19 93.3539 27.67 93.3539 28.33V30.31C94.5539 28.93 95.9939 27.85 97.6739 27.07C99.3539 26.29 101.094 25.9 102.894 25.9C105.954 25.9 108.504 26.92 110.544 28.96C112.584 30.94 113.604 34.03 113.604 38.23V50.83C113.604 51.43 113.424 51.91 113.064 52.27C112.704 52.69 112.224 52.9 111.624 52.9ZM123.816 52.9C123.216 52.9 122.706 52.69 122.286 52.27C121.926 51.91 121.746 51.43 121.746 50.83V27.88C121.746 27.22 121.956 26.74 122.376 26.44C122.796 26.08 123.276 25.9 123.816 25.9C124.296 25.9 124.746 26.08 125.166 26.44C125.586 26.74 125.796 27.22 125.796 27.88V50.83C125.796 51.43 125.616 51.91 125.256 52.27C124.896 52.69 124.416 52.9 123.816 52.9ZM123.546 19.96C122.586 19.96 121.806 19.69 121.206 19.15C120.666 18.55 120.396 17.8 120.396 16.9C120.396 15.94 120.666 15.19 121.206 14.65C121.806 14.05 122.586 13.75 123.546 13.75C124.506 13.75 125.256 14.05 125.796 14.65C126.396 15.19 126.696 15.94 126.696 16.9C126.696 17.8 126.396 18.55 125.796 19.15C125.256 19.69 124.506 19.96 123.546 19.96ZM143.494 52.9C141.034 52.9 139.114 52.18 137.734 50.74C136.354 49.24 135.664 47.2 135.664 44.62V31.3C135.664 30.7 135.364 30.4 134.764 30.4H132.514C132.034 30.4 131.614 30.22 131.254 29.86C130.894 29.5 130.714 29.08 130.714 28.6C130.714 28.12 130.894 27.7 131.254 27.34C131.614 26.98 132.034 26.8 132.514 26.8H134.764C135.364 26.8 135.664 26.5 135.664 25.9V17.53C135.664 16.87 135.874 16.39 136.294 16.09C136.714 15.73 137.164 15.55 137.644 15.55C138.184 15.55 138.664 15.73 139.084 16.09C139.504 16.39 139.714 16.87 139.714 17.53V25.9C139.714 26.5 140.014 26.8 140.614 26.8H146.914C147.394 26.8 147.814 26.98 148.174 27.34C148.534 27.7 148.714 28.12 148.714 28.6C148.714 29.08 148.534 29.5 148.174 29.86C147.814 30.22 147.394 30.4 146.914 30.4H140.614C140.014 30.4 139.714 30.7 139.714 31.3V44.35C139.714 47.47 141.154 49.03 144.034 49.03C144.754 49.03 145.324 48.94 145.744 48.76C146.224 48.58 146.614 48.49 146.914 48.49C147.454 48.49 147.874 48.7 148.174 49.12C148.534 49.54 148.714 49.99 148.714 50.47C148.714 51.43 148.264 52.03 147.364 52.27C146.764 52.51 146.104 52.66 145.384 52.72C144.724 52.84 144.094 52.9 143.494 52.9ZM151.907 27.79C151.907 27.07 152.177 26.59 152.717 26.35C153.317 26.05 153.827 25.9 154.247 25.9C155.027 25.9 155.597 26.35 155.957 27.25L163.517 46.15C163.937 47.05 164.507 47.5 165.227 47.5C165.407 47.5 165.617 47.47 165.857 47.41C166.097 47.35 166.247 47.2 166.307 46.96L173.957 27.34C174.317 26.38 174.917 25.9 175.757 25.9C176.237 25.9 176.717 26.08 177.197 26.44C177.737 26.8 178.007 27.25 178.007 27.79C178.007 28.03 177.947 28.33 177.827 28.69L163.607 63.16C163.247 64.12 162.647 64.6 161.807 64.6C161.327 64.6 160.817 64.42 160.277 64.06C159.797 63.7 159.557 63.25 159.557 62.71C159.557 62.35 159.617 62.05 159.737 61.81L163.967 52.45C163.307 52.45 162.737 52.27 162.257 51.91C161.777 51.49 161.447 51.07 161.267 50.65L152.087 28.6C151.967 28.24 151.907 27.97 151.907 27.79ZM184.58 58.39C184.46 58.81 184.22 59.11 183.86 59.29C183.56 59.53 183.26 59.65 182.96 59.65C182 59.65 181.55 59.02 181.61 57.76L182.51 48.67C182.63 47.95 182.9 47.44 183.32 47.14C183.8 46.78 184.31 46.6 184.85 46.6C185.57 46.6 186.23 46.87 186.83 47.41C187.43 47.89 187.61 48.64 187.37 49.66L184.58 58.39ZM223.65 52C221.516 52 219.81 51.36 218.53 50.08C217.25 48.8 216.61 47.0933 216.61 44.96V7.456C216.61 5.49333 217.25 3.91466 218.53 2.72C219.895 1.44 221.474 0.799999 223.266 0.799999H242.594C244.044 0.799999 245.068 1.184 245.666 1.952C246.348 2.63466 246.69 3.53067 246.69 4.64C246.69 5.664 246.306 6.56 245.538 7.328C244.855 8.096 243.874 8.48 242.594 8.48H228.898C226.679 8.48 225.57 9.58933 225.57 11.808V18.848C225.57 21.0667 226.594 22.176 228.642 22.176H241.314C242.764 22.176 243.788 22.56 244.386 23.328C245.068 24.096 245.41 24.992 245.41 26.016C245.41 26.9547 245.026 27.8507 244.258 28.704C243.575 29.472 242.594 29.856 241.314 29.856H228.642C226.594 29.856 225.57 30.9227 225.57 33.056V40.864C225.57 43.0827 226.636 44.192 228.77 44.192H243.874C245.324 44.192 246.348 44.6187 246.946 45.472C247.628 46.24 247.97 47.136 247.97 48.16C247.97 49.184 247.586 50.08 246.818 50.848C246.135 51.616 245.154 52 243.874 52H223.65ZM265.53 52.9C263.07 52.9 261.15 52.18 259.77 50.74C258.39 49.24 257.7 47.2 257.7 44.62V31.3C257.7 30.7 257.4 30.4 256.8 30.4H254.55C254.07 30.4 253.65 30.22 253.29 29.86C252.93 29.5 252.75 29.08 252.75 28.6C252.75 28.12 252.93 27.7 253.29 27.34C253.65 26.98 254.07 26.8 254.55 26.8H256.8C257.4 26.8 257.7 26.5 257.7 25.9V17.53C257.7 16.87 257.91 16.39 258.33 16.09C258.75 15.73 259.2 15.55 259.68 15.55C260.22 15.55 260.7 15.73 261.12 16.09C261.54 16.39 261.75 16.87 261.75 17.53V25.9C261.75 26.5 262.05 26.8 262.65 26.8H268.95C269.43 26.8 269.85 26.98 270.21 27.34C270.57 27.7 270.75 28.12 270.75 28.6C270.75 29.08 270.57 29.5 270.21 29.86C269.85 30.22 269.43 30.4 268.95 30.4H262.65C262.05 30.4 261.75 30.7 261.75 31.3V44.35C261.75 47.47 263.19 49.03 266.07 49.03C266.79 49.03 267.36 48.94 267.78 48.76C268.26 48.58 268.65 48.49 268.95 48.49C269.49 48.49 269.91 48.7 270.21 49.12C270.57 49.54 270.75 49.99 270.75 50.47C270.75 51.43 270.3 52.03 269.4 52.27C268.8 52.51 268.14 52.66 267.42 52.72C266.76 52.84 266.13 52.9 265.53 52.9ZM289.152 52.9C284.952 52.9 281.592 51.67 279.072 49.21C276.552 46.69 275.292 43.24 275.292 38.86C275.292 36.46 275.832 34.3 276.912 32.38C277.992 30.4 279.492 28.84 281.412 27.7C283.392 26.5 285.702 25.9 288.342 25.9C291.102 25.9 293.382 26.5 295.182 27.7C296.982 28.84 298.302 30.28 299.142 32.02C300.042 33.7 300.492 35.38 300.492 37.06C300.492 38.08 300.252 38.92 299.772 39.58C299.352 40.24 298.722 40.57 297.882 40.57H280.602C280.242 40.57 279.972 40.6 279.792 40.66C279.672 40.72 279.612 40.93 279.612 41.29C279.612 42.31 279.942 43.42 280.602 44.62C281.262 45.82 282.192 46.87 283.392 47.77C284.652 48.61 286.092 49.09 287.712 49.21C289.452 49.33 291.162 49.15 292.842 48.67C294.522 48.19 296.022 47.44 297.342 46.42C297.642 46.18 297.972 46.06 298.332 46.06C298.752 46.06 299.142 46.24 299.502 46.6C299.922 46.96 300.132 47.41 300.132 47.95C300.132 48.49 299.862 49.03 299.322 49.57C297.882 50.71 296.262 51.55 294.462 52.09C292.662 52.63 290.892 52.9 289.152 52.9ZM294.822 37.42C295.302 37.42 295.662 37.24 295.902 36.88C296.142 36.46 296.202 35.95 296.082 35.35C295.902 33.79 295.092 32.41 293.652 31.21C292.212 29.95 290.442 29.32 288.342 29.32C286.782 29.32 285.342 29.71 284.022 30.49C282.762 31.21 281.742 32.14 280.962 33.28C280.182 34.42 279.792 35.62 279.792 36.88C279.792 37.18 280.062 37.33 280.602 37.33L294.822 37.42ZM311.278 39.31V50.83C311.278 51.43 311.098 51.91 310.738 52.27C310.378 52.69 309.898 52.9 309.298 52.9C308.698 52.9 308.188 52.69 307.768 52.27C307.408 51.91 307.228 51.43 307.228 50.83V28.33C307.228 27.67 307.438 27.19 307.858 26.89C308.278 26.53 308.758 26.35 309.298 26.35C309.778 26.35 310.228 26.53 310.648 26.89C311.068 27.19 311.278 27.67 311.278 28.33V30.49C311.998 28.99 313.198 27.85 314.878 27.07C316.558 26.29 318.148 25.9 319.648 25.9C320.548 25.9 321.448 26.05 322.348 26.35C322.948 26.53 323.368 26.86 323.608 27.34C323.908 27.82 323.968 28.36 323.788 28.96C323.368 30.16 322.558 30.64 321.358 30.4C320.278 30.1 319.378 29.95 318.658 29.95C316.318 29.95 314.488 30.85 313.168 32.65C311.908 34.39 311.278 36.61 311.278 39.31ZM351.169 52.9C350.569 52.9 350.059 52.69 349.639 52.27C349.279 51.91 349.099 51.43 349.099 50.83V38.59C349.099 35.59 348.469 33.37 347.209 31.93C345.949 30.49 344.179 29.77 341.899 29.77C339.799 29.77 338.059 30.28 336.679 31.3C335.359 32.26 334.399 33.49 333.799 34.99C333.199 36.43 332.899 37.87 332.899 39.31V50.83C332.899 51.43 332.719 51.91 332.359 52.27C331.999 52.69 331.519 52.9 330.919 52.9C330.319 52.9 329.809 52.69 329.389 52.27C329.029 51.91 328.849 51.43 328.849 50.83V28.33C328.849 27.67 329.059 27.19 329.479 26.89C329.899 26.53 330.379 26.35 330.919 26.35C331.399 26.35 331.849 26.53 332.269 26.89C332.689 27.19 332.899 27.67 332.899 28.33V30.31C334.099 28.93 335.539 27.85 337.219 27.07C338.899 26.29 340.639 25.9 342.439 25.9C345.499 25.9 348.049 26.92 350.089 28.96C352.129 30.94 353.149 34.03 353.149 38.23V50.83C353.149 51.43 352.969 51.91 352.609 52.27C352.249 52.69 351.769 52.9 351.169 52.9ZM363.361 52.9C362.761 52.9 362.251 52.69 361.831 52.27C361.471 51.91 361.291 51.43 361.291 50.83V27.88C361.291 27.22 361.501 26.74 361.921 26.44C362.341 26.08 362.821 25.9 363.361 25.9C363.841 25.9 364.291 26.08 364.711 26.44C365.131 26.74 365.341 27.22 365.341 27.88V50.83C365.341 51.43 365.161 51.91 364.801 52.27C364.441 52.69 363.961 52.9 363.361 52.9ZM363.091 19.96C362.131 19.96 361.351 19.69 360.751 19.15C360.211 18.55 359.941 17.8 359.941 16.9C359.941 15.94 360.211 15.19 360.751 14.65C361.351 14.05 362.131 13.75 363.091 13.75C364.051 13.75 364.801 14.05 365.341 14.65C365.941 15.19 366.241 15.94 366.241 16.9C366.241 17.8 365.941 18.55 365.341 19.15C364.801 19.69 364.051 19.96 363.091 19.96ZM383.039 52.9C380.579 52.9 378.659 52.18 377.279 50.74C375.899 49.24 375.209 47.2 375.209 44.62V31.3C375.209 30.7 374.909 30.4 374.309 30.4H372.059C371.579 30.4 371.159 30.22 370.799 29.86C370.439 29.5 370.259 29.08 370.259 28.6C370.259 28.12 370.439 27.7 370.799 27.34C371.159 26.98 371.579 26.8 372.059 26.8H374.309C374.909 26.8 375.209 26.5 375.209 25.9V17.53C375.209 16.87 375.419 16.39 375.839 16.09C376.259 15.73 376.709 15.55 377.189 15.55C377.729 15.55 378.209 15.73 378.629 16.09C379.049 16.39 379.259 16.87 379.259 17.53V25.9C379.259 26.5 379.559 26.8 380.159 26.8H386.459C386.939 26.8 387.359 26.98 387.719 27.34C388.079 27.7 388.259 28.12 388.259 28.6C388.259 29.08 388.079 29.5 387.719 29.86C387.359 30.22 386.939 30.4 386.459 30.4H380.159C379.559 30.4 379.259 30.7 379.259 31.3V44.35C379.259 47.47 380.699 49.03 383.579 49.03C384.299 49.03 384.869 48.94 385.289 48.76C385.769 48.58 386.159 48.49 386.459 48.49C386.999 48.49 387.419 48.7 387.719 49.12C388.079 49.54 388.259 49.99 388.259 50.47C388.259 51.43 387.809 52.03 386.909 52.27C386.309 52.51 385.649 52.66 384.929 52.72C384.269 52.84 383.639 52.9 383.039 52.9ZM391.452 27.79C391.452 27.07 391.722 26.59 392.262 26.35C392.862 26.05 393.372 25.9 393.792 25.9C394.572 25.9 395.142 26.35 395.502 27.25L403.062 46.15C403.482 47.05 404.052 47.5 404.772 47.5C404.952 47.5 405.162 47.47 405.402 47.41C405.642 47.35 405.792 47.2 405.852 46.96L413.502 27.34C413.862 26.38 414.462 25.9 415.302 25.9C415.782 25.9 416.262 26.08 416.742 26.44C417.282 26.8 417.552 27.25 417.552 27.79C417.552 28.03 417.492 28.33 417.372 28.69L403.152 63.16C402.792 64.12 402.192 64.6 401.352 64.6C400.872 64.6 400.362 64.42 399.822 64.06C399.342 63.7 399.102 63.25 399.102 62.71C399.102 62.35 399.162 62.05 399.282 61.81L403.512 52.45C402.852 52.45 402.282 52.27 401.802 51.91C401.322 51.49 400.992 51.07 400.812 50.65L391.632 28.6C391.512 28.24 391.452 27.97 391.452 27.79Z" fill="white"/>
</svg>
