<svg width="21" height="30" viewBox="0 0 21 30" fill="none" xmlns="http://www.w3.org/2000/svg">
<path d="M7.11919 23.3221C7.05999 23.7992 7.23689 24.1453 7.6499 24.3605C8.08951 24.5776 8.53364 24.7281 8.98231 24.8121C9.83005 24.9232 10.6512 25.0326 11.4457 25.1401C12.2687 25.2229 13.0792 25.2914 13.8774 25.3457C14.5691 25.3928 15.2484 25.4257 15.9154 25.4444C16.6089 25.4648 17.3167 25.4729 18.0386 25.4686C18.4395 25.4692 18.7549 25.7446 18.9847 26.2948C19.2163 26.8184 19.3132 27.3595 19.2751 27.9182C19.2498 28.2907 19.1606 28.6188 19.0077 28.9024C18.8547 29.186 18.6159 29.3568 18.2912 29.4149C15.2093 29.9268 11.9657 30.0668 8.56021 29.835C7.68225 29.7752 6.79279 29.688 5.89183 29.5732C5.01749 29.4602 4.14495 29.3206 3.27423 29.1544C2.85217 29.0723 2.43283 28.9502 2.0162 28.7882C1.62618 28.628 1.27969 28.4173 0.976723 28.1561C0.700366 27.8967 0.479936 27.6011 0.315432 27.2692C0.179344 26.9124 0.153299 26.5097 0.237296 26.0611C0.754515 22.7819 1.16169 19.5488 1.45883 16.3616C1.78438 13.1496 2.06487 9.81433 2.3003 6.35566L2.56108 2.52453C2.60817 1.8328 2.92464 1.30641 3.51052 0.945364C4.12299 0.586128 4.7503 0.401637 5.39245 0.391891C6.16762 0.391201 6.94188 0.403812 7.71524 0.429724C8.4886 0.455638 9.28766 0.496665 10.1124 0.552806C11.4959 0.646978 12.9032 0.782868 14.3345 0.960478C15.7675 1.11148 17.1979 1.30239 18.6255 1.53321C19.1806 1.62445 19.5758 1.90527 19.811 2.37567C20.0463 2.84607 20.1458 3.34731 20.1096 3.87942C20.0716 4.43812 19.8899 4.94696 19.5647 5.40593C19.2412 5.8383 18.801 6.02217 18.2441 5.95753L16.8474 5.86245C15.5703 5.77552 14.3314 5.71792 13.1305 5.68963C11.9297 5.66135 10.6995 5.67116 9.44001 5.71907C9.03732 5.74512 8.71959 5.89722 8.48682 6.17539C8.25587 6.42695 8.13921 6.76648 8.13684 7.19397C8.12123 8.20859 8.08083 9.19479 8.01564 10.1526C7.97886 11.0856 7.94208 12.0186 7.9053 12.9515L10.3397 13.1172C12.7341 13.2802 15.1658 13.4859 17.6346 13.7341C18.1117 13.7933 18.4413 14.0563 18.6233 14.5231C18.8338 14.965 18.9209 15.4521 18.8847 15.9842C18.843 16.5961 18.6578 17.1581 18.3289 17.6703C18 18.1825 17.5704 18.4072 17.0401 18.3444C16.3236 18.2689 15.6062 18.2067 14.8879 18.1578C14.1979 18.0841 13.4938 18.0228 12.7755 17.9739C11.9241 17.9159 11.0585 17.8704 10.1787 17.8372C9.32738 17.7793 8.47512 17.7346 7.62194 17.7033C7.53195 18.6326 7.45526 19.5629 7.39188 20.4941C7.32849 21.4253 7.2376 22.3679 7.11919 23.3221Z" fill="white"/>
</svg>
