<svg width="53" height="51" viewBox="0 0 53 51" fill="none" xmlns="http://www.w3.org/2000/svg">
<path d="M15.2505 8.61498C14.4416 8.44453 13.6972 8.6147 13.0173 9.12548C12.3373 9.63627 11.7206 10.3647 11.1669 11.3109C10.6393 12.2626 10.1626 13.3612 9.73659 14.6068C9.3422 15.8318 9.01305 17.0706 8.74912 18.3231C8.51269 19.4451 8.41638 20.4195 8.46018 21.2463C8.53007 22.0786 8.69544 22.7811 8.95628 23.3539C9.22262 23.9006 9.58169 24.3305 10.0335 24.6437C10.5114 24.9624 11.0373 25.1823 11.6114 25.3032C12.1855 25.4242 12.7582 25.4222 13.3295 25.2974C13.9325 25.1519 14.4977 24.8622 15.0252 24.4283C15.5526 23.9944 16.032 23.4005 16.4634 22.6466C16.9003 21.8666 17.2425 20.8894 17.4899 19.7152C17.7868 18.3062 17.9731 16.9692 18.0489 15.7043C18.1247 14.4394 18.0761 13.3118 17.9033 12.3216C17.7359 11.3052 17.4332 10.4784 16.9952 9.84106C16.5627 9.17763 15.9811 8.76894 15.2505 8.61498ZM16.5949 2.23508C18.2127 2.57598 19.5832 3.31443 20.7064 4.45044C21.8558 5.59195 22.7462 6.99229 23.3776 8.65148C24.0091 10.3107 24.3823 12.1607 24.4973 14.2016C24.6178 16.2164 24.4554 18.2806 24.01 20.3942C23.1468 24.4909 21.6286 27.4276 19.4556 29.2044C17.288 30.9551 14.3386 31.4373 10.6072 30.6511C6.95405 29.8813 4.47533 28.3234 3.17103 25.9774C1.89831 23.6108 1.68533 20.4183 2.53208 16.3999C3.01043 14.1297 3.70644 12.0553 4.62009 10.1767C5.55984 8.30352 6.64306 6.7195 7.86974 5.4246C9.09643 4.1297 10.4528 3.18917 11.939 2.60299C13.4251 2.01682 14.9771 1.89418 16.5949 2.23508Z" fill="white"/>
<circle cx="16" cy="13" r="3" fill="white"/>
<path d="M40.2505 12.615C39.4416 12.4445 38.6972 12.6147 38.0173 13.1255C37.3373 13.6363 36.7206 14.3647 36.1669 15.3109C35.6393 16.2626 35.1626 17.3612 34.7366 18.6068C34.3422 19.8318 34.013 21.0706 33.7491 22.3231C33.5127 23.4451 33.4164 24.4195 33.4602 25.2463C33.5301 26.0786 33.6954 26.7811 33.9563 27.3539C34.2226 27.9006 34.5817 28.3305 35.0335 28.6437C35.5114 28.9624 36.0373 29.1823 36.6114 29.3032C37.1855 29.4242 37.7582 29.4222 38.3295 29.2974C38.9325 29.1519 39.4977 28.8622 40.0252 28.4283C40.5526 27.9944 41.032 27.4005 41.4634 26.6466C41.9003 25.8666 42.2425 24.8894 42.4899 23.7152C42.7868 22.3062 42.9731 20.9692 43.0489 19.7043C43.1247 18.4394 43.0761 17.3118 42.9033 16.3216C42.7359 15.3052 42.4332 14.4784 41.9952 13.8411C41.5627 13.1776 40.9811 12.7689 40.2505 12.615ZM41.5949 6.23508C43.2127 6.57598 44.5832 7.31443 45.7064 8.45044C46.8558 9.59195 47.7462 10.9923 48.3776 12.6515C49.0091 14.3107 49.3823 16.1607 49.4973 18.2016C49.6178 20.2164 49.4554 22.2806 49.01 24.3942C48.1468 28.4909 46.6286 31.4276 44.4556 33.2044C42.288 34.9551 39.3386 35.4373 35.6072 34.6511C31.954 33.8813 29.4753 32.3234 28.171 29.9774C26.8983 27.6108 26.6853 24.4183 27.5321 20.3999C28.0104 18.1297 28.7064 16.0553 29.6201 14.1767C30.5598 12.3035 31.6431 10.7195 32.8697 9.4246C34.0964 8.1297 35.4528 7.18917 36.939 6.60299C38.4251 6.01682 39.9771 5.89418 41.5949 6.23508Z" fill="white"/>
<circle cx="41" cy="17" r="3" fill="white"/>
<path d="M37.4179 44.6942C36.3946 45.3234 35.3097 45.9272 34.1635 46.5054C33.0445 47.122 31.7775 47.6321 30.3625 48.0359C28.9475 48.4396 27.3729 48.7007 25.639 48.8191C23.9323 48.9758 21.9956 48.9111 19.8287 48.6249C16.5466 48.1913 13.612 47.213 11.0249 45.6899C8.46523 44.2052 6.26675 42.1949 4.42949 39.659C4.10123 39.1987 3.99589 38.6463 4.11346 38.0017C4.2629 37.3612 4.49906 36.9234 4.82194 36.6881C5.1857 36.3887 5.62702 36.2385 6.14589 36.2376C6.66025 36.2708 7.14077 36.5601 7.58747 37.1055C9.38356 39.4622 11.3109 41.1935 13.3695 42.2993C15.4281 43.4051 17.6523 44.1158 20.0422 44.4315C21.7311 44.6546 23.2105 44.7458 24.4803 44.7051C25.7501 44.6644 26.956 44.4936 28.0981 44.1928C29.2357 43.9261 30.3935 43.5058 31.5717 42.9317C32.7453 42.3919 34.0963 41.7365 35.6247 40.9655C36.2524 40.6315 36.8145 40.5494 37.3108 40.7192C37.8344 40.9273 38.1967 41.2531 38.3975 41.6966C38.6256 42.1784 38.6717 42.6883 38.5358 43.2263C38.4273 43.8026 38.0546 44.2919 37.4179 44.6942Z" fill="white"/>
</svg>
