<svg width="22" height="31" viewBox="0 0 22 31" fill="none" xmlns="http://www.w3.org/2000/svg">
<path d="M0.884445 1.68C0.857778 1.14667 1.15111 0.733334 1.76444 0.440001C2.37778 0.146667 3.03111 0 3.72444 0C4.33778 0 4.91111 0.133334 5.44444 0.400002C5.97778 0.640002 6.27111 1.04 6.32444 1.6C6.51111 3.46667 6.65778 5.29333 6.76444 7.08C6.87111 8.86667 6.95111 10.6667 7.00444 12.48C9.53778 12.48 12.1644 12.52 14.8844 12.6C14.9111 11.5867 14.9244 10.5733 14.9244 9.56C14.9511 8.52 14.9644 7.48 14.9644 6.44C14.9644 5.69333 14.9511 4.96 14.9244 4.24C14.9244 3.49333 14.9244 2.73333 14.9244 1.96C14.9244 1.69333 15.0044 1.45333 15.1644 1.24C15.3244 1.02667 15.5378 0.853333 15.8044 0.72C16.0978 0.586667 16.4178 0.48 16.7644 0.400002C17.1111 0.320001 17.4711 0.280001 17.8444 0.280001C18.4844 0.280001 19.0711 0.413334 19.6044 0.68C20.1378 0.92 20.4311 1.30667 20.4844 1.84C20.7511 4.29333 20.9378 6.70667 21.0444 9.08C21.1511 11.4267 21.2044 13.7733 21.2044 16.12C21.2044 18.2533 21.1644 20.3733 21.0844 22.48C21.0044 24.5867 20.8844 26.7467 20.7244 28.96C20.6978 29.4133 20.3911 29.7467 19.8044 29.96C19.2444 30.1733 18.5911 30.28 17.8444 30.28C17.3644 30.28 16.8844 30.24 16.4044 30.16C15.9511 30.08 15.5378 29.96 15.1644 29.8C14.8178 29.6667 14.5244 29.4933 14.2844 29.28C14.0711 29.0667 13.9778 28.8267 14.0044 28.56C14.3244 24.88 14.5644 21.3333 14.7244 17.92C13.4444 17.8667 12.1644 17.8267 10.8844 17.8C9.60444 17.7733 8.32444 17.7467 7.04445 17.72C7.01778 19.4533 6.96445 21.1867 6.88445 22.92C6.80445 24.6533 6.69778 26.44 6.56444 28.28C6.51111 28.7333 6.20444 29.0667 5.64444 29.28C5.08444 29.4933 4.44444 29.6 3.72444 29.6C3.27111 29.6 2.81778 29.56 2.36444 29.48C1.91111 29.4 1.49778 29.2933 1.12444 29.16C0.777778 29 0.497778 28.8133 0.284444 28.6C0.0711111 28.3867 -0.0222222 28.1467 0.00444443 27.88C0.324444 24.1733 0.551111 20.5867 0.684445 17.12C0.844445 13.6533 0.924444 10.1067 0.924444 6.48C0.924444 5.68 0.924444 4.89333 0.924444 4.12C0.924444 3.32 0.911111 2.50667 0.884445 1.68Z" fill="white"/>
</svg>
