<svg width="current" height="current" viewBox="0 0 8 30" fill="none" xmlns="http://www.w3.org/2000/svg">
<path d="M0.404445 1.72C0.404445 1.45333 0.484445 1.21333 0.644445 1C0.804445 0.786668 1.01778 0.613335 1.28444 0.480001C1.57778 0.32 1.89778 0.2 2.24444 0.120001C2.61778 0.0400003 2.99111 0 3.36444 0C4.00444 0 4.57778 0.133333 5.08444 0.4C5.61778 0.64 5.92445 1.02667 6.00445 1.56C6.37778 4.49333 6.63111 7.37333 6.76444 10.2C6.92444 13 7.00445 15.8533 7.00445 18.76C7.00445 21.8267 6.92444 24.9733 6.76444 28.2C6.73778 28.68 6.41778 29.04 5.80445 29.28C5.19111 29.4933 4.49778 29.6 3.72444 29.6C3.27111 29.6 2.81778 29.56 2.36444 29.48C1.91111 29.4267 1.49778 29.3333 1.12444 29.2C0.777778 29.04 0.497778 28.8667 0.284445 28.68C0.0711113 28.4667 -0.0222222 28.2267 0.00444443 27.96C0.217778 25.0533 0.364445 22.2267 0.444445 19.48C0.524445 16.7333 0.564445 13.96 0.564445 11.16C0.564445 9.61333 0.551111 8.06667 0.524444 6.52C0.497778 4.94667 0.457778 3.34667 0.404445 1.72Z" fill="white"/>
</svg>
