<svg width="current" height="current" viewBox="0 0 29 32" fill="none" xmlns="http://www.w3.org/2000/svg">
<path d="M18.6976 26.7749C18.615 27.2662 18.3209 27.659 17.8155 27.9532C17.3101 28.2474 16.7523 28.4265 16.1423 28.4903C15.4793 28.5597 14.8568 28.5042 14.2749 28.3239C13.6901 28.117 13.3051 27.7685 13.1197 27.2785C12.2487 24.8493 11.3504 22.5436 10.4249 20.3615C9.4965 18.1528 8.48441 15.9127 7.3886 13.6411C7.49842 14.4339 7.5922 15.2017 7.66995 15.9443C7.77144 16.6576 7.85967 17.3723 7.93464 18.0884C8.13733 20.0245 8.28282 21.9263 8.3711 23.794C8.48589 25.6588 8.59222 27.6988 8.69007 29.914C8.68423 30.3704 8.4272 30.7325 7.91898 31.0002C7.41076 31.2679 6.81186 31.4379 6.1223 31.5101C5.67143 31.5573 5.22966 31.5633 4.79698 31.5282C4.3643 31.493 3.96863 31.4272 3.60997 31.3307C3.24852 31.2076 2.95061 31.0511 2.71622 30.8612C2.50836 30.6684 2.4038 30.4381 2.40256 30.1701C2.29848 26.6149 2.15664 23.2112 1.97702 19.9589C1.82392 16.7038 1.56967 13.3789 1.21426 9.98409C1.11985 9.08235 1.01218 8.182 0.891257 7.28304C0.794075 6.35478 0.683632 5.42791 0.559928 4.50242C0.521055 4.13112 0.567301 3.80453 0.698665 3.52265C0.856551 3.238 1.07303 3.00084 1.34811 2.81116C1.64694 2.59219 1.9911 2.4221 2.38059 2.30088C2.77009 2.17967 3.16375 2.09824 3.56158 2.05659C4.27766 1.98162 4.96785 2.04342 5.63214 2.242C6.32017 2.41128 6.79387 2.71025 7.05325 3.1389C8.64436 5.78763 10.0882 8.43836 11.3848 11.0911C12.6786 13.7173 13.8957 16.3784 15.0359 19.0743C15.5847 16.1211 16.1803 13.2301 16.8225 10.4012C17.462 7.54573 18.2397 4.72945 19.1555 1.95232C19.3205 1.47924 19.6954 1.09142 20.2805 0.788863C20.8892 0.457007 21.5384 0.254983 22.2279 0.182791C22.6258 0.141141 23.0145 0.140663 23.3941 0.181356C23.8003 0.21927 24.1722 0.314394 24.5099 0.466727C24.8448 0.592537 25.119 0.778333 25.3324 1.02411C25.5723 1.26712 25.725 1.57288 25.7904 1.94141C26.2901 4.40946 26.7152 6.80489 27.0656 9.1277C27.4133 11.424 27.7093 13.7391 27.9536 16.073C28.1646 18.0886 28.3373 20.1217 28.4715 22.1722C28.6057 24.2227 28.719 26.329 28.8113 28.4912C28.832 28.9448 28.5749 29.3069 28.0402 29.5774C27.5055 29.8479 26.8933 30.0192 26.2037 30.0914C25.7529 30.1386 25.2978 30.146 24.8386 30.1137C24.406 30.0785 23.9956 30.0008 23.6077 29.8806C23.249 29.784 22.9525 29.6408 22.7181 29.4508C22.4837 29.2609 22.3659 29.0319 22.3647 28.7639C22.3279 27.1322 22.2876 25.5947 22.2437 24.1514C22.1971 22.6816 22.1253 21.2279 22.0284 19.7901C21.9581 18.3496 21.8598 16.8987 21.7336 15.4372C21.6339 13.9729 21.5113 12.4172 21.3656 10.7701C20.8002 13.5642 20.3031 16.2438 19.8746 18.8091C19.4432 21.3478 19.0509 24.0031 18.6976 26.7749Z" fill="white"/>
</svg>
