<svg width="current" height="current" viewBox="0 0 22 32" fill="none" xmlns="http://www.w3.org/2000/svg">
<path d="M15.2525 22.4238C15.1335 21.5518 14.7155 20.8553 13.9985 20.3341C13.3079 19.8093 12.451 19.3475 11.4277 18.9489C10.4308 18.5466 9.35471 18.1551 8.19932 17.7744C7.04393 17.3938 5.94378 16.9249 4.89888 16.3676C3.88039 15.8068 2.99101 15.1073 2.23073 14.269C1.49326 13.4007 1.03262 12.2928 0.848792 10.9453C0.470325 8.17101 1.07251 5.97614 2.65535 4.3607C4.23459 2.71884 6.74163 1.66362 10.1765 1.19505C11.2862 1.04366 12.4728 0.962528 13.7363 0.95165C14.9961 0.914351 16.346 0.945504 17.7861 1.04511C18.246 1.0631 18.6027 1.31049 18.8562 1.78727C19.136 2.26046 19.3174 2.8009 19.4003 3.4086C19.4544 3.80493 19.4688 4.20667 19.4436 4.61381C19.4148 4.99453 19.3428 5.35424 19.2275 5.69293C19.135 6.00159 18.9939 6.24961 18.8042 6.43697C18.6108 6.59792 18.3748 6.64357 18.0962 6.57393C16.8496 6.31337 15.6455 6.16812 14.4842 6.13815C13.3228 6.10819 12.2401 6.1617 11.236 6.29867C9.88853 6.48249 8.81124 6.87168 8.0042 7.46622C7.22358 8.05716 6.91076 8.9207 7.06575 10.0568C7.14866 10.6645 7.54321 11.1894 8.24943 11.6313C8.95564 12.0732 9.8222 12.5067 10.8491 12.9318C11.9024 13.3533 13.0272 13.8055 14.2234 14.2882C15.416 14.7445 16.542 15.3041 17.6013 15.967C18.6834 16.5999 19.6101 17.3751 20.3812 18.2926C21.1522 19.2101 21.6261 20.3162 21.8027 21.6109C22.001 23.0641 21.8911 24.3306 21.4733 25.4103C21.0782 26.46 20.4087 27.3722 19.4647 28.1469C18.5436 28.8916 17.363 29.5102 15.923 30.0027C14.4795 30.4687 12.8065 30.8315 10.9041 31.0911C9.90007 31.228 8.851 31.3308 7.75688 31.3993C6.6928 31.4906 5.55725 31.5513 4.35024 31.5814C4.10884 31.5874 3.88304 31.5106 3.67286 31.3509C3.4891 31.1875 3.31133 30.9696 3.13958 30.6969C2.99424 30.4207 2.87172 30.1145 2.77202 29.7782C2.66871 29.4155 2.59183 29.0492 2.54137 28.6793C2.4837 28.2565 2.46746 27.8416 2.49266 27.4344C2.51786 27.0273 2.57669 26.6694 2.66915 26.3607C2.758 26.0257 2.89731 25.7644 3.08706 25.5771C3.27681 25.3897 3.50559 25.2912 3.77342 25.2816C5.14977 25.3091 6.53934 25.3349 7.94211 25.3588C9.34128 25.3563 10.5957 25.2794 11.7055 25.128C12.8416 24.973 13.7465 24.7016 14.4203 24.3136C15.0904 23.8992 15.3678 23.2693 15.2525 22.4238Z" fill="white"/>
</svg>
