<svg width="22" height="29" viewBox="0 0 22 29" fill="none" xmlns="http://www.w3.org/2000/svg">
<path d="M19.9034 0.316602C20.3831 0.285269 20.7451 0.495092 20.9895 0.946071C21.2339 1.39705 21.3588 1.90252 21.3643 2.4625C21.3695 2.99581 21.2412 3.51708 20.9795 4.02631C20.7442 4.50862 20.3601 4.77904 19.8273 4.83756C18.8953 4.97996 17.9632 5.10903 17.0309 5.22477C16.1254 5.34025 15.2063 5.44252 14.2738 5.53159C14.4237 7.23688 14.5334 8.91589 14.6028 10.5686C14.6986 12.1944 14.7544 13.8206 14.7702 15.4472C14.7897 17.4471 14.7557 19.4342 14.6682 21.4085C14.6074 23.3825 14.4804 25.4105 14.2873 27.4925C14.2384 27.9463 13.9217 28.2828 13.3371 28.5018C12.779 28.6939 12.1266 28.7936 11.3799 28.8008C10.9 28.8055 10.4196 28.7702 9.93883 28.6948C9.45808 28.6195 9.01706 28.5171 8.61578 28.3877C8.24091 28.2313 7.93245 28.0477 7.69038 27.8367C7.44832 27.6257 7.33932 27.3867 7.3634 27.1198C7.64889 23.5702 7.88158 20.0744 8.06145 16.6325C8.26799 13.1904 8.39337 9.62897 8.43758 5.94836C8.01093 5.95251 7.58441 5.96999 7.15803 6.0008C6.75805 6.00469 6.34473 6.00871 5.91809 6.01286C5.30478 6.01883 4.70481 6.02466 4.11817 6.03036C3.55794 6.00915 2.97104 5.98819 2.35748 5.96748C1.85057 5.94575 1.47415 5.62939 1.22819 5.01842C1.00891 4.40719 0.895633 3.72826 0.888373 2.98163C0.881112 2.235 0.981291 1.56733 1.18891 0.978612C1.42293 0.362974 1.76673 0.0662828 2.2203 0.0885397C4.54149 0.199307 6.84909 0.28354 9.14309 0.341237C11.4371 0.398933 13.744 0.416502 16.0639 0.393942C16.7039 0.387719 17.3439 0.381496 17.9838 0.375272C18.6238 0.369049 19.2636 0.349492 19.9034 0.316602Z" fill="white"/>
</svg>
