<svg width="32" height="32" viewBox="0 0 32 32" fill="none" xmlns="http://www.w3.org/2000/svg">
<path d="M16 30.0001C18.2091 30.0001 20 28.2092 20 26.0001C20 25.9157 19.9974 25.8319 19.9922 25.7488C19.9773 25.5072 19.7685 25.3314 19.5265 25.3287L12.4895 25.2489C12.2475 25.2461 12.0348 25.4171 12.0144 25.6583C12.0049 25.7709 12 25.8849 12 26.0001C12 28.2092 13.7909 30.0001 16 30.0001Z" fill="#262F56"/>
<path d="M6.66675 12C6.66675 6.84534 10.8454 2 16.0001 2C21.1547 2 25.3334 6.84534 25.3334 12V15.2809C25.3334 17.0104 26.073 18.6574 27.3657 19.8065V19.8065C28.7528 21.0395 27.8807 23.3333 26.0248 23.3333H5.97537C4.11948 23.3333 3.24735 21.0395 4.63447 19.8065V19.8065C5.92714 18.6574 6.66675 17.0104 6.66675 15.2809V12Z" fill="#262F56"/>
<circle cx="24" cy="7" r="4.5" fill="#EB5757" stroke="white"/>
</svg>
