<svg width="32" height="32" viewBox="0 0 32 32" fill="none" xmlns="http://www.w3.org/2000/svg">
<path d="M16 30C18.2091 30 20 28.2091 20 26C20 25.9156 19.9974 25.8318 19.9922 25.7487C19.9773 25.507 19.7685 25.3313 19.5265 25.3286L12.4895 25.2488C12.2475 25.246 12.0348 25.417 12.0144 25.6582C12.0049 25.7708 12 25.8848 12 26C12 28.2091 13.7909 30 16 30Z" fill="#262F56"/>
<path d="M6.66699 12C6.66699 6.84534 10.8457 2 16.0003 2C21.155 2 25.3337 6.84534 25.3337 12V15.2809C25.3337 17.0104 26.0733 18.6574 27.3659 19.8065C28.7531 21.0395 27.8809 23.3333 26.025 23.3333H5.97562C4.11972 23.3333 3.2476 21.0395 4.63471 19.8065C5.92739 18.6574 6.66699 17.0104 6.66699 15.2809V12Z" fill="#262F56"/>
</svg>
