<svg width="current" height="current" viewBox="0 0 302 302" fill="none" xmlns="http://www.w3.org/2000/svg">
<circle cx="151" cy="151" r="151" fill="#9DABB7"/>
<path d="M77.9448 70.8962C75.1453 70.2901 72.5691 70.8952 70.216 72.7113C67.863 74.5273 65.7284 77.1174 63.8123 80.4816C61.9866 83.8652 60.3366 87.7714 58.8624 92.2002C57.4975 96.5557 56.3583 100.96 55.445 105.413C54.6268 109.403 54.2934 112.867 54.445 115.807C54.6869 118.766 55.2592 121.264 56.1619 123.3C57.0836 125.244 58.3263 126.773 59.8898 127.886C61.5437 129.019 63.3639 129.801 65.3506 130.231C67.3373 130.661 69.3193 130.654 71.2967 130.21C73.3833 129.693 75.3394 128.663 77.1648 127.12C78.9903 125.578 80.6494 123.466 82.1423 120.785C83.6543 118.012 84.8384 114.538 85.6947 110.363C86.7222 105.353 87.3671 100.6 87.6293 96.1023C87.8915 91.605 87.7235 87.5959 87.1253 84.075C86.546 80.4614 85.4985 77.5216 83.9827 75.2555C82.4859 72.8967 80.4733 71.4436 77.9448 70.8962ZM82.5972 48.2125C88.1961 49.4245 92.9391 52.0501 96.8264 56.0892C100.804 60.1478 103.885 65.1267 106.071 71.0259C108.256 76.9252 109.548 83.503 109.946 90.7594C110.363 97.923 109.801 105.262 108.259 112.777C105.272 127.343 100.018 137.785 92.4974 144.102C84.9961 150.327 74.7887 152.041 61.8752 149.245C49.2326 146.509 40.6544 140.969 36.1405 132.628C31.736 124.214 30.9989 112.863 33.9293 98.5753C35.5847 90.5038 37.9935 83.1283 41.1554 76.4488C44.4076 69.7888 48.1564 64.1568 52.4017 59.5528C56.6469 54.9488 61.3411 51.6047 66.4843 49.5206C71.6274 47.4364 76.9984 47.0004 82.5972 48.2125Z" fill="#FFFBEA"/>
<path d="M90.9208 86.4907C90.9208 92.3817 86.2725 97.1572 80.5385 97.1572C74.8046 97.1572 70.1562 92.3817 70.1562 86.4907C70.1562 80.5998 74.8046 75.8242 80.5385 75.8242C86.2725 75.8242 90.9208 80.5998 90.9208 86.4907Z" fill="#FFFBEA"/>
<path d="M96.2685 217.032C96.2685 222.923 91.6202 227.698 85.8862 227.698C80.1522 227.698 75.5039 222.923 75.5039 217.032C75.5039 211.141 80.1522 206.365 85.8862 206.365C91.6202 206.365 96.2685 211.141 96.2685 217.032Z" fill="#FFFBEA"/>
<path d="M153.445 106.131C150.645 105.525 148.069 106.13 145.716 107.946C143.363 109.762 141.228 112.352 139.312 115.716C137.487 119.1 135.837 123.006 134.362 127.435C132.997 131.79 131.858 136.194 130.945 140.648C130.127 144.637 129.793 148.102 129.945 151.041C130.187 154 130.759 156.498 131.662 158.535C132.584 160.478 133.826 162.007 135.39 163.121C137.044 164.254 138.864 165.035 140.851 165.466C142.837 165.896 144.819 165.889 146.797 165.445C148.883 164.927 150.839 163.898 152.665 162.355C154.49 160.812 156.149 158.7 157.642 156.02C159.154 153.247 160.338 149.772 161.195 145.597C162.222 140.588 162.867 135.834 163.129 131.337C163.392 126.839 163.224 122.83 162.625 119.309C162.046 115.696 160.999 112.756 159.483 110.49C157.986 108.131 155.973 106.678 153.445 106.131ZM158.097 83.4468C163.696 84.6589 168.439 87.2845 172.326 91.3235C176.304 95.3822 179.385 100.361 181.571 106.26C183.756 112.16 185.048 118.737 185.446 125.994C185.863 133.157 185.301 140.497 183.759 148.012C180.772 162.577 175.518 173.019 167.997 179.336C160.496 185.561 150.289 187.275 137.375 184.48C124.733 181.743 116.154 176.204 111.641 167.863C107.236 159.448 106.499 148.097 109.429 133.81C111.085 125.738 113.493 118.363 116.655 111.683C119.908 105.023 123.656 99.3912 127.902 94.7872C132.147 90.1831 136.841 86.8391 141.984 84.7549C147.127 82.6708 152.498 82.2348 158.097 83.4468Z" fill="#FFFBEA"/>
<ellipse cx="156.039" cy="121.725" rx="10.3823" ry="10.6665" fill="#FFFBEA"/>
<circle cx="151.109" cy="151.109" r="145.576" stroke="#FFFBEA"/>
</svg>
