<svg width="25" height="25" viewBox="0 0 25 25" fill="none" xmlns="http://www.w3.org/2000/svg">
<path d="M12.9482 22.3232C18.4711 22.3232 22.9482 17.8461 22.9482 12.3232C22.9482 6.80039 18.4711 2.32324 12.9482 2.32324C7.42539 2.32324 2.94824 6.80039 2.94824 12.3232C2.94824 17.8461 7.42539 22.3232 12.9482 22.3232Z" stroke="black" stroke-width="1" stroke-linecap="round" stroke-linejoin="round"/>
<path d="M10.0381 9.32284C10.2732 8.6545 10.7372 8.09094 11.348 7.73197C11.9588 7.37299 12.677 7.24177 13.3753 7.36155C14.0735 7.48132 14.7069 7.84436 15.1632 8.38636C15.6194 8.92837 15.8691 9.61436 15.8681 10.3228C15.8681 12.3228 12.8681 13.3228 12.8681 13.3228" stroke="black" stroke-width="1" stroke-linecap="round" stroke-linejoin="round"/>
<path d="M12.9482 17.3232H12.9582" stroke="#333" stroke-width="1" stroke-linecap="round" stroke-linejoin="round"/>
</svg>
