<svg width="62" height="60" viewBox="0 0 62 60" fill="none" xmlns="http://www.w3.org/2000/svg">
<path d="M17.3164 12.5306C16.4224 12.4142 15.6275 12.6627 14.9317 13.276C14.236 13.8894 13.6274 14.7341 13.1061 15.81C12.6136 16.8898 12.1889 18.125 11.8319 19.5156C11.5075 20.8812 11.2552 22.2562 11.0751 23.6405C10.9136 24.8807 10.892 25.9484 11.0101 26.8436C11.1571 27.7426 11.3968 28.4924 11.7292 29.0929C12.0654 29.6646 12.4925 30.1015 13.0104 30.4035C13.5572 30.7093 14.1478 30.9035 14.7823 30.9861C15.4168 31.0687 16.0394 31.0177 16.65 30.8332C17.2932 30.6237 17.883 30.2605 18.4195 29.7437C18.9561 29.227 19.4267 28.5404 19.8315 27.6838C20.24 26.7985 20.5287 25.7069 20.6977 24.4091C20.9004 22.8517 20.989 21.3821 20.9635 20.0003C20.9381 18.6185 20.7892 17.3966 20.5168 16.3346C20.2481 15.2438 19.8485 14.3706 19.318 13.715C18.7911 13.0305 18.124 12.6357 17.3164 12.5306ZM18.2342 5.47904C20.0223 5.71177 21.5755 6.39785 22.8936 7.53728C24.2406 8.68047 25.3281 10.1272 26.1562 11.8774C26.9842 13.6276 27.5478 15.6073 27.8468 17.8166C28.1496 19.9971 28.149 22.2553 27.8449 24.5914C27.2556 29.1194 25.8553 32.442 23.644 34.5592C21.4364 36.6475 18.2706 37.4233 14.1463 36.8865C10.1087 36.361 7.28071 34.8784 5.66252 32.4387C4.07692 29.974 3.57316 26.5209 4.15125 22.0795C4.47782 19.5703 5.05774 17.2555 5.891 15.1349C6.7531 13.0181 7.79585 11.2034 9.01923 9.69089C10.2426 8.17836 11.6373 7.04006 13.2032 6.27601C14.7691 5.51196 16.4461 5.2463 18.2342 5.47904Z" fill="white"/>
<circle cx="18.5052" cy="17.2347" r="3.27194" transform="rotate(-4.48336 18.5052 17.2347)" fill="white"/>
<path d="M44.8401 14.7483C43.946 14.632 43.1511 14.8805 42.4554 15.4938C41.7596 16.1072 41.1511 16.9518 40.6298 18.0278C40.1373 19.1075 39.7126 20.3428 39.3556 21.7334C39.0312 23.099 38.7789 24.474 38.5987 25.8583C38.4373 27.0985 38.4157 28.1662 38.5338 29.0614C38.6807 29.9604 38.9204 30.7102 39.2529 31.3107C39.5891 31.8824 40.0162 32.3193 40.5341 32.6213C41.0809 32.9271 41.6715 33.1213 42.306 33.2039C42.9405 33.2865 43.5631 33.2355 44.1737 33.051C44.8168 32.8414 45.4067 32.4783 45.9432 31.9615C46.4798 31.4448 46.9504 30.7581 47.3552 29.9016C47.7637 29.0162 48.0524 27.9247 48.2213 26.6268C48.424 25.0694 48.5127 23.5998 48.4872 22.2181C48.4618 20.8363 48.3128 19.6144 48.0405 18.5524C47.7718 17.4616 47.3722 16.5884 46.8416 15.9327C46.3148 15.2482 45.6476 14.8534 44.8401 14.7483ZM45.7579 7.69681C47.546 7.92955 49.0992 8.61563 50.4173 9.75506C51.7643 10.8982 52.8518 12.3449 53.6799 14.0951C54.5079 15.8454 55.0715 17.8251 55.3705 20.0344C55.6733 22.2148 55.6727 24.4731 55.3686 26.8092C54.7793 31.3372 53.3789 34.6597 51.1676 36.7769C48.9601 38.8653 45.7942 39.641 41.67 39.1043C37.6323 38.5787 34.8044 37.0961 33.1862 34.6565C31.6006 32.1918 31.0968 28.7387 31.6749 24.2972C32.0015 21.7881 32.5814 19.4732 33.4147 17.3527C34.2768 15.2359 35.3195 13.4212 36.5429 11.9087C37.7663 10.3961 39.161 9.25784 40.7269 8.49379C42.2928 7.72974 43.9698 7.46408 45.7579 7.69681Z" fill="white"/>
<circle cx="46.0289" cy="19.4524" r="3.27194" transform="rotate(-4.48336 46.0289 19.4524)" fill="white"/>
<path d="M44.4951 49.8704C43.436 50.6417 42.308 51.3907 41.1109 52.1171C39.9468 52.8829 38.6127 53.5456 37.1086 54.1053C35.6044 54.6649 33.9147 55.083 32.0394 55.3596C30.1972 55.6755 28.0858 55.7702 25.7054 55.6437C22.0997 55.4521 18.8255 54.6386 15.8827 53.2031C12.9729 51.807 10.4111 49.8086 8.19723 47.208C7.80107 46.7355 7.63943 46.1438 7.71232 45.4328C7.8202 44.7238 8.03965 44.2276 8.37066 43.9442C8.74066 43.5876 9.2077 43.3867 9.77179 43.3414C10.3339 43.3337 10.881 43.6073 11.4132 44.1623C13.5671 46.5716 15.8103 48.2897 18.1429 49.3166C20.4755 50.3434 22.9545 50.9266 25.58 51.0661C27.4353 51.1647 29.0516 51.1377 30.4288 50.9852C31.806 50.8326 33.1027 50.5441 34.3188 50.1197C35.533 49.7327 36.7561 49.177 37.9882 48.4524C39.2183 47.7653 40.6314 46.9375 42.2275 45.9689C42.8815 45.5522 43.4856 45.4151 44.0397 45.5574C44.6269 45.739 45.0485 46.0624 45.3046 46.5275C45.5938 47.0319 45.6874 47.5824 45.5855 48.1789C45.5166 48.8148 45.1531 49.3786 44.4951 49.8704Z" fill="white"/>
</svg>
